<?xml version="1.0" encoding="utf-8"?>
<!-- Generator: Adobe Illustrator 19.0.0, SVG Export Plug-In . SVG Version: 6.00 Build 0)  -->
<svg version="1.1" id="Warstwa_1" xmlns="http://www.w3.org/2000/svg" xmlns:xlink="http://www.w3.org/1999/xlink" x="0px" y="0px"
	 viewBox="-415 145 448 512" style="enable-background:new -415 145 448 512;" xml:space="preserve">
<style type="text/css">
	.st0{fill:#00D1B2;}
</style>
<path class="st0" d="M-228.5,438c0,19.3-14,25.4-31.2,25.4h-45.1v-52.9h46C-240.2,410.6-228.5,418.3-228.5,438L-228.5,438z
	 M-236.2,355.7c0-17.7-13.7-21.9-28.9-21.9h-39.6v44.8h42.7C-246.9,378.6-236.2,372-236.2,355.7L-236.2,355.7z M-103.9,378.9
	c-18.3,0-30.5,11.4-31.7,29.7h62.2C-75.1,390.1-84.7,378.9-103.9,378.9L-103.9,378.9z M33,225v352c0,26.5-21.5,48-48,48h-352
	c-26.5,0-48-21.5-48-48V225c0-26.5,21.5-48,48-48h352C11.5,177,33,198.5,33,225z M-143.3,330h77.8v-18.9h-77.8V330z M-186.3,440.3
	c0-24.1-11.4-44.9-35-51.6c17.2-8.2,26.2-17.7,26.2-37c0-38.2-28.5-47.5-61.4-47.5H-347v192h93.1C-219,496-186.3,479.3-186.3,440.3z
	 M-35,425.5c0-41.1-24.1-75.4-67.6-75.4c-42.4,0-71.1,31.8-71.1,73.6c0,43.3,27.3,73,71.1,73c33.2,0,54.7-14.9,65.1-46.8h-33.7
	c-3.7,11.9-18.6,18.1-30.2,18.1c-22.4,0-34.1-13.1-34.1-35.3h100.2C-35.2,430.4-35,427.9-35,425.5L-35,425.5z"/>
</svg>
