<?xml version="1.0" encoding="utf-8"?>
<!-- Generator: Adobe Illustrator 19.0.0, SVG Export Plug-In . SVG Version: 6.00 Build 0)  -->
<svg version="1.1" id="Warstwa_1" xmlns="http://www.w3.org/2000/svg" xmlns:xlink="http://www.w3.org/1999/xlink" x="0px" y="0px"
	 viewBox="-319 145 640 512" style="enable-background:new -319 145 640 512;" xml:space="preserve">
<style type="text/css">
	.st0{fill:#00D1B2;}
</style>
<path class="st0" d="M106.7,401c-16.9,0-32.8-9-41.4-23.4L1,271l-64.2,106.6c-8.7,14.5-24.6,23.5-41.5,23.5c-4.5,0-9-0.6-13.3-1.9
	L-255,360v178c0,14.7,10,27.5,24.2,31l216.2,54.1c10.2,2.5,20.9,2.5,31,0L232.8,569c14.2-3.6,24.2-16.4,24.2-31V360l-137,39.1
	C115.7,400.4,111.2,401,106.7,401z M319.3,288.8L267.8,186c-3.1-6.2-9.8-9.8-16.7-8.9L1,209l91.7,152.1c3.8,6.3,11.4,9.3,18.5,7.3
	l197.9-56.5C319,309,323.8,298,319.3,288.8L319.3,288.8z M-265.8,186l-51.5,102.8c-4.6,9.2,0.3,20.2,10.1,23l197.9,56.5
	c7.1,2,14.7-1,18.5-7.3L1,209l-250.2-31.9C-256.1,176.3-262.7,179.8-265.8,186z"/>
</svg>
