<?xml version="1.0" encoding="utf-8"?>
<!-- Generator: Adobe Illustrator 19.0.0, SVG Export Plug-In . SVG Version: 6.00 Build 0)  -->
<svg version="1.1" id="Warstwa_1" xmlns="http://www.w3.org/2000/svg" xmlns:xlink="http://www.w3.org/1999/xlink" x="0px" y="0px"
	 viewBox="-319 145 640 512" style="enable-background:new -319 145 640 512;" xml:space="preserve">
<style type="text/css">
	.st0{fill:#00D1B2;}
</style>
<path class="st0" d="M-40.1,656.5l-61-17.7c-6.4-1.8-10-8.5-8.2-14.9L27.2,153.7c1.8-6.4,8.5-10,14.9-8.2l61,17.7
	c6.4,1.8,10,8.5,8.2,14.9L-25.2,648.3C-27.1,654.7-33.7,658.4-40.1,656.5z M-154.1,544.3l43.5-46.4c4.6-4.9,4.3-12.7-0.8-17.2
	L-202,401l90.6-79.7c5.1-4.5,5.5-12.3,0.8-17.2l-43.5-46.4c-4.5-4.8-12.1-5.1-17-0.5l-144.1,135c-5.1,4.7-5.1,12.8,0,17.5
	l144.1,135.1C-166.2,549.4-158.6,549.2-154.1,544.3L-154.1,544.3z M173.1,544.9l144.1-135.1c5.1-4.7,5.1-12.8,0-17.5L173.1,257.1
	c-4.8-4.5-12.4-4.3-17,0.5L112.6,304c-4.6,4.9-4.3,12.7,0.8,17.2L204,401l-90.6,79.7c-5.1,4.5-5.5,12.3-0.8,17.2l43.5,46.4
	C160.6,549.2,168.2,549.4,173.1,544.9L173.1,544.9z"/>
</svg>
