<?xml version="1.0" encoding="utf-8"?>
<!-- Generator: Adobe Illustrator 19.0.0, SVG Export Plug-In . SVG Version: 6.00 Build 0)  -->
<svg version="1.1" id="Warstwa_1" xmlns="http://www.w3.org/2000/svg" xmlns:xlink="http://www.w3.org/1999/xlink" x="0px" y="0px"
	 viewBox="-383 145 512 512" style="enable-background:new -383 145 512 512;" xml:space="preserve">
<style type="text/css">
	.st0{fill:#00D1B2;}
</style>
<path class="st0" d="M105.6,395.2L9,359V250.5c0-15-9.3-28.4-23.4-33.7l-100-37.5c-8.1-3.1-17.1-3.1-25.3,0l-100,37.5
	c-14.1,5.3-23.4,18.7-23.4,33.7V359l-96.6,36.2c-14,5.3-23.3,18.7-23.3,33.7V539c0,13.6,7.7,26.1,19.9,32.2l100,50
	c10.1,5.1,22.1,5.1,32.2,0l103.9-52l103.9,52c10.1,5.1,22.1,5.1,32.2,0l100-50c12.2-6.1,19.9-18.6,19.9-32.2V428.9
	C129,413.9,119.7,400.5,105.6,395.2z M-25,359.8l-85,31.9v-68.2l85-37V359.8z M-229,249.1l102-38.2l102,38.2v0.6l-102,41.4
	l-102-41.4C-229,249.7-229,249.1-229,249.1z M-145,540.2l-85,42.5v-79.1l85-38.8V540.2z M-145,428.2l-102,41.4l-102-41.4v-0.6
	l102-38.2l102,38.2V428.2z M95,540.2l-85,42.5v-79.1l85-38.8V540.2z M95,428.2L-7,469.6l-102-41.4v-0.6l102-38.2l102,38.2V428.2z"/>
</svg>
