<?xml version="1.0" encoding="utf-8"?>
<!-- Generator: Adobe Illustrator 19.0.0, SVG Export Plug-In . SVG Version: 6.00 Build 0)  -->
<svg version="1.1" id="Warstwa_1" xmlns="http://www.w3.org/2000/svg" xmlns:xlink="http://www.w3.org/1999/xlink" x="0px" y="0px"
	 viewBox="-383 145 512 512" style="enable-background:new -383 145 512 512;" xml:space="preserve">
<style type="text/css">
	.st0{fill:#00D1B2;}
</style>
<path class="st0" d="M119.3,335.8c3.9-3.1,9.7-0.2,9.7,4.7V545c0,26.5-21.5,48-48,48h-416c-26.5,0-48-21.5-48-48V340.6
	c0-5,5.7-7.8,9.7-4.7c22.4,17.4,52.1,39.5,154.1,113.6c21.1,15.4,56.7,47.8,92.2,47.6c35.7,0.3,72-32.8,92.3-47.6
	C67.3,375.4,96.9,353.2,119.3,335.8z M-127,465c23.2,0.4,56.6-29.2,73.4-41.4C79.1,327.3,89.2,318.9,119.8,294.9
	c5.8-4.5,9.2-11.5,9.2-18.9v-19c0-26.5-21.5-48-48-48h-416c-26.5,0-48,21.5-48,48v19c0,7.4,3.4,14.3,9.2,18.9
	c30.6,23.9,40.7,32.4,173.4,128.7C-183.6,435.8-150.2,465.4-127,465L-127,465z"/>
</svg>
