<?xml version="1.0" encoding="utf-8"?>
<!-- Generator: Adobe Illustrator 19.0.0, SVG Export Plug-In . SVG Version: 6.00 Build 0)  -->
<svg version="1.1" id="Warstwa_1" xmlns="http://www.w3.org/2000/svg" xmlns:xlink="http://www.w3.org/1999/xlink" x="0px" y="0px"
	 viewBox="-415 145 448 512" style="enable-background:new -415 145 448 512;" xml:space="preserve">
<style type="text/css">
	.st0{fill:#00D1B2;}
</style>
<path class="st0" d="M-15,177h-352c-26.5,0-48,21.5-48,48v352c0,26.5,21.5,48,48,48h137.2V472.7h-63V401h63v-54.6
	c0-62.1,37-96.5,93.7-96.5c27.1,0,55.5,4.8,55.5,4.8v61h-31.3c-30.8,0-40.4,19.1-40.4,38.7V401h68.8l-11,71.7h-57.8V625H-15
	c26.5,0,48-21.5,48-48V225C33,198.5,11.5,177-15,177z"/>
</svg>
