<?xml version="1.0" encoding="utf-8"?>
<!-- Generator: Adobe Illustrator 19.0.0, SVG Export Plug-In . SVG Version: 6.00 Build 0)  -->
<svg version="1.1" id="Warstwa_1" xmlns="http://www.w3.org/2000/svg" xmlns:xlink="http://www.w3.org/1999/xlink" x="0px" y="0px"
	 viewBox="0 0 500 500" style="enable-background:new 0 0 500 500;" xml:space="preserve">
<style type="text/css">
	.st0{fill:#404040;}
	.st1{fill:#A8FFCD;}
	.st2{fill:#FFFFFF;stroke:#000000;stroke-width:1.0548;stroke-miterlimit:10;}
	.st3{fill:#FFFFFF;}
	.st4{fill:#E1F1EE;}
	.st5{fill:none;stroke:#FFFFFF;stroke-width:2.1757;stroke-miterlimit:10;}
	.st6{fill:#60B7FF;}
	.st7{fill:#8AC9FE;}
	.st8{fill:#FD8087;}
	.st9{fill:#FFE177;}
	.st10{fill:#21674E;}
	.st11{fill:#23C495;}
</style>
<g id="Warstwa_1_1_">
	<circle id="XMLID_438_" class="st0" cx="251.4" cy="251" r="238.2"/>
	<path id="XMLID_437_" class="st1" d="M264,488.2"/>
	<path id="XMLID_436_" class="st2" d="M83.1,251.1"/>
	<path id="XMLID_435_" class="st2" d="M133.7,165.7"/>
	<g id="XMLID_317_">
		<g id="XMLID_429_">
			<rect id="XMLID_433_" x="157.8" y="273.1" class="st3" width="161" height="126.2"/>
			<polyline id="XMLID_432_" class="st4" points="159.4,272.4 229.6,343.2 319.1,272.4 			"/>
			<rect id="XMLID_431_" x="249.2" y="384.1" class="st4" width="58.7" height="8.7"/>
			<rect id="XMLID_430_" x="162.2" y="386.2" class="st4" width="6.5" height="8.7"/>
		</g>
		<g id="XMLID_338_">
			<line id="XMLID_401_" class="st5" x1="317.7" y1="255.7" x2="317.7" y2="216.6"/>
			<line id="XMLID_393_" class="st5" x1="282.9" y1="260" x2="282.9" y2="249.2"/>
			<line id="XMLID_392_" class="st5" x1="176.3" y1="216.6" x2="176.3" y2="255.7"/>
			<line id="XMLID_387_" class="st5" x1="154.6" y1="236.1" x2="154.6" y2="264.4"/>
			<line id="XMLID_361_" class="st5" x1="326.4" y1="336.2" x2="326.4" y2="307.9"/>
			<line id="XMLID_349_" class="st5" x1="150.2" y1="390.6" x2="150.2" y2="375.3"/>
		</g>
	</g>
	<g id="XMLID_8_">
		<path id="XMLID_7_" class="st6" d="M214,155.5c23.7,31.6,66.8,35.6,97.2,8.8c25-22.1,33.7-58.3,23.7-88.8L214,155.5z"/>
		<path id="XMLID_2_" class="st7" d="M217.9,159.1c23.4,12.7,52.9,9.8,75.5-10.1c16.9-14.9,26.4-36.4,27.7-58.1L217.9,159.1z"/>
		<g id="XMLID_5_">
			<path id="XMLID_6_" d="M290.1,272.4c-5.5-2.3-15.9-7-15.9-7l-4.6-20.5c-2.2-1-4.5-1.9-6.9-2.1l5.2,23.1l-15.6,7.4
				c-1.5,0.7-2.2,2.6-1.5,4.1c1.3,1.6,2.7,2.1,4.1,1.5l11.8-5.6l-1.5,5.6c-0.4,1.7,0.6,3.3,2.2,3.7c1.7,0.4,3.3-0.6,3.7-2.2l2.3-8.1
				l9.7,0.1"/>
			<path id="XMLID_1_" d="M292.1,272.4l3.9,5.8l-11,5.2c-1.5,0.7-2.2,2.6-1.5,4.1c1.3,1.6,2.7,2.1,4.1,1.5l11.8-5.6l-1.5,5.6
				c-0.4,1.7,0.6,3.3,2.2,3.7c1.7,0.4,3.3-0.6,3.7-2.2l2.3-8.6l0.6-6.5l-5.1-22.1c0.2,0-2.8-13.6-2.6-13.6c-2.3-0.6-4.7-0.4-6.6,0.7
				l7.5,32.8c-0.1-0.1-1.1,0.2-3.6-0.8H292.1z"/>
			<g id="XMLID_3_">
				<path id="XMLID_15_" class="st8" d="M177.1,164L177.1,164l-30.5-4.4l22.1-14.9l0,0c0.2,1.4,0.4,2.8,0.7,4.2
					C170.8,154.8,173.5,159.9,177.1,164z"/>
				<path id="XMLID_14_" class="st8" d="M373.7,270.3c-12.5,12.9-33.2,13.3-46.2,0.8l-30.5-29.4l38-8.7L373.7,270.3z"/>
				<path id="XMLID_13_" class="st9" d="M238.1,138.7c-0.1-1.7-0.4-3.5-0.8-5.2c-4.3-18.7-23-30.4-41.7-26.1s-30.4,23-26.1,41.7
					c2.6,11.4,10.5,20.2,20.5,24.3l2.9,12.6c9.6,41.8,51.2,67.9,93,58.3l49.2-11.3L238.1,138.7z"/>
				<path id="XMLID_12_" class="st6" d="M236.4,139c3.5,39.3,37.9,65.5,77.9,58.7c32.9-5.6,59.4-31.7,67-62.9L236.4,139z"/>
				<path id="XMLID_11_" class="st7" d="M246,138.7c13.2,23.2,39.8,36.3,69.4,31.3c22.3-3.8,41.6-17,54.2-34.8L246,138.7z"/>
				<g id="XMLID_4_">
					<path id="XMLID_10_" d="M192.6,145.5c-1.6,0.4-3.3-0.7-3.7-2.3c-0.4-1.6,0.7-3.3,2.3-3.7c1.6-0.4,3.3,0.7,3.7,2.3
						C195.3,143.5,194.3,145.2,192.6,145.5z"/>
				</g>
			</g>
		</g>
	</g>
	<path id="XMLID_634_" class="st10" d="M303.5,459.6c0,0-2.1-54.4,63.8-55.6C367.3,404.1,365.7,458.6,303.5,459.6z"/>
	<path id="XMLID_631_" class="st11" d="M193.8,481c0,0-68.5,39-180.6-84.7C13.2,396.3,132.8,345.1,193.8,481z"/>
	<path id="XMLID_627_" class="st11" d="M61.4,219.5c0,0,24.6-6.6,43.3,46.9C104.7,266.4,63.7,272.1,61.4,219.5z"/>
</g>
</svg>
