<?xml version="1.0" encoding="utf-8"?>
<!-- Generator: Adobe Illustrator 24.1.2, SVG Export Plug-In . SVG Version: 6.00 Build 0)  -->
<svg version="1.1" id="Object" xmlns="http://www.w3.org/2000/svg" xmlns:xlink="http://www.w3.org/1999/xlink" x="0px" y="0px"
	 viewBox="0 0 254 182" style="enable-background:new 0 0 254 182;" xml:space="preserve">
<style type="text/css">
	.st0{fill:#FCC812;}
</style>
<path class="st0" d="M108.71,95.04c-0.34,0.33-0.44,0.62-0.42,0.87c-0.47-0.07-0.79,0.3-0.94,0.58c-0.04,0.06-0.04,0.08-0.03,0.12
	l0.27,2.92l2.24,23.85c0,0,0.76,4.9,0.78,4.69c0.05,0.26,0.1,0.5,0.16,0.72c-0.05,0.04-0.1,0.09-0.15,0.13
	c-0.02,0.03-0.05,0.12-0.06,0.14c-0.14,0.61,0.02,0.95,0.27,1.14c0.04,0.37,0.35,0.63,0.59,0.76c0.06,0.04,0.08,0.04,0.12,0.03
	l2.91-0.27l45.11-4.11c0,0,4.89-0.74,4.68-0.76c1.95-0.39,3.19-0.89-0.03-0.98c-1.9-0.1-4.59-0.04-4.59-0.04l-45.34,4.12l-1.19,0.11
	c0.28-0.28,0.57-0.57,0.83-0.86c0.96-1.05,1.82-2.14,2.7-3.17c0.9-1.01,1.77-2.11,2.66-3.16l5.29-6.38l0.9-1.08
	c0,0,2.94-4,2.77-3.87c0.28-0.41,0.51-0.8,0.68-1.12l0.44,0.26l1.7,0.95c0,0,1.12,0.53,2.23,1.05c1.11,0.5,2.2,0.98,2.12,0.91
	c0.59,0.22,1.12,0.4,1.49,0.48c0.07,0.24,0.21,0.38,0.37,0.46c0.27,0.13,0.57,0.12,0.79,0.08c0.07-0.01,0.08-0.02,0.1-0.04
	c0.63-0.62,1.39-1.2,2.16-1.77l2.57-1.86c0.43-0.32,0.87-0.68,1.27-1.01l0.37-0.3c0.67,0.47,1.35,0.95,2,1.43l13.01,10.3l1.1,0.87
	c0,0,4.06,2.84,3.92,2.68c1.53,0.97,2.69,1.45,1.18-0.18c0.1-0.23,0.17-0.8,0.19-1.85c0.09-1.9,0.02-4.6,0.02-4.6l-2.13-22.69
	l-0.25-2.64c0.18-0.3,0.19-0.47-0.09-0.38c-0.01-0.01-0.02-0.02-0.02-0.03c-0.18-0.18-0.34-0.29-0.5-0.35
	c0.67-0.27,0.48-0.5-1.63-0.56c-1.9-0.1-4.59-0.03-4.59-0.03l-45,4.09l-2.91,0.26C108.8,94.96,108.73,95.02,108.71,95.04z
	 M164.18,117.21c0,0,0.76,4.9,0.78,4.69c0.11,0.53,0.22,1,0.33,1.35c-0.02-0.02-0.04-0.04-0.07-0.07c-1.31-1.38-3.3-3.19-3.3-3.19
	l-1.28-1.01l-13.06-10.34c-0.54-0.4-1.08-0.79-1.62-1.17l4.35-3.51l4.91-4.01l2.44-2.03l1.49-1.26c0,0,0.89-0.87,1.76-1.72
	c0.39-0.39,0.77-0.77,1.06-1.07l0.08,0.88L164.18,117.21z M111.91,96.45l44.77-4.08c0,0,4.89-0.74,4.68-0.76
	c0.22-0.04,0.43-0.09,0.62-0.13c-0.06,0.08-0.12,0.16-0.16,0.24c-0.04,0.06-0.04,0.08-0.03,0.12l0.07,0.72
	c-1.57,1.06-3.66,2.62-3.66,2.62l-1.37,1.16l-2.47,2.06l-4.98,4.07l-5.01,4.04c-0.84,0.67-1.68,1.39-2.49,2
	c-0.84,0.63-1.72,1.24-2.6,1.88c-0.8,0.59-1.6,1.19-2.36,1.95c-0.02,0.02-0.03,0.07-0.04,0.11c-0.24-0.18-0.54-0.41-0.96-0.68
	c-1.55-1.1-3.8-2.54-3.8-2.54l-1.56-0.88l-2.73-1.57l-5.45-3.2c-3.63-2.14-7.28-4.29-11.03-6.27c-0.43-0.23-0.86-0.45-1.3-0.67
	L111.91,96.45z M110.52,98.85c3.64,1.93,7.21,4.02,10.78,6.13l5.37,3.15l1.71,0.98c-0.23,0.19-0.5,0.43-0.84,0.76
	c-1.41,1.28-3.26,3.23-3.26,3.23l-1.04,1.25l-5.28,6.36c-0.89,1.06-1.73,2.13-2.67,3.17c-0.91,1.07-1.76,2.14-2.66,3.13
	c-0.34,0.37-0.69,0.73-1.05,1.07c0-0.01,0-0.02,0-0.04c0.09-1.9,0.02-4.6,0.02-4.6l-2.26-24.08l-0.11-1.18
	C109.66,98.41,110.1,98.62,110.52,98.85z"/>
</svg>
