<?xml version="1.0" encoding="utf-8"?>
<!-- Generator: Adobe Illustrator 19.0.0, SVG Export Plug-In . SVG Version: 6.00 Build 0)  -->
<svg version="1.1" id="Warstwa_1" xmlns="http://www.w3.org/2000/svg" xmlns:xlink="http://www.w3.org/1999/xlink" x="0px" y="0px"
	 viewBox="-383 145 512 512" style="enable-background:new -383 145 512 512;" xml:space="preserve">
<style type="text/css">
	.st0{fill:#00D1B2;}
</style>
<path class="st0" d="M-19.9,156.2h-214.2c-25.3,0-45.9,20.6-45.9,45.9v397.7c0,25.3,20.6,45.9,45.9,45.9h214.2
	c25.3,0,45.9-20.6,45.9-45.9V202.1C26,176.8,5.4,156.2-19.9,156.2z M-127,615.2c-16.9,0-30.6-13.7-30.6-30.6S-143.9,554-127,554
	s30.6,13.7,30.6,30.6S-110.1,615.2-127,615.2z M-19.9,511.9c0,6.3-5.2,11.5-11.5,11.5h-191.2c-6.3,0-11.5-5.2-11.5-11.5V213.6
	c0-6.3,5.2-11.5,11.5-11.5h191.2c6.3,0,11.5,5.2,11.5,11.5V511.9z"/>
</svg>
