<?xml version="1.0" encoding="utf-8"?>
<!-- Generator: Adobe Illustrator 19.0.0, SVG Export Plug-In . SVG Version: 6.00 Build 0)  -->
<svg version="1.1" id="Warstwa_1" xmlns="http://www.w3.org/2000/svg" xmlns:xlink="http://www.w3.org/1999/xlink" x="0px" y="0px"
	 viewBox="-351 145 576 512" style="enable-background:new -351 145 576 512;" xml:space="preserve">
<style type="text/css">
	.st0{fill:#00D1B2;}
</style>
<path class="st0" d="M213,369c6.6,0,12-5.4,12-12v-72c0-6.6-5.4-12-12-12h-72c-6.6,0-12,5.4-12,12v12H41v-24h12c6.6,0,12-5.4,12-12
	v-72c0-6.6-5.4-12-12-12h-72c-6.6,0-12,5.4-12,12v12h-224v-12c0-6.6-5.4-12-12-12h-72c-6.6,0-12,5.4-12,12v72c0,6.6,5.4,12,12,12h12
	v160h-12c-6.6,0-12,5.4-12,12v72c0,6.6,5.4,12,12,12h72c6.6,0,12-5.4,12-12v-12h88v24h-12c-6.6,0-12,5.4-12,12v72
	c0,6.6,5.4,12,12,12h72c6.6,0,12-5.4,12-12v-12h224v12c0,6.6,5.4,12,12,12h72c6.6,0,12-5.4,12-12v-72c0-6.6-5.4-12-12-12h-12V369
	H213z M1,209h32v32H1V209z M1,465h32v32H1V465z M-287,497h-32v-32h32V497z M-287,241h-32v-32h32V241z M-255,457v-12
	c0-6.6-5.4-12-12-12h-12V273h12c6.6,0,12-5.4,12-12v-12h224v12c0,6.6,5.4,12,12,12h12v160h-12c-6.6,0-12,5.4-12,12v12H-255z
	 M-127,593h-32v-32h32V593z M153,529h-12c-6.6,0-12,5.4-12,12v12H-95v-12c0-6.6-5.4-12-12-12h-12v-24h88v12c0,6.6,5.4,12,12,12h72
	c6.6,0,12-5.4,12-12v-72c0-6.6-5.4-12-12-12H41v-88h88v12c0,6.6,5.4,12,12,12h12V529z M193,593h-32v-32h32V593z M193,337h-32v-32h32
	V337z"/>
</svg>
