<?xml version="1.0" encoding="utf-8"?>
<!-- Generator: Adobe Illustrator 19.0.0, SVG Export Plug-In . SVG Version: 6.00 Build 0)  -->
<svg version="1.1" id="Warstwa_1" xmlns="http://www.w3.org/2000/svg" xmlns:xlink="http://www.w3.org/1999/xlink" x="0px" y="0px"
	 viewBox="-319 145 640 512" style="enable-background:new -319 145 640 512;" xml:space="preserve">
<style type="text/css">
	.st0{fill:#00D1B2;}
</style>
<path class="st0" d="M289,209h-576c-17.7,0-32,14.3-32,32v320c0,17.7,14.3,32,32,32h160.2c25.2,0,48-14.8,58.4-37.7l27.7-61.6
	c7.9-17.5,24-28.6,41.7-28.6s33.8,11.1,41.7,28.6l27.7,61.6c10.3,23,33.2,37.7,58.4,37.7H289c17.7,0,32-14.3,32-32V241
	C321,223.3,306.7,209,289,209z M-159,449c-35.4,0-64-28.6-64-64s28.6-64,64-64s64,28.6,64,64S-123.6,449-159,449z M161,449
	c-35.4,0-64-28.6-64-64s28.6-64,64-64s64,28.6,64,64S196.3,449,161,449z"/>
</svg>
