<?xml version="1.0" encoding="utf-8"?>
<!-- Generator: Adobe Illustrator 24.1.2, SVG Export Plug-In . SVG Version: 6.00 Build 0)  -->
<svg version="1.1" id="Object" xmlns="http://www.w3.org/2000/svg" xmlns:xlink="http://www.w3.org/1999/xlink" x="0px" y="0px"
	 viewBox="0 0 254 182" style="enable-background:new 0 0 254 182;" xml:space="preserve">
<style type="text/css">
	.st0{fill:#FCC812;}
</style>
<g>
	<path class="st0" d="M103.77,83.52c-0.61,0.85-1.24,1.69-1.74,2.61c-0.53,0.9-1.08,1.78-1.52,2.78c-0.9,1.96-1.46,4.04-1.76,6.14
		c-0.59,4.21-0.15,8.48,1.04,12.5c1.2,4.01,3.18,7.82,5.97,11.02c2.77,3.18,6.47,5.71,10.67,6.76c0.52,0.15,1.05,0.25,1.58,0.33
		c0.27,0.04,0.53,0.1,0.8,0.13l0.8,0.07l0.8,0.07l0.8,0l0.1,0c0.01,0,0.01,0,0.01,0l1.4,2.53l1.5,2.64
		c0.74,1.26,1.45,2.49,2.35,3.76c0.04,0.05,0.19,0.11,0.23,0.12c0.09,0.03,0.19,0.05,0.28,0.07c-0.04,0.02-0.08,0.04-0.12,0.07
		c-0.81,0.65-1.37,1.66-1.47,2.71c-0.03,0.26-0.03,0.53-0.01,0.79c0.02,0.25,0.07,0.57,0.16,0.78c0.08,0.24,0.18,0.48,0.27,0.71
		c0.14,0.23,0.29,0.46,0.44,0.68c0.18,0.24,0.44,0.44,0.67,0.65c0.26,0.17,0.54,0.32,0.81,0.44c0.06,0.02,0.12,0.03,0.18,0.05
		c-0.05,0.06-0.08,0.11-0.09,0.19c-0.2,0.57-0.2,1.14,0.01,1.65c0.19,0.64,0.45,1.29,0.84,1.92c0.11,0.2,0.29,0.38,0.44,0.56
		c0.16,0.18,0.3,0.38,0.51,0.52c0.19,0.15,0.39,0.3,0.59,0.44c0.21,0.13,0.43,0.22,0.65,0.32c0.38,0.2,0.77,0.25,1.17,0.35
		c0.38,0.07,0.76,0.08,1.13,0.11c0.36-0.01,0.72-0.01,1.07-0.05c0.24-0.03,0.48-0.06,0.72-0.1c-0.01,0.04-0.03,0.07-0.04,0.11
		c-0.04,0.12-0.03,0.16-0.01,0.24c0.24,0.99,0.88,1.88,1.62,2.45c0.75,0.59,1.58,0.93,2.39,1.16c1.85,0.49,3.68,0.39,5.44,0.01
		c0.74-0.18,1.47-0.4,2.18-0.72c0,0,0.46-0.22,1.11-0.64c0.65-0.41,1.46-1.07,2.1-1.88c0.65-0.81,1.08-1.77,1.27-2.49
		c0.19-0.72,0.18-1.18,0.16-1.1c0.09-1.3-0.28-2.29-0.58-2.76c0.27-0.21,0.54-0.44,0.8-0.69c0.73-0.68,1.35-1.53,1.64-2.26
		c0.31-0.72,0.32-1.24,0.29-1.15c0.11-0.91-0.14-1.71-0.43-2.21c-0.24-0.44-0.51-0.68-0.67-0.78c0.16-0.31,0.21-0.5,0.18-0.45
		c0.34-0.84,0.27-1.76,0.02-2.32c-0.24-0.57-0.58-0.83-0.73-0.9c-0.17-0.05-0.22,0.13-0.16,0.56c0.02,0.43,0.14,1.14-0.39,1.96
		c-0.64,0.96-1.99,1.79-3.12,2.34c-1.12,0.56-2.01,0.9-2.01,0.9c-0.69,0.34-1.39,0.65-2.11,0.95c-1.95,0.81-3.97,1.5-6.03,2.18
		c-0.52,0.17-1.03,0.34-1.57,0.54l-0.76,0.29l-0.74,0.26c-0.99,0.34-1.99,0.64-2.97,0.85c-0.32,0.07-0.64,0.12-0.94,0.16
		c-0.15,0.02-0.29,0.03-0.43,0.03l-0.01,0l0,0c-0.01,0-0.08-0.02-0.1-0.03c-0.06-0.03-0.12-0.07-0.18-0.11
		c-0.04-0.07-0.07-0.15-0.1-0.22c-0.01-0.02-0.02-0.04-0.04-0.06c0.73-0.08,1.39-0.26,2.01-0.45c0.82-0.26,1.58-0.58,2.32-0.89
		c0.75-0.33,1.39-0.61,2.15-0.91c2.93-1.22,5.82-2.51,8.67-3.96c0.62-0.32,1.24-0.64,1.85-0.98c0,0,1.58-0.97,3.05-2.11
		c0.74-0.57,1.44-1.2,1.91-1.73c0.48-0.53,0.72-0.98,0.65-0.9c0.11-0.19,0.21-0.39,0.3-0.63c0.09-0.24,0.14-0.51,0.13-0.75
		c-0.01-0.49-0.23-0.89-0.5-1.14c-0.59-0.5-1-0.46-1.17-0.42c-0.17,0.06-0.09,0.23,0.19,0.55c0.13,0.17,0.28,0.36,0.32,0.63
		c0.02,0.14,0,0.29-0.07,0.42c-0.06,0.14-0.16,0.26-0.33,0.45c-0.82,0.84-2.29,1.63-3.42,2.22c-1.15,0.59-2.03,0.99-2.03,0.99
		c-0.68,0.38-1.37,0.75-2.07,1.11c-2.75,1.4-5.61,2.68-8.48,3.87c-0.7,0.28-1.5,0.63-2.19,0.93c-0.71,0.3-1.4,0.59-2.08,0.8
		c-0.68,0.22-1.36,0.37-1.92,0.37c-0.14,0-0.26-0.02-0.39-0.03c-0.12-0.02-0.2-0.06-0.31-0.08c-0.07-0.05-0.15-0.08-0.22-0.12
		c-0.05-0.07-0.12-0.1-0.17-0.17c-0.04-0.08-0.09-0.15-0.15-0.22c-0.03-0.1-0.06-0.2-0.11-0.29c-0.07-0.17-0.07-0.36-0.06-0.55
		c0.04-0.38,0.22-0.72,0.53-0.97c0.02-0.03,0.02-0.13,0.03-0.15c0.03-0.63,0.08-1.13-0.12-1.47c0.32-0.1,0.68-0.21,1.12-0.35
		c1.32-0.38,2.91-0.81,4.2-1.14c1.28-0.33,2.23-0.57,2.23-0.57l3.49-1.18c0.96-0.34,1.92-0.69,2.88-1.07
		c0.83-0.32,1.83-0.63,2.79-0.97c0.97-0.34,1.94-0.7,2.92-1.15c0.49-0.23,0.98-0.48,1.48-0.8c0.25-0.17,0.5-0.33,0.76-0.57
		c0.14-0.13,0.37-0.32,0.48-0.53c0.12-0.21,0.31-0.39,0.37-0.62c0.15-0.47,0.09-0.96-0.03-1.46c-0.09-0.34-0.19-0.6-0.3-0.87
		c-0.21-0.52-0.44-1-0.68-1.47c-0.47-0.93-0.97-1.82-1.45-2.69c-0.24-0.44-0.48-0.87-0.69-1.29c-0.11-0.21-0.21-0.42-0.28-0.6
		l-0.02-0.04v0l0.03-0.09l0.12-0.3c0.08-0.19,0.17-0.37,0.27-0.55c0.19-0.34,0.44-0.68,0.75-1.06c5.34-6.64,7.03-15.81,4.88-23.96
		c-1.06-4.08-3.05-7.94-5.85-11.11c-2.79-3.18-6.39-5.64-10.36-7.1c-0.49-0.2-0.99-0.34-1.5-0.49l-1.5-0.44l-1.53-0.33
		c-0.51-0.11-1.02-0.23-1.54-0.29l-1.55-0.22c-0.52-0.08-1.04-0.08-1.56-0.12c-0.52-0.02-1.04-0.09-1.57-0.07l-1.57,0.03
		c-4.19,0.13-8.36,1.29-12.09,3.26C109.43,77.22,106.26,80.17,103.77,83.52z M137.53,147.56c-0.02-0.03-0.11-0.08-0.13-0.1
		c-0.04-0.02-0.07-0.04-0.1-0.06c0.06-0.01,0.14-0.02,0.22-0.04c0.02,0.11,0.05,0.25,0.08,0.41
		C137.58,147.71,137.55,147.64,137.53,147.56z M150.12,143.37c-0.01,0.17-0.03,0.35-0.06,0.55l-0.02-0.01l-0.41-0.17l-0.26-0.11
		l-0.21-0.07c-0.08-0.02-0.17-0.05-0.25-0.08c0.14-0.08,0.29-0.18,0.47-0.29c0.24-0.15,0.52-0.34,0.8-0.54
		C150.16,142.85,150.15,143.08,150.12,143.37z M132.48,144.88c1.15-0.24,2.22-0.57,3.28-0.94l0.79-0.29l0.75-0.29
		c0.47-0.17,0.99-0.35,1.5-0.52c2.05-0.68,4.14-1.39,6.2-2.25c0.65-0.27,1.3-0.56,1.94-0.86c0,0,0.42-0.23,1.02-0.59
		c0.61-0.36,1.41-0.88,2.16-1.48c0.75-0.6,1.45-1.31,1.87-1.93c0.04-0.05,0.07-0.11,0.11-0.16c0,0.04,0,0.06,0.01,0.1
		c0.04,0.43,0.24,1.18-0.05,2.11c-0.36,1.09-1.55,2.02-2.61,2.62c-0.53,0.3-1.02,0.53-1.37,0.69c-0.36,0.15-0.57,0.24-0.57,0.24
		c-0.67,0.34-1.37,0.64-2.08,0.92c-1.11,0.43-2.26,0.81-3.42,1.14c-1.14,0.31-2.43,0.66-3.59,1.01c-1.18,0.34-2.35,0.67-3.47,0.86
		c-1.11,0.19-2.22,0.23-2.95-0.11c-0.1-0.03-0.19-0.08-0.28-0.13C131.97,144.97,132.23,144.94,132.48,144.88z M121.33,125.91
		L121.33,125.91L121.33,125.91L121.33,125.91z M138.57,129.84l-1.25,0.43l-0.59,0.2l-0.76,0.26c0.02-0.09,0.04-0.18,0.05-0.26
		c0.02-0.1,0.01-0.12-0.01-0.18c-0.61-1.28-1.19-2.58-1.78-3.89c-1.12-2.48-2.28-4.99-3.72-7.41c-1.44-2.4-3.19-4.77-5.67-6.5
		l-0.94-0.61l-0.91-0.51l-1.79-0.97c-1.16-0.64-2.3-1.29-3.18-2.05c-0.42-0.37-0.79-0.78-0.93-1.12c-0.08-0.17-0.1-0.31-0.1-0.44
		c-0.01-0.13,0.04-0.28,0.11-0.45c0.32-0.7,1.41-1.62,2.36-2.14c0.33-0.18,0.67-0.32,1.01-0.44c-0.08,0.37-0.14,0.74-0.16,1.09
		c-0.06,0.4-0.03,0.78-0.04,1.17l0,0.29l0.03,0.35c0.02,0.23,0.07,0.48,0.15,0.74c0.14,0.5,0.44,1.07,0.96,1.49
		c0.51,0.42,1.18,0.62,1.75,0.62c1.15-0.01,2.05-0.49,2.77-1.17c0.71-0.68,1.22-1.72,1.17-2.83c-0.03-1.11-0.62-2.02-1.11-2.63
		c-0.26-0.32-0.58-0.63-0.92-0.89c0.36-0.09,0.75-0.13,1.18-0.11c0.52,0.03,1.06,0.14,1.59,0.31c-0.06,0.68-0.04,1.37,0.12,2.1
		c0.05,0.23,0.12,0.44,0.21,0.69c0.13,0.32,0.31,0.61,0.51,0.88c0.43,0.51,1.04,0.86,1.7,0.85c0.32-0.05,0.64-0.16,0.96-0.24
		c0.16-0.03,0.31-0.12,0.46-0.2c0.14-0.08,0.25-0.15,0.38-0.23c0.53-0.41,0.97-0.99,1.05-1.67c0.09-0.67-0.16-1.38-0.47-1.87
		c-0.29-0.42-0.6-0.76-0.93-1.04c-0.32-0.27-0.65-0.51-0.99-0.72c0.11-0.23,0.24-0.44,0.39-0.62c0.56-0.69,1.37-0.9,2.13-0.57
		c0.43,0.18,0.85,0.53,1.23,0.97c-0.04,0.11-0.1,0.21-0.14,0.32c-0.14,0.41-0.26,0.82-0.3,1.34c-0.02,0.12-0.01,0.27-0.01,0.41
		c0,0.13,0.02,0.3,0.06,0.46c0.02,0.15,0.09,0.35,0.18,0.53c0.07,0.18,0.23,0.39,0.38,0.56c0.16,0.17,0.38,0.31,0.59,0.42
		c0.2,0.08,0.43,0.15,0.62,0.17c0.17,0.01,0.36,0.02,0.53,0.02c0.14-0.02,0.28-0.04,0.42-0.07l0.1-0.02
		c0.06-0.01,0.19-0.06,0.28-0.1c0.2-0.08,0.36-0.2,0.51-0.35c0.28-0.29,0.38-0.59,0.44-0.8c0.1-0.44,0.07-0.74,0.05-1
		c-0.12-0.83-0.39-1.46-0.7-2.05c0.12-0.16,0.23-0.33,0.36-0.47c0.35-0.4,0.76-0.71,1.1-0.83c0.17-0.06,0.31-0.09,0.43-0.07
		c0.12,0,0.24,0.06,0.39,0.14c0.29,0.18,0.63,0.58,0.91,1.05c0.24,0.41,0.35,0.83,0.36,1.31c0.02,0.96-0.43,2.11-1.03,3.19
		c-0.61,1.1-1.37,2.17-2.15,3.27c-0.78,1.12-1.62,2.18-2.34,3.6c-0.09,0.17-0.17,0.37-0.25,0.58c-0.07,0.21-0.12,0.44-0.17,0.66
		c-0.13,0.47-0.11,0.85-0.14,1.27c-0.01,0.8,0.08,1.55,0.2,2.27c0.05,0.37,0.14,0.71,0.21,1.06c0.07,0.35,0.16,0.7,0.25,1.04
		l0.22,0.82l0.05,0.15l0.18,0.61c0.12,0.41,0.25,0.81,0.39,1.21c0,0,0.69,1.72,1.4,3.36c0.72,1.64,1.39,3.22,1.37,3.07
		c0.29,0.62,0.55,1.18,0.76,1.62C139.6,129.47,139.09,129.65,138.57,129.84z M122.86,105.78c0-0.71,0.08-1.41,0.27-2
		c0.19,0.1,0.37,0.23,0.54,0.38c0.31,0.3,0.7,0.83,0.79,1.12c0.11,0.33,0.08,0.58-0.09,0.88c-0.17,0.29-0.52,0.57-0.85,0.68
		c-0.16,0.05-0.31,0.07-0.39,0.05c-0.08-0.02-0.08-0.03-0.11-0.05c-0.03-0.03-0.09-0.14-0.13-0.32c-0.02-0.08-0.03-0.2-0.04-0.3
		L122.86,105.78z M130.5,103.77c0.03,0.03,0.06,0.07,0.08,0.1l0.05,0.08l-0.07,0.04C130.6,104.08,130.56,103.97,130.5,103.77z
		 M113.4,78.12c3.2-1.98,6.89-3.07,10.63-3.43c3.75-0.38,7.58,0.11,11.2,1.2c3.61,1.05,6.92,2.99,9.6,5.61
		c2.68,2.62,4.7,5.9,5.92,9.46c1.22,3.56,1.64,7.4,1.21,11.14c-0.42,3.74-1.7,7.39-3.7,10.54c-0.26,0.37-0.49,0.8-0.76,1.12
		c-0.3,0.38-0.61,0.75-0.95,1.19c-0.33,0.44-0.67,0.96-0.91,1.5c-0.13,0.27-0.22,0.52-0.33,0.81c-0.16,0.45-0.25,0.95-0.09,1.42
		l0.12,0.35l0.1,0.23l0.18,0.38l0.36,0.7l0.72,1.32c0.48,0.87,0.95,1.72,1.36,2.56c0.21,0.42,0.4,0.84,0.53,1.22
		c0.03,0.09,0.06,0.18,0.08,0.26l0,0c-0.05,0.05-0.11,0.11-0.19,0.16c-0.14,0.11-0.31,0.22-0.49,0.33c-0.36,0.21-0.77,0.41-1.19,0.6
		c-0.85,0.37-1.75,0.7-2.66,1.02c-0.92,0.32-1.85,0.61-2.85,1c-0.1,0.04-0.19,0.07-0.29,0.11c-0.04-0.43-0.12-0.97-0.26-1.65
		c-0.26-1.39-0.69-3.03-1.02-4.32c-0.33-1.28-0.58-2.23-0.58-2.23l-0.38-1.18l-0.18-0.59l-0.09-0.3l-0.04-0.15l-0.22-0.83
		c-0.32-1.27-0.59-2.58-0.55-3.71l0.02-0.41c0.03-0.11,0.05-0.22,0.08-0.33c0.01-0.22,0.15-0.44,0.27-0.71
		c0.27-0.52,0.63-1.07,1.01-1.62c0.76-1.1,1.61-2.21,2.39-3.41c0.78-1.2,1.55-2.48,2.01-4.04c0.22-0.78,0.36-1.64,0.25-2.55
		c-0.09-0.9-0.5-1.84-0.97-2.49c-0.47-0.68-1.11-1.42-2.14-1.83c-0.52-0.18-1.1-0.26-1.64-0.18c-0.53,0.08-1.03,0.26-1.42,0.5
		c-0.64,0.36-1.13,0.81-1.55,1.3c-0.05-0.05-0.1-0.1-0.15-0.15c-0.65-0.56-1.46-1.06-2.44-1.23c-0.99-0.18-2,0.01-2.86,0.5
		c-0.86,0.49-1.49,1.24-1.89,2.01c-0.06,0.1-0.1,0.21-0.15,0.32c-0.32-0.09-0.64-0.18-0.97-0.24c-0.79-0.15-1.61-0.21-2.46-0.1
		c-0.85,0.11-1.74,0.41-2.5,0.97c-0.25,0.18-0.47,0.39-0.68,0.62c-0.24,0-0.47,0.01-0.7,0.03c-0.85,0.09-1.64,0.34-2.37,0.67
		c-0.72,0.33-1.43,0.77-2.02,1.24c-0.61,0.48-1.21,1.03-1.72,1.8c-0.25,0.38-0.47,0.85-0.59,1.36c-0.13,0.52-0.1,1.1,0.02,1.62
		c0.28,1.05,0.89,1.76,1.46,2.33c1.19,1.12,2.45,1.83,3.68,2.53c1.22,0.69,2.5,1.3,3.52,1.98c2.07,1.35,3.68,3.46,5.06,5.72
		c1.38,2.28,2.51,4.75,3.65,7.26c0.59,1.3,1.18,2.62,1.8,3.94c0.04,0.05,0.15,0.13,0.18,0.14c0,0,0.01,0,0.01,0
		c-0.51,0.21-1.09,0.46-1.66,0.71c-1.66,0.72-3.24,1.56-3.08,1.53c-0.18,0.1-0.36,0.21-0.52,0.31c0.07-0.22,0.11-0.44,0.11-0.63
		c0.01-0.09,0-0.1-0.04-0.15c-0.76-1.08-1.5-2.32-2.21-3.54c-0.99-1.71-1.92-3.38-2.9-5.18c-0.24-0.43-0.47-0.88-0.72-1.28l-1.48,0
		c-0.5,0.01-0.93,0.01-1.4-0.04c-0.92-0.06-1.82-0.21-2.71-0.42c-3.57-0.85-6.79-2.95-9.29-5.72c-2.51-2.77-4.37-6.17-5.52-9.78
		c-1.15-3.61-1.62-7.45-1.21-11.18c0.2-1.86,0.63-3.69,1.31-5.41c0.16-0.44,0.36-0.85,0.56-1.26c0.18-0.42,0.43-0.82,0.68-1.23
		c0.5-0.81,0.92-1.67,1.51-2.41C107.44,82.74,110.19,80.06,113.4,78.12z"/>
	<path class="st0" d="M82.05,97.01c0,0,0.74,0.01,1.47,0.01c0.73,0.01,1.45,0.01,1.4-0.03c1.22-0.1,2.08-0.53,0.28-1.41
		c-1.05-0.59-2.62-1.11-2.62-1.11c-3.1-0.49-6.31-0.83-9.55-0.63l-0.23,0.01l-0.18,0.08c-0.09,0.04-0.14,0.06-0.25,0.11l-0.08,0.04
		l-0.04,0.02l-0.08,0.05c-0.06,0.04-0.11,0.07-0.17,0.12c-0.12,0.1-0.24,0.23-0.32,0.38c-0.04,0.07-0.08,0.15-0.1,0.22
		c-0.05,0.12-0.12,0.48-0.03,0.77c0.07,0.3,0.3,0.58,0.4,0.66c0.05,0.04,0.11,0.09,0.17,0.13c0.11,0.07,0.28,0.14,0.36,0.16
		c0.07,0.02,0.14,0.03,0.21,0.04l0.18,0.02l0.18,0.01c0.02-0.01,0.04-0.08,0.05-0.1c0.02-0.21,0.1-0.4,0.18-0.58l0.15,0.27l0.05,0.1
		l-0.3,0.07C76.11,96.26,79.08,96.55,82.05,97.01z M73.05,94.07L73.05,94.07C73.06,94.07,73.06,94.07,73.05,94.07L73.05,94.07z"/>
	<path class="st0" d="M173.71,68.99c-0.1-0.02-0.13-0.01-0.19,0.02c-1.35,0.65-2.65,1.4-3.89,2.22c-0.93,0.64-1.85,1.31-2.72,2.03
		c-0.56,0.44-1.08,0.91-1.61,1.37c0,0-1.32,1.32-2.5,2.68c-1.19,1.35-2.3,2.7-2.18,2.61c-1.79,2.32-2.68,4.07,0.97,1.06
		c1.1-0.86,2.38-1.94,3.4-2.77c1.02-0.84,1.78-1.42,1.78-1.42c0.58-0.53,1.17-1.03,1.77-1.52c0.82-0.67,1.67-1.28,2.54-1.88
		c1.14-0.76,2.34-1.44,3.57-2.04c0.05-0.03,0.12-0.15,0.13-0.18C175.5,69.59,174.43,69.06,173.71,68.99z"/>
	<path class="st0" d="M95.65,74.3c1.06,0.27,1.84,0.05,0.77-1.21c-0.58-0.82-1.55-1.78-1.55-1.78s-0.43-0.29-1.08-0.71
		c-0.65-0.43-1.54-1.01-2.48-1.55c-0.93-0.55-1.92-1.06-2.73-1.38c-0.8-0.33-1.42-0.48-1.46-0.49c-0.03,0-0.09,0.06-0.1,0.08
		c-0.75,0.96-0.6,1.97-0.56,2.37c0.01,0.07,0.01,0.07,0.03,0.07c0.01,0,0.12,0.03,0.31,0.08c0.19,0.07,0.46,0.14,0.79,0.28
		c0.65,0.26,1.51,0.69,2.37,1.19c0.85,0.5,1.7,1.04,2.33,1.46c0.64,0.42,1.06,0.7,1.06,0.7s0.58,0.25,1.16,0.49
		C95.09,74.14,95.68,74.35,95.65,74.3z"/>
	<path class="st0" d="M143.2,63.05c0.86-0.68,1.82-1.76,1.82-1.76s0.29-0.46,0.72-1.15c0.44-0.68,1.04-1.57,1.68-2.4
		c0.64-0.83,1.35-1.57,1.9-2c0.28-0.23,0.51-0.36,0.67-0.46c0.16-0.1,0.25-0.11,0.26-0.12c0.01-0.02,0.01-0.1,0.01-0.12
		c-0.04-0.59-0.12-1.11-0.3-1.5c-0.17-0.39-0.42-0.64-0.62-0.75c-0.06-0.04-0.07-0.04-0.1-0.03c-0.04,0.01-0.76,0.3-1.51,0.92
		c-0.77,0.6-1.6,1.49-2.32,2.4c-0.72,0.91-1.35,1.85-1.81,2.56c-0.45,0.71-0.74,1.18-0.74,1.18s-0.25,0.63-0.49,1.25
		c-0.23,0.62-0.45,1.23-0.4,1.19C141.72,63.34,141.84,64.24,143.2,63.05z"/>
	<path class="st0" d="M93.56,117.66c-0.9,0.53-1.94,1.47-1.94,1.47s-1.27,1.67-2.56,3.36c-0.64,0.84-1.29,1.67-1.79,2.28
		c-0.25,0.3-0.46,0.56-0.6,0.73c-0.07,0.09-0.13,0.15-0.17,0.2c-0.04,0.04-0.06,0.07-0.07,0.07c0,0.02,0.03,0.09,0.04,0.11
		c0.27,0.53,0.59,0.94,0.92,1.21c0.32,0.27,0.65,0.4,0.87,0.44c0.07,0.02,0.08,0.01,0.09-0.01c0.09-0.07,1.46-1.74,2.73-3.4
		c1.27-1.67,2.53-3.33,2.53-3.33s1.18-2.28,1.07-2.23C95.04,117.58,95,116.7,93.56,117.66z"/>
	<path class="st0" d="M162.78,100.21c-1.27,0.1-2.14,0.54-0.27,1.41c1.09,0.58,2.69,1.12,2.69,1.12s10.11,1.69,10.25,1.71
		c0.03-0.01,0.09-0.07,0.1-0.09c0.75-1.01,0.56-2,0.38-2.4c-0.02-0.07-0.03-0.07-0.06-0.07c-0.14-0.02-10.11-1.68-10.11-1.68
		S162.66,100.13,162.78,100.21z"/>
	<path class="st0" d="M114.19,48.85c-0.51-0.44-0.89-0.89-1.32-0.93c-0.21-0.02-0.42,0.05-0.63,0.2c-0.2,0.15-0.38,0.38-0.47,0.53
		c-0.07,0.1-0.07,0.13-0.07,0.21c-0.05,0.92,0.08,1.66,0.19,2.44c0.13,0.75,0.29,1.48,0.47,2.2l0.01,0.06
		c0.17,0.68,0.35,1.36,0.54,2.03c0,0,0.61,1.75,1.26,3.42c0.65,1.67,1.3,3.29,1.28,3.13c0.6,1.34,1.13,2.4,1.44,2.58
		c0.3,0.18,0.41-0.59-0.05-2.93c-0.24-1.38-0.6-3.03-0.88-4.33c-0.29-1.32-0.49-2.25-0.49-2.25c-0.22-0.76-0.42-1.52-0.61-2.27
		l0-0.05c-0.17-0.68-0.31-1.35-0.43-2.02c-0.1-0.65-0.2-1.34-0.16-1.85C114.28,48.97,114.21,48.87,114.19,48.85z"/>
</g>
</svg>
