<?xml version="1.0" encoding="utf-8"?>
<!-- Generator: Adobe Illustrator 19.0.0, SVG Export Plug-In . SVG Version: 6.00 Build 0)  -->
<svg version="1.1" id="Warstwa_1" xmlns="http://www.w3.org/2000/svg" xmlns:xlink="http://www.w3.org/1999/xlink" x="0px" y="0px"
	 viewBox="52 -52.3 135.6 136.3" style="enable-background:new 52 -52.3 135.6 136.3;" xml:space="preserve">
<style type="text/css">
	.st0{fill:#23C495;}
	.st1{fill:#FFFFFF;}
</style>
<path id="XMLID_1_" class="st0" d="M177.7,80.6H61.9c-3.8,0-6.9-3.1-6.9-6.9V-42.1c0-3.8,3.1-6.9,6.9-6.9h115.8
	c3.8,0,6.9,3.1,6.9,6.9V73.8C184.6,77.6,181.5,80.6,177.7,80.6z"/>
<path id="XMLID_4_" class="st1" d="M120.6,72c14.6-0.2,28.4-5.8,38.9-16.1s16.4-24,16.8-38.5c0.3-11-2.6-21.7-8.4-31.2
	c-0.7-1.2-2.1-1.9-3.6-1.9c-1.5,0-2.9,0.9-3.6,2.2s-0.7,2.9,0.2,4.3c5.1,8.2,7.5,17.6,7,27.2c-1,23.6-21.9,44.5-45.5,45.7
	c-13.5,0.7-26.5-4.5-36.1-14S71.6,27,72.1,13.6c1.2-23.6,22.1-44.5,45.7-45.5c9.6-0.3,19,2.1,27.2,7c1.4,0.9,2.9,0.9,4.3,0.2
	c1.4-0.7,2.2-2.1,2.2-3.6c0-1.4-0.7-2.7-1.9-3.6c-9.4-5.8-20-8.7-31.2-8.4C104-39.9,90.3-33.9,80-23.5S63.9,0.8,63.9,15.4
	c-0.2,15.2,5.6,29.4,16.4,40.2C90.9,66.2,105.2,72,120,72C120.2,72,120.4,72,120.6,72"/>
<path id="XMLID_6_" class="st1" d="M120-18.2c-1.9,0-3.4,1-4.1,2.9L94.7,35.5c-0.7,1.5-0.5,2.9,0.3,4.3c0.9,1.4,2.1,2.1,3.8,2.1
	c0.9,0,1.5-0.2,2.4-0.7c0.9-0.5,1.4-1.2,1.7-2.1l6.3-15.6h22.1l6.3,15.6c0.3,0.9,0.9,1.5,1.7,2.1c0.7,0.5,1.5,0.7,2.4,0.7
	c1.7,0,2.9-0.7,3.8-1.9c0.9-1.2,0.9-2.7,0.3-4.3l-21.4-50.8C123.5-17.2,122.1-18.2,120-18.2 M112,16.5l8.2-20.2l8,20.2H112z"/>
</svg>
