<?xml version="1.0" encoding="utf-8"?>
<!-- Generator: Adobe Illustrator 19.0.0, SVG Export Plug-In . SVG Version: 6.00 Build 0)  -->
<svg version="1.1" id="Warstwa_1" xmlns="http://www.w3.org/2000/svg" xmlns:xlink="http://www.w3.org/1999/xlink" x="0px" y="0px"
	 viewBox="-671 285 576 512" style="enable-background:new -671 285 576 512;" xml:space="preserve">
<style type="text/css">
	.st0{fill:#00D1B2;}
</style>
<path class="st0" d="M-143,317h-480c-26.5,0-48,21.5-48,48v352c0,26.5,21.5,48,48,48h480c26.5,0,48-21.5,48-48V365
	C-95,338.5-116.5,317-143,317z M-495,413c35.3,0,64,28.7,64,64s-28.7,64-64,64s-64-28.7-64-64S-530.3,413-495,413z M-383,649.8
	c0,10.6-10,19.2-22.4,19.2h-179.2c-12.4,0-22.4-8.6-22.4-19.2v-19.2c0-31.8,30.1-57.6,67.2-57.6h5c12.3,5.1,25.7,8,39.8,8
	s27.6-2.9,39.8-8h5c37.1,0,67.2,25.8,67.2,57.6V649.8z M-159,597c0,4.4-3.6,8-8,8h-144c-4.4,0-8-3.6-8-8v-16c0-4.4,3.6-8,8-8h144
	c4.4,0,8,3.6,8,8V597z M-159,533c0,4.4-3.6,8-8,8h-144c-4.4,0-8-3.6-8-8v-16c0-4.4,3.6-8,8-8h144c4.4,0,8,3.6,8,8V533z M-159,469
	c0,4.4-3.6,8-8,8h-144c-4.4,0-8-3.6-8-8v-16c0-4.4,3.6-8,8-8h144c4.4,0,8,3.6,8,8V469z"/>
</svg>
