<?xml version="1.0" encoding="utf-8"?>
<!-- Generator: Adobe Illustrator 19.0.0, SVG Export Plug-In . SVG Version: 6.00 Build 0)  -->
<svg version="1.1" id="Warstwa_1" xmlns="http://www.w3.org/2000/svg" xmlns:xlink="http://www.w3.org/1999/xlink" x="0px" y="0px"
	 viewBox="-102 246.4 237 80.6" style="enable-background:new -102 246.4 237 80.6;" xml:space="preserve">
<style type="text/css">
	.st0{fill:#3DB28D;}
	.st1{fill:#FFFFFF;}
	.st2{enable-background:new    ;}
	.st3{fill:#215CA8;}
	.st4{fill:#FFD504;}
</style>
<path class="st0" d="M-62.8,265.6c-1.2,0-2.3,0.8-2.7,1.9l-13.6,32.6c-0.4,0.9-0.4,1.9,0.2,2.8c0.5,0.8,1.4,1.3,2.4,1.3
	c0.5,0,1-0.2,1.5-0.4c0.5-0.3,0.9-0.8,1.1-1.3l4.1-10h14.2l4,10c0.2,0.5,0.6,1,1.1,1.3s1,0.5,1.6,0.5c1,0.1,1.9-0.4,2.4-1.2
	c0.5-0.8,0.6-1.9,0.2-2.8L-60,267.6C-60.4,266.3-61.5,265.5-62.8,265.6 M-68,287.9l5.3-13l5.2,13H-68z"/>
<path class="st1" d="M-62.4,323.4c19.9-0.2,35.9-16.5,35.8-36.4c-0.1-6.6-1.9-13.1-5.4-18.7c-0.5-0.8-1.4-1.3-2.3-1.3
	c-1.5,0-2.7,1.2-2.7,2.7c0,0.5,0.1,1,0.4,1.4c3.2,5.2,4.8,11.3,4.6,17.5c-0.7,15.2-14,28.6-29.2,29.3c-17,0.8-31.4-12.3-32.2-29.2
	c0-1,0-2,0-2.9c0.7-15.2,14.1-28.6,29.3-29.2c6.2-0.3,12.3,1.3,17.5,4.6c1.3,0.8,2.9,0.4,3.7-0.9c0.3-0.4,0.4-0.9,0.4-1.4
	c0-0.9-0.5-1.8-1.3-2.3c-17-10.5-39.2-5.2-49.7,11.7s-5.2,39.2,11.7,49.7c5.7,3.5,12.3,5.4,19,5.4L-62.4,323.4"/>
<path class="st1" d="M7.2,287.1c0.4-0.6,0.5-1.4,0.1-2.1l-9.5-22.8c-0.3-0.9-1.1-1.5-2-1.4c-0.9,0-1.7,0.6-2,1.4l-9.5,22.7
	c-0.3,0.7-0.3,1.5,0.1,2.1s1.1,1,1.8,1c0.4,0,0.8-0.1,1.1-0.3c0.4-0.2,0.7-0.6,0.8-1l2.8-6.9h9.7l2.8,6.9c0.2,0.4,0.4,0.8,0.8,1
	c0.3,0.2,0.8,0.3,1.2,0.3C6.2,288,6.8,287.7,7.2,287.1 M-7.6,276.3l3.4-8.4l3.4,8.4H-7.6z"/>
<path class="st1" d="M15.1,273c1-0.4,2.1-0.6,3.2-0.6c0.3,0,0.6,0,0.9-0.1c0.3-0.1,0.5-0.3,0.7-0.6s0.3-0.6,0.3-1
	c0-0.8-0.5-1.4-1.2-1.7c-1-0.4-2-0.4-3-0.2s-2,0.6-2.8,1.2c0-0.4-0.2-0.8-0.5-1.1c-0.4-0.4-1-0.6-1.5-0.5c-0.6,0-1.1,0.2-1.5,0.6
	c-0.4,0.4-0.6,1-0.6,1.5v15.4c0,0.6,0.2,1.1,0.6,1.6c0.4,0.4,1,0.6,1.5,0.5c0.6,0,1.1-0.2,1.6-0.6c0.4-0.4,0.6-1,0.5-1.5v-11.4
	C13.7,273.8,14.3,273.3,15.1,273"/>
<path class="st1" d="M32.2,283.8h-1.1c-0.6,0-1.2-0.3-1.5-0.8c-0.4-0.6-0.7-1.3-0.6-2v-8.4h2.6c0.5,0,1-0.2,1.4-0.5s0.6-0.8,0.6-1.3
	s-0.2-1-0.6-1.4c-0.4-0.3-0.9-0.5-1.4-0.5H29v-4c0.1-1.1-0.8-2-1.9-2.1c-0.1,0-0.1,0-0.2,0c-0.6,0-1.1,0.2-1.5,0.6
	c-0.4,0.4-0.6,0.9-0.6,1.5v4h-1c-0.5,0-1,0.2-1.4,0.5c-0.4,0.4-0.6,0.9-0.6,1.4s0.2,1,0.6,1.3c0.4,0.3,0.9,0.5,1.4,0.5h1v8.5
	c0,1.2,0.3,2.4,0.8,3.5c0.5,1,1.3,1.9,2.3,2.5s2.1,0.9,3.3,0.9h0.6c0.6,0,1.2-0.2,1.7-0.6s0.7-0.9,0.7-1.5c0-0.5-0.2-1.1-0.5-1.5
	C33.2,284,32.7,283.8,32.2,283.8"/>
<path class="st1" d="M89.6,283.2c0.8-1.5,1.2-3.3,1.2-5c0-1.8-0.4-3.5-1.3-5c-1.7-3-5-4.9-8.4-4.8c-1.7,0-3.4,0.4-4.9,1.3
	c-1.4,0.8-2.6,2.1-3.5,3.5c-0.9,1.5-1.3,3.2-1.3,5v15.4c0,1.2,1,2.1,2.2,2.1c0.5,0,1-0.2,1.4-0.6s0.6-0.9,0.6-1.5v-8.1
	c0.7,0.6,1.4,1.2,2.3,1.6c2.7,1.3,5.9,1.1,8.5-0.4C87.7,285.8,88.8,284.6,89.6,283.2 M86,281.3c-0.5,0.9-1.2,1.6-2,2.1
	c-1.8,1-4,1-5.7,0c-0.8-0.5-1.5-1.2-2-2.1c-0.5-0.9-0.7-2-0.7-3c0-1.1,0.2-2.1,0.7-3.1c0.5-0.9,1.2-1.6,2-2.1c1.8-1.1,4-1.1,5.7-0.1
	c0.8,0.5,1.5,1.3,2,2.1c0.5,0.9,0.8,2,0.7,3.1C86.7,279.2,86.5,280.3,86,281.3"/>
<path class="st1" d="M109.1,284.5c0-0.5-0.3-1-0.8-1.4c-0.4-0.3-0.8-0.5-1.3-0.5s-0.9,0.2-1.3,0.5c-0.5,0.4-1.1,0.6-1.7,0.8
	c-0.6,0.2-1.3,0.4-2,0.4c-1.1,0-2.2-0.3-3.2-0.8c-0.9-0.5-1.7-1.3-2.2-2.2c-0.3-0.5-0.5-1-0.6-1.5h12.4c0.5,0,1-0.2,1.4-0.5
	c0.4-0.4,0.6-0.8,0.6-1.3c0-1.7-0.3-3.4-1-4.9c-0.7-1.4-1.7-2.6-3-3.4c-1.4-0.8-3.1-1.3-4.7-1.2c-1.7,0-3.4,0.4-4.9,1.3
	c-1.4,0.8-2.6,2-3.4,3.5c-0.9,1.6-1.3,3.3-1.3,5.1s0.4,3.5,1.3,5.1c0.9,1.5,2.1,2.7,3.6,3.5c2.6,1.4,5.7,1.6,8.6,0.6
	c1.1-0.3,2.1-0.9,3-1.5C108.9,285.5,109.2,285,109.1,284.5 M96.5,275.1c0.4-0.9,1.1-1.6,1.9-2.2c0.9-0.6,2-0.8,3.1-0.8
	c0.9,0,1.9,0.2,2.7,0.7c0.7,0.5,1.3,1.2,1.7,2c0.2,0.5,0.4,1,0.5,1.5H96.1C96.2,275.9,96.3,275.5,96.5,275.1"/>
<path class="st1" d="M123.8,274.6c0.5,0.9,0.7,2,0.7,3v8.4c0,1.2,1,2.1,2.2,2.1c0.6,0,1.1-0.2,1.5-0.6c0.4-0.4,0.6-1,0.6-1.5v-8.4
	c0.1-1.7-0.3-3.4-1.1-4.9c-0.7-1.3-1.8-2.4-3.1-3.1c-1.3-0.7-2.8-1.1-4.4-1.1c-1.5,0-2.9,0.3-4.2,1l-0.4,0.2
	c-0.1-0.2-0.2-0.4-0.4-0.5c-0.8-0.8-2.2-0.9-3,0c-0.4,0.4-0.7,1-0.6,1.6V286c0,1.2,1,2.1,2.2,2.1c0.5,0,1.1-0.2,1.5-0.6
	c0.4-0.4,0.6-0.9,0.6-1.5v-12c0.4-0.4,0.8-0.8,1.3-1c0.7-0.4,1.6-0.6,2.4-0.5c0.9,0,1.8,0.2,2.6,0.6
	C122.8,273.3,123.4,273.8,123.8,274.6"/>
<path class="st1" d="M66.5,264.2L66.5,264.2c-1.3-1.3-2.8-2.3-4.5-2.9c-3.6-1.4-7.7-1.4-11.3,0c-1.7,0.7-3.2,1.7-4.4,2.9
	c-1.3,1.3-2.2,2.8-2.9,4.5c-1.4,3.7-1.4,7.7,0,11.3c0.6,1.7,1.6,3.2,2.9,4.5c1.3,1.3,2.8,2.3,4.4,2.9c3.6,1.4,7.7,1.4,11.3,0
	c1.7-0.7,3.2-1.7,4.4-2.9c1.3-1.3,2.3-2.8,2.9-4.5c1.4-3.7,1.4-7.7,0-11.3C68.7,267,67.7,265.5,66.5,264.2 M65.1,278.2
	c-0.4,1.2-1.1,2.2-2,3.1s-1.9,1.6-3,2.1c-2.4,1-5.2,1-7.6,0c-1.1-0.5-2.1-1.2-3-2.1s-1.5-2-2-3.1c-0.9-2.5-0.9-5.3,0-7.8
	c0.5-1.2,1.1-2.2,2-3.1c0.9-0.9,1.9-1.5,3-2c2.4-1,5.2-1,7.6,0c1.1,0.5,2.1,1.1,3,2c0.9,0.9,1.6,1.9,2,3.1
	C66,273,66,275.7,65.1,278.2"/>
<g class="st2">
	<path class="st1" d="M-0.9,301l-3.3,9.8h-1.1l-2.9-8.3l-2.9,8.3h-1.1l-3.3-9.8h1.1l2.8,8.4l2.9-8.4h1l2.9,8.5l2.9-8.5H-0.9z"/>
</g>
<g class="st2">
	<path class="st1" d="M5.8,310.5c-0.7-0.2-1.2-0.5-1.5-0.9l0.4-0.8c0.4,0.4,0.8,0.6,1.4,0.9c0.6,0.2,1.2,0.3,1.8,0.3
		c0.9,0,1.5-0.2,2-0.5c0.4-0.3,0.7-0.7,0.7-1.3c0-0.4-0.1-0.7-0.4-0.9c-0.2-0.2-0.5-0.4-0.9-0.5c-0.3-0.1-0.8-0.3-1.4-0.4
		c-0.7-0.2-1.3-0.4-1.8-0.5c-0.4-0.2-0.8-0.4-1.1-0.8s-0.5-0.8-0.5-1.4c0-0.5,0.1-0.9,0.4-1.3c0.3-0.4,0.7-0.7,1.2-1
		c0.5-0.2,1.2-0.4,2-0.4c0.6,0,1.1,0.1,1.6,0.2c0.5,0.2,1,0.4,1.4,0.6l-0.3,0.8c-0.4-0.3-0.8-0.5-1.3-0.6s-0.9-0.2-1.4-0.2
		c-0.9,0-1.5,0.2-1.9,0.5s-0.7,0.8-0.7,1.3c0,0.4,0.1,0.7,0.4,0.9c0.2,0.2,0.5,0.4,0.9,0.5s0.8,0.3,1.4,0.4c0.7,0.2,1.3,0.4,1.7,0.5
		c0.4,0.2,0.8,0.4,1.1,0.8c0.3,0.3,0.5,0.8,0.5,1.4c0,0.5-0.1,0.9-0.4,1.3s-0.7,0.7-1.2,1c-0.5,0.2-1.2,0.4-2,0.4
		C7.1,310.9,6.4,310.7,5.8,310.5z"/>
</g>
<g class="st2">
	<path class="st1" d="M24.5,301.9c0.7,0.6,1.1,1.4,1.1,2.5s-0.4,1.9-1.1,2.5s-1.7,0.9-2.9,0.9H19v3.1h-1v-9.8h3.7
		C22.9,301,23.8,301.3,24.5,301.9z M23.8,306.1c0.5-0.4,0.8-1,0.8-1.8s-0.3-1.4-0.8-1.8s-1.3-0.6-2.2-0.6H19v4.9h2.6
		C22.5,306.8,23.3,306.6,23.8,306.1z"/>
</g>
<g class="st2">
	<path class="st1" d="M32,301h1v9.8h-1V301z"/>
	<path class="st1" d="M47.4,309.9v0.9h-6.9V301h6.7v0.9h-5.7v3.5h5.1v0.9h-5.1v3.6H47.4z"/>
	<path class="st1" d="M60.7,310.8l-2.2-3.1c-0.3,0-0.5,0-0.8,0H55v3.1h-1V301h3.7c1.2,0,2.2,0.3,2.9,0.9c0.7,0.6,1.1,1.4,1.1,2.5
		c0,0.8-0.2,1.4-0.6,1.9s-0.9,0.9-1.7,1.1l2.4,3.4H60.7z M59.9,306.1c0.5-0.4,0.8-1,0.8-1.8s-0.3-1.4-0.8-1.8s-1.3-0.6-2.2-0.6H55
		v4.9h2.6C58.6,306.8,59.3,306.6,59.9,306.1z"/>
	<path class="st1" d="M74.4,308.2H69l-1.2,2.6h-1.1l4.5-9.8h1l4.5,9.8h-1.1L74.4,308.2z M74.1,307.3l-2.3-5.3l-2.3,5.3H74.1z"/>
	<path class="st1" d="M92.7,301v9.8h-1V303l-3.8,6.6h-0.5l-3.8-6.5v7.8h-1v-9.8h0.9l4.2,7.3l4.2-7.3h0.8V301z"/>
	<path class="st1" d="M103.4,307.4v3.4h-1v-3.4l-3.9-6.4h1.1l3.4,5.5l3.4-5.5h1L103.4,307.4z"/>
</g>
<path class="st3" d="M115.9,300.2h12.7c0.9,0,1.6,0.7,1.6,1.6v7.4c0,0.9-0.7,1.6-1.6,1.6h-12.7c-0.9,0-1.6-0.7-1.6-1.6v-7.4
	C114.4,300.9,115.1,300.2,115.9,300.2z"/>
<path class="st4" d="M116,310.8h12.6c0.9,0,1.6-0.7,1.6-1.6v-3.7h-15.9v3.7C114.4,310.1,115.1,310.8,116,310.8L116,310.8z"/>
</svg>
