<?xml version="1.0" encoding="utf-8"?>
<!-- Generator: Adobe Illustrator 19.0.0, SVG Export Plug-In . SVG Version: 6.00 Build 0)  -->
<svg version="1.1" id="Warstwa_1" xmlns="http://www.w3.org/2000/svg" xmlns:xlink="http://www.w3.org/1999/xlink" x="0px" y="0px"
	 viewBox="-447 145 384 512" style="enable-background:new -447 145 384 512;" xml:space="preserve">
<style type="text/css">
	.st0{fill:#00D1B2;}
	.st1{fill:#FFFFFF;}
</style>
<path class="st0" d="M-274.4,642.9C-417.4,435.5-444,414.2-444,338c0-104.3,84.7-189,189-189s189,84.7,189,189
	c0,76.2-26.6,97.5-169.6,304.9C-245,656.3-265,656.3-274.4,642.9L-274.4,642.9z"/>
<g>
	<path class="st1" d="M-183.5,404.6h-31l-16.7-40.7h-48.4l-16.4,40.7h-30.5l60.8-141.3h21.1L-183.5,404.6z M-241.3,340.6l-14.1-33.1
		l-14.1,33.1H-241.3z"/>
</g>
<path class="st1" d="M-137.4,267.2l-22.7,14.6c10.8,17.2,17,37.5,17,59.3c0,61.8-50.2,111.8-111.8,111.8S-366.7,402.6-366.7,341
	s50.2-111.8,111.8-111.8c21.2,0,41.1,5.9,57.9,16.3l14.1-23.1c-21.1-12.8-45.7-20.2-72-20.2c-76.5,0-138.9,62.3-138.9,138.9
	S-331.5,480-255,480s138.9-62.3,138.9-138.9C-116.1,313.8-123.9,288.6-137.4,267.2z"/>
</svg>
