<?xml version="1.0" encoding="utf-8"?>
<!-- Generator: Adobe Illustrator 19.0.0, SVG Export Plug-In . SVG Version: 6.00 Build 0)  -->
<svg version="1.1" id="Warstwa_1" xmlns="http://www.w3.org/2000/svg" xmlns:xlink="http://www.w3.org/1999/xlink" x="0px" y="0px"
	 viewBox="-415 145 448 512" style="enable-background:new -415 145 448 512;" xml:space="preserve">
<style type="text/css">
	.st0{fill:#00D1B2;}
</style>
<path class="st0" d="M33,505V169c0-13.3-10.7-24-24-24h-328c-53,0-96,43-96,96v320c0,53,43,96,96,96H9c13.3,0,24-10.7,24-24v-16
	c0-7.5-3.5-14.3-8.9-18.7c-4.2-15.4-4.2-59.3,0-74.7C29.5,519.3,33,512.5,33,505L33,505z M-287,279c0-3.3,2.7-6,6-6h212
	c3.3,0,6,2.7,6,6v20c0,3.3-2.7,6-6,6h-212c-3.3,0-6-2.7-6-6V279z M-287,343c0-3.3,2.7-6,6-6h212c3.3,0,6,2.7,6,6v20c0,3.3-2.7,6-6,6
	h-212c-3.3,0-6-2.7-6-6V343z M-33.6,593H-319c-17.7,0-32-14.3-32-32c0-17.6,14.4-32,32-32h285.4C-35.5,546.1-35.5,575.9-33.6,593z"
	/>
</svg>
