<?xml version="1.0" encoding="utf-8"?>
<!-- Generator: Adobe Illustrator 19.0.0, SVG Export Plug-In . SVG Version: 6.00 Build 0)  -->
<svg version="1.1" id="Warstwa_1" xmlns="http://www.w3.org/2000/svg" xmlns:xlink="http://www.w3.org/1999/xlink" x="0px" y="0px"
	 viewBox="-415 145 448 512" style="enable-background:new -415 145 448 512;" xml:space="preserve">
<style type="text/css">
	.st0{fill:#00D1B2;}
</style>
<path class="st0" d="M-415,609c0,26.5,21.5,48,48,48h352c26.5,0,48-21.5,48-48V337h-448V609z M-95,413c0-6.6,5.4-12,12-12h40
	c6.6,0,12,5.4,12,12v40c0,6.6-5.4,12-12,12h-40c-6.6,0-12-5.4-12-12V413z M-95,541c0-6.6,5.4-12,12-12h40c6.6,0,12,5.4,12,12v40
	c0,6.6-5.4,12-12,12h-40c-6.6,0-12-5.4-12-12V541z M-223,413c0-6.6,5.4-12,12-12h40c6.6,0,12,5.4,12,12v40c0,6.6-5.4,12-12,12h-40
	c-6.6,0-12-5.4-12-12V413z M-223,541c0-6.6,5.4-12,12-12h40c6.6,0,12,5.4,12,12v40c0,6.6-5.4,12-12,12h-40c-6.6,0-12-5.4-12-12V541z
	 M-351,413c0-6.6,5.4-12,12-12h40c6.6,0,12,5.4,12,12v40c0,6.6-5.4,12-12,12h-40c-6.6,0-12-5.4-12-12V413z M-351,541
	c0-6.6,5.4-12,12-12h40c6.6,0,12,5.4,12,12v40c0,6.6-5.4,12-12,12h-40c-6.6,0-12-5.4-12-12V541z M-15,209h-48v-48
	c0-8.8-7.2-16-16-16h-32c-8.8,0-16,7.2-16,16v48h-128v-48c0-8.8-7.2-16-16-16h-32c-8.8,0-16,7.2-16,16v48h-48c-26.5,0-48,21.5-48,48
	v48H33v-48C33,230.5,11.5,209-15,209z"/>
</svg>
