<?xml version="1.0" encoding="utf-8"?>
<!-- Generator: Adobe Illustrator 19.0.0, SVG Export Plug-In . SVG Version: 6.00 Build 0)  -->
<svg version="1.1" id="Warstwa_1" xmlns="http://www.w3.org/2000/svg" xmlns:xlink="http://www.w3.org/1999/xlink" x="0px" y="0px"
	 viewBox="-383 145 512 512" style="enable-background:new -383 145 512 512;" xml:space="preserve">
<style type="text/css">
	.st0{fill:#00D1B2;}
</style>
<path class="st0" d="M-335,177c-26.5,0-48,21.5-48,48v352c0,26.5,21.5,48,48,48H81c26.5,0,48-21.5,48-48V225c0-26.5-21.5-48-48-48
	H-335z M-335,209h106c3.3,0,6,2.7,6,6v20c0,3.3-2.7,6-6,6h-116c-3.3,0-6-2.7-6-6v-10C-351,216.2-343.8,209-335,209z M91,305h-436
	c-3.3,0-6-2.7-6-6v-36c0-3.3,2.7-6,6-6h138l30.2-45.3c1.1-1.7,3-2.7,5-2.7H81c8.8,0,16,7.2,16,16v74C97,302.3,94.3,305,91,305z
	 M-127,569c-66.2,0-120-53.8-120-120s53.8-120,120-120S-7,382.8-7,449S-60.8,569-127,569z M-127,361c-48.5,0-88,39.5-88,88
	s39.5,88,88,88s88-39.5,88-88S-78.5,361-127,361z M-175,465c-8.8,0-16-7.2-16-16c0-35.3,28.7-64,64-64c8.8,0,16,7.2,16,16
	s-7.2,16-16,16c-17.6,0-32,14.4-32,32C-159,457.8-166.2,465-175,465z"/>
</svg>
