<?xml version="1.0" encoding="utf-8"?>
<!-- Generator: Adobe Illustrator 19.0.0, SVG Export Plug-In . SVG Version: 6.00 Build 0)  -->
<svg version="1.1" id="Warstwa_1" xmlns="http://www.w3.org/2000/svg" xmlns:xlink="http://www.w3.org/1999/xlink" x="0px" y="0px"
	 viewBox="-383 145 512 512" style="enable-background:new -383 145 512 512;" xml:space="preserve">
<style type="text/css">
	.st0{fill:#00D1B2;}
</style>
<path class="st0" d="M-127,153c-137,0-248,111-248,248s111,248,248,248s248-111,248-248S10,153-127,153z M-34.5,466L-34.5,466
	l-20,25c-5.5,6.9-15.6,8-22.5,2.5c0,0,0,0,0,0l0,0l-67-49.7c-9.5-7.6-15-19.1-15-31.2V257c0-8.8,7.2-16,16-16h32c8.8,0,16,7.2,16,16
	v144l58,42.5C-30.1,449-29,459.1-34.5,466C-34.5,466-34.5,466-34.5,466z"/>
</svg>
