<?xml version="1.0" encoding="utf-8"?>
<!-- Generator: Adobe Illustrator 19.0.0, SVG Export Plug-In . SVG Version: 6.00 Build 0)  -->
<svg version="1.1" id="Warstwa_1" xmlns="http://www.w3.org/2000/svg" xmlns:xlink="http://www.w3.org/1999/xlink" x="0px" y="0px"
	 viewBox="-383 145 512 512" style="enable-background:new -383 145 512 512;" xml:space="preserve">
<style type="text/css">
	.st0{fill:#00D1B2;}
</style>
<path class="st0" d="M105,209h-8v20c0,6.6-5.4,12-12,12H45c-6.6,0-12-5.4-12-12v-20h-320v20c0,6.6-5.4,12-12,12h-40
	c-6.6,0-12-5.4-12-12v-20h-8c-13.3,0-24,10.7-24,24v336c0,13.3,10.7,24,24,24h8v-20c0-6.6,5.4-12,12-12h40c6.6,0,12,5.4,12,12v20H33
	v-20c0-6.6,5.4-12,12-12h40c6.6,0,12,5.4,12,12v20h8c13.3,0,24-10.7,24-24V233C129,219.7,118.3,209,105,209z M-287,517
	c0,6.6-5.4,12-12,12h-40c-6.6,0-12-5.4-12-12v-40c0-6.6,5.4-12,12-12h40c6.6,0,12,5.4,12,12V517z M-287,421c0,6.6-5.4,12-12,12h-40
	c-6.6,0-12-5.4-12-12v-40c0-6.6,5.4-12,12-12h40c6.6,0,12,5.4,12,12V421z M-287,325c0,6.6-5.4,12-12,12h-40c-6.6,0-12-5.4-12-12v-40
	c0-6.6,5.4-12,12-12h40c6.6,0,12,5.4,12,12V325z M-15,533c0,6.6-5.4,12-12,12h-200c-6.6,0-12-5.4-12-12v-96c0-6.6,5.4-12,12-12h200
	c6.6,0,12,5.4,12,12V533z M-15,365c0,6.6-5.4,12-12,12h-200c-6.6,0-12-5.4-12-12v-96c0-6.6,5.4-12,12-12h200c6.6,0,12,5.4,12,12V365
	z M97,517c0,6.6-5.4,12-12,12H45c-6.6,0-12-5.4-12-12v-40c0-6.6,5.4-12,12-12h40c6.6,0,12,5.4,12,12V517z M97,421
	c0,6.6-5.4,12-12,12H45c-6.6,0-12-5.4-12-12v-40c0-6.6,5.4-12,12-12h40c6.6,0,12,5.4,12,12V421z M97,325c0,6.6-5.4,12-12,12H45
	c-6.6,0-12-5.4-12-12v-40c0-6.6,5.4-12,12-12h40c6.6,0,12,5.4,12,12V325z"/>
</svg>
