<?xml version="1.0" encoding="utf-8"?>
<!-- Generator: Adobe Illustrator 24.1.2, SVG Export Plug-In . SVG Version: 6.00 Build 0)  -->
<svg version="1.1" id="Object" xmlns="http://www.w3.org/2000/svg" xmlns:xlink="http://www.w3.org/1999/xlink" x="0px" y="0px"
	 viewBox="0 0 254 182" style="enable-background:new 0 0 254 182;" xml:space="preserve">
<style type="text/css">
	.st0{fill:#FCC812;}
</style>
<g>
	<path class="st0" d="M106.24,100.21c1.11,2.56,2.59,4.95,4.37,7.11c1.87,2.25,4.17,4.1,6.7,5.52c-0.69,0.24-1.37,0.6-2,1.3
		c-0.4,0.45-0.74,1.19-0.7,1.94c0,0.19,0.03,0.36,0.07,0.53c0.04,0.17,0.08,0.33,0.17,0.5c0.14,0.34,0.36,0.62,0.57,0.84
		c0.4,0.42,0.82,0.66,1.21,0.85c0.4,0.2,0.78,0.31,1.16,0.43c0.75,0.21,1.47,0.32,2.18,0.4c1.42,0.15,2.81,0.17,4.18,0.14
		c1.37-0.03,2.74-0.12,4.08-0.23c1.26-0.1,2.61-0.13,3.95-0.19c0.71-0.03,1.43-0.07,2.16-0.12c0,0,1.91-0.22,3.78-0.67
		c0.94-0.23,1.86-0.5,2.51-0.78c0.66-0.26,1.05-0.49,0.97-0.46c0.29-0.15,0.56-0.34,0.82-0.5l0.38-0.63
		c-0.03-0.4-0.18-0.81-0.4-1.08c-0.21-0.28-0.45-0.44-0.64-0.54c-0.39-0.21-0.67-0.23-0.79-0.18c-0.12,0.06-0.08,0.21,0.12,0.49
		c0.14,0.22,0.4,0.52,0.45,0.91c-0.14,0.05-0.28,0.09-0.43,0.14c-1.31,0.34-2.96,0.51-4.29,0.56c-1.33,0.06-2.33,0.06-2.33,0.06
		c-0.8,0.06-1.61,0.11-2.43,0.14c-1.33,0.07-2.65,0.09-4.05,0.2c-1.32,0.11-2.62,0.19-3.92,0.22c-1.3,0.03-2.59,0.01-3.83-0.13
		c-0.61-0.07-1.22-0.17-1.76-0.32c-0.52-0.14-1.03-0.38-1.15-0.55c-0.07-0.08-0.05-0.08-0.07-0.12c0,0-0.02,0.02,0.06-0.09
		c0.16-0.21,0.7-0.51,1.21-0.62c0.04-0.02,0.11-0.11,0.12-0.14c0.31-0.53,0.51-0.95,0.52-1.33c1.83,0.83,3.76,1.45,5.72,1.82
		c5.48,1.07,11.39,0.42,16.38-2.36c2.5-1.36,4.7-3.36,6.31-5.74l0.58-0.91c0.05-0.07,0.1-0.15,0.14-0.23l0.09-0.16l0.08-0.15
		l0.33-0.61c0.22-0.4,0.39-0.83,0.58-1.25c0,0,0.04-0.12,0.12-0.32c0.07-0.21,0.16-0.5,0.27-0.86c0.12-0.35,0.23-0.77,0.33-1.21
		c0.12-0.44,0.22-0.92,0.3-1.39c0.36-1.89,0.44-3.74,0.4-3.59c0.04-1.55-0.13-2.82-0.36-3.09c-0.12-0.13-0.27-0.02-0.44,0.42
		c-0.17,0.44-0.37,1.21-0.65,2.38c-0.38,1.37-0.88,2.99-1.37,4.21c-0.25,0.61-0.46,1.14-0.65,1.5c-0.17,0.37-0.27,0.58-0.27,0.58
		l-0.5,1.12c-0.09,0.18-0.19,0.36-0.28,0.54l-0.14,0.27l-0.07,0.13l-0.09,0.16c-0.03,0.07-0.08,0.13-0.12,0.2
		c-0.64,1.08-1.43,2.06-2.29,2.95c-0.87,0.89-1.88,1.64-2.93,2.32c-4.33,2.58-9.7,3.45-14.73,2.53c-2.52-0.44-4.97-1.28-7.22-2.5
		c-2.24-1.23-4.24-2.85-5.9-4.78c-1.64-1.97-3.05-4.18-4.08-6.54c-1.03-2.36-1.79-4.86-1.96-7.38c-0.13-1.38-0.05-2.75,0.21-4.06
		c0-0.06-0.05-0.18-0.07-0.21c-0.1-0.18-0.21-0.34-0.32-0.47c1.44,0.09,2.88,0.15,4.32,0.21c5.27,0.18,10.54,0.18,15.79,0.08
		l7.87-0.19l6.73-0.2c0,0,1.87-0.17,3.7-0.33c1.83-0.17,3.62-0.33,3.46-0.35c2.99-0.37,4.93-0.99,0.07-1.49
		c-2.87-0.36-6.96-0.51-6.96-0.51l-6.68,0.19l-7.98,0.2c-5.32,0.1-10.62,0.11-15.92-0.08c-1.47-0.06-2.94-0.12-4.41-0.21
		c-0.06,0.01-0.19,0.08-0.21,0.1c-1.07,0.78-0.95,1.53-0.58,2.05c-0.08-0.02-0.16-0.04-0.24-0.04c-0.44-0.01-0.85,0.29-1.11,0.57
		c-0.08,0.08-0.09,0.1-0.1,0.17c-0.31,1.6-0.4,3.22-0.25,4.8C104.32,94.93,105.13,97.65,106.24,100.21z"/>
	<path class="st0" d="M150.32,87.14c-0.17,0.26-0.35,0.5-0.44,0.8c-0.11,0.3-0.2,0.6-0.21,0.9c0,0.1,0.07,0.3,0.09,0.34
		c0.3,0.53,0.67,0.7,0.93,0.76c0.27,0.05,0.51-0.02,0.7-0.13c0.07-0.04,0.12-0.08,0.18-0.12c-0.59,0.87-0.43,1.75-0.35,2.12
		c0.01,0.07,0.02,0.07,0.05,0.08c0.01,0.01,0.17,0.03,0.41,0.12c0.24,0.07,0.57,0.19,0.91,0.36c0.34,0.17,0.7,0.4,0.95,0.68
		c0.25,0.28,0.4,0.6,0.47,1c0.12,0.81-0.25,1.89-0.63,2.63c-0.38,0.76-0.73,1.25-0.73,1.25s-0.3,0.66-0.66,1.3
		c-0.36,0.64-0.76,1.25-0.69,1.23c-0.29,0.55-0.49,1.07-0.39,1.33c0.1,0.26,0.53,0.28,1.45-0.29c0.57-0.31,1.19-0.78,1.65-1.19
		c0.47-0.41,0.78-0.76,0.78-0.76s0.1-0.15,0.27-0.41c0.17-0.27,0.4-0.65,0.65-1.14c0.25-0.49,0.52-1.08,0.73-1.79
		c0.2-0.71,0.34-1.54,0.23-2.44c-0.09-0.9-0.53-1.82-1.09-2.46c-0.57-0.65-1.21-1.05-1.75-1.32c-0.88-0.43-1.53-0.6-1.77-0.66
		c0.08-0.07,0.15-0.13,0.22-0.16c0.07-0.03,0.07-0.04,0.07-0.06c-0.02-0.08,0.02-0.13,0.04-0.18c-0.01-0.06,0.07-0.11,0.09-0.17
		c0.08-0.12,0.24-0.24,0.43-0.36c0.41-0.24,0.99-0.4,1.59-0.47c0.52-0.06,1.06-0.06,1.56,0.03c0.13,0.01,0.25,0.04,0.36,0.07
		c0.12,0.03,0.24,0.05,0.33,0.1c0.09,0.04,0.23,0.07,0.28,0.11c0.07,0.05,0.13,0.04,0.23,0.14c0.8,0.62,1.42,1.41,1.62,2.36
		c0.25,0.94,0.12,2.05-0.18,3.14c-0.32,1.1-0.82,2.19-1.41,3.25c-0.33,0.58-0.68,1.16-1.06,1.72c0,0-0.9,1.56-1.97,3.02
		c-1.04,1.46-2.19,2.82-2.06,2.73c-0.91,1.18-1.65,2.17-1.67,2.53c-0.03,0.35,0.75,0.14,2.67-1.43c1.15-0.9,2.45-2.12,3.42-3.16
		c0.97-1.04,1.62-1.88,1.62-1.88c0.49-0.71,0.95-1.45,1.38-2.2c0.66-1.19,1.25-2.45,1.65-3.83c0.18-0.7,0.35-1.41,0.39-2.18
		c0.04-0.37,0.01-0.77,0.01-1.15c-0.05-0.39-0.07-0.78-0.19-1.17c-0.17-0.78-0.53-1.54-0.99-2.2l-0.36-0.48
		c-0.13-0.15-0.27-0.29-0.41-0.43c-0.26-0.3-0.59-0.53-0.89-0.78c-0.13-0.12-0.38-0.25-0.59-0.36c-0.22-0.13-0.41-0.18-0.61-0.26
		c-0.2-0.08-0.4-0.13-0.59-0.17c-0.2-0.05-0.39-0.09-0.58-0.12c-0.77-0.13-1.52-0.13-2.28-0.04c-0.87,0.1-1.75,0.31-2.63,0.81
		C151.11,86.32,150.67,86.66,150.32,87.14z"/>
	<path class="st0" d="M107.97,83.45l-0.02-0.03l0-0.01l0,0c-0.01-0.01-0.01-0.01-0.01-0.02l0,0c0.04,0.08,0.14,0.28,0.12,0.24l0,0
		l0,0c-0.02-0.04-0.04-0.07-0.05-0.11L107.97,83.45z"/>
	<path class="st0" d="M107.36,83.09c0.09,0.08,0.16,0.11,0.25,0.13c0.11,0.06,0.2,0.1,0.33,0.16c-0.02-0.03-0.02-0.04,0,0l0,0
		c0.03,0.02,0.06,0.03,0.09,0.05c0.03,0.02,0.06,0.04,0.05,0.09c0,0.02-0.01,0.04-0.01,0.06l-0.01,0.03l0,0
		c0.01,0.02,0.02,0.04,0.03,0.06l0.01,0.03c0.03,0.06,0.06,0.05,0.08,0.04c0.19-0.06,0.56-0.11,0.91-0.15
		c0.37-0.05,0.75-0.1,1.2-0.19l2.08-0.29c3.39-0.43,6.81-0.67,10.24-0.8c-0.23,0.38-0.37,0.72-0.31,1.03
		c0.06,0.43,0.52,0.82,0.93,0.95c0.12,0.05,0.15,0.04,0.24,0.03c1.63-0.26,2.92-1.08,3.95-2.13c0.87-0.01,1.74-0.02,2.62-0.02
		l2.12,0.01c0,0,0.78-0.04,1.82-0.09c-0.14,0.45-0.19,0.85-0.04,1.14c0.18,0.4,0.69,0.63,1.14,0.68c0.13,0.01,0.16,0,0.24-0.04
		c0.95-0.38,1.74-1.14,2.24-1.96c0-0.01,0.01-0.01,0.01-0.02c1.09-0.06,1.89-0.11,1.78-0.13c3.01-0.27,4.96-0.83,0.12-1.48
		c-0.36-0.06-0.74-0.12-1.13-0.17c0.07-0.26,0.13-0.51,0.17-0.77c0.3-1.95,0.07-3.85-0.69-5.66c-0.09-0.23-0.2-0.45-0.33-0.67
		c-0.12-0.22-0.25-0.45-0.38-0.63c-0.26-0.4-0.54-0.76-0.82-1.11c-0.57-0.7-1.18-1.33-1.77-1.94c-1.19-1.21-2.35-2.32-3.18-3.54
		c-0.42-0.61-0.76-1.24-0.99-1.91c-0.1-0.34-0.25-0.67-0.28-1.01l-0.1-0.51l-0.02-0.5c-0.03-0.57,0.08-1.11,0.22-1.65
		c0,0,0.03-0.09,0.08-0.24c0.06-0.15,0.1-0.39,0.24-0.64c0.2-0.54,0.67-1.21,1.19-1.85c1.08-1.28,2.54-2.31,2.38-2.25
		c1.13-0.94,2.11-1.7,2.21-2.06c0.1-0.33-0.69-0.31-2.94,0.77c-1.34,0.62-2.9,1.63-3.97,2.77c-0.27,0.27-0.49,0.58-0.71,0.83
		c-0.2,0.27-0.35,0.53-0.49,0.74c-0.14,0.21-0.22,0.4-0.28,0.53c-0.06,0.13-0.09,0.2-0.09,0.2c-0.21,0.45-0.29,0.96-0.42,1.44
		c-0.04,0.5-0.14,1-0.09,1.5c0.07,2,0.8,3.85,1.86,5.38c1.06,1.53,2.34,2.73,3.48,3.9c0.57,0.58,1.12,1.16,1.6,1.75
		c0.24,0.3,0.47,0.6,0.67,0.9c0.12,0.15,0.18,0.3,0.26,0.44c0.08,0.14,0.15,0.29,0.22,0.45c0.55,1.26,0.73,2.8,0.51,4.15
		c-0.06,0.32-0.14,0.62-0.24,0.9c-1.71-0.18-3.09-0.29-3.09-0.29l-2.49-0.01c-0.29,0-0.58,0-0.87,0c0.03-0.08,0.07-0.16,0.09-0.24
		c0.29-0.85,0.39-1.87,0.11-2.86c-0.6-2.03-2.21-3.14-3.69-3.78c-2.97-1.22-5.86-1.22-7.26-2.95c-0.39-0.38-0.59-0.83-0.77-1.29
		c0,0-0.02-0.08-0.06-0.22c-0.02-0.07-0.05-0.15-0.08-0.25c-0.01-0.11-0.03-0.23-0.05-0.36c-0.07-0.52-0.04-1.3,0.18-2.11
		c0.4-1.61,1.25-3.2,1.13-3.08c0.59-1.35,1.09-2.51,1-2.87c-0.07-0.34-0.74,0.07-2.24,2.05c-0.9,1.16-1.89,2.72-2.32,4.26
		c-0.05,0.19-0.11,0.38-0.15,0.56c-0.03,0.19-0.06,0.37-0.09,0.54c-0.07,0.34-0.06,0.66-0.06,0.93c0,0.27,0,0.48,0.03,0.63
		c0.02,0.15,0.04,0.23,0.04,0.23c0.08,0.53,0.31,1.03,0.53,1.52c0.28,0.45,0.56,0.92,0.93,1.27c0.15,0.16,0.3,0.33,0.46,0.47
		l0.49,0.39c0.32,0.27,0.7,0.5,1.07,0.71c0.76,0.4,1.51,0.64,2.23,0.86c1.44,0.42,2.8,0.68,3.91,1.17c0.55,0.24,1.04,0.53,1.42,0.87
		c0.17,0.19,0.35,0.36,0.48,0.57c0.03,0.05,0.08,0.1,0.11,0.15l0.05,0.14c0.04,0.09,0.1,0.17,0.1,0.28
		c0.22,0.67-0.07,1.61-0.62,2.43c-4.71,0.08-9.43,0.32-14.14,0.92l-1.12,0.15l-0.56,0.08l-0.28,0.04c-0.09,0.02-0.16,0.02-0.36,0.06
		c-0.27,0.06-0.62,0.11-0.99,0.15c-0.38,0.06-0.75,0.09-1.27,0.23c-0.09,0.03-0.25,0.17-0.3,0.22c-0.07,0.07-0.11,0.12-0.19,0.21
		c-0.08,0.09-0.14,0.17-0.19,0.25c-0.05,0.14-0.08,0.27-0.06,0.38c0.02,0.23,0.15,0.39,0.29,0.52
		C107.15,82.89,107.26,83,107.36,83.09z"/>
	<path class="st0" d="M95.58,121.03c0.77,0.74,1.58,1.35,2.38,1.91c0.81,0.56,1.57,1.08,2.44,1.58c3.37,2.06,7.07,3.5,10.87,4.39
		c3.8,0.89,7.69,1.25,11.56,1.23c3.87-0.02,7.71-0.41,11.5-1.05l2.83-0.53l2.81-0.62c1.88-0.46,3.68-0.92,5.53-1.41
		c1.85-0.49,3.7-1.04,5.54-1.71c1.83-0.69,3.66-1.48,5.37-2.69c0.43-0.3,0.84-0.64,1.25-1.01l0.29-0.3l0.15-0.15l0.04-0.05
		l0.13-0.15c0.17-0.19,0.33-0.4,0.48-0.62c0.16-0.21,0.28-0.46,0.42-0.69c0.11-0.25,0.25-0.51,0.32-0.77c0,0,0.04-0.14,0.11-0.4
		c0.02-0.14,0.05-0.31,0.08-0.5c0.03-0.19,0.07-0.4,0.04-0.68c-0.03-0.27-0.01-0.55-0.13-0.86c-0.09-0.31-0.2-0.62-0.4-0.89
		c-0.35-0.59-0.87-0.97-1.36-1.28c-1-0.57-1.97-0.79-2.66-0.92c-0.69-0.13-1.11-0.17-1.04-0.14c-1.56-0.15-2.8-0.06-3.09,0.14
		c-0.15,0.11-0.05,0.26,0.38,0.47c0.43,0.21,1.19,0.45,2.32,0.82c0.66,0.24,1.37,0.51,2,0.84c0.62,0.33,1.13,0.74,1.32,1.08
		c0.19,0.33,0.14,0.56,0.12,0.78c-0.08,0.25-0.13,0.41-0.13,0.41c-0.09,0.31-0.19,0.59-0.37,0.86c-0.07,0.14-0.19,0.27-0.28,0.41
		l-0.17,0.2l-0.08,0.1c0.01-0.01-0.09,0.1-0.16,0.16l-0.21,0.21c-1.21,1.11-2.86,1.96-4.55,2.65c-1.7,0.7-3.5,1.27-5.32,1.78
		c-0.91,0.26-1.83,0.49-2.76,0.73l-1.4,0.36l-1.38,0.34c-0.92,0.24-1.84,0.44-2.77,0.64c-0.92,0.21-1.86,0.38-2.79,0.55
		c-3.72,0.67-7.48,1.1-11.24,1.17c-3.76,0.08-7.51-0.22-11.15-1.03c-3.63-0.8-7.14-2.12-10.3-4l-1.18-0.71l-1.18-0.79
		c-0.77-0.53-1.5-1.06-2.13-1.64c-0.62-0.57-1.14-1.21-1.31-1.75c-0.09-0.27-0.09-0.48-0.05-0.7c0.04-0.11,0.09-0.27,0.14-0.36
		c0.03-0.04,0.05-0.09,0.08-0.13c0.05-0.05,0.09-0.1,0.14-0.15c0.41-0.45,1.2-0.91,1.98-1.28c0.8-0.38,1.66-0.71,2.54-1.01
		c0.89-0.31,1.75-0.56,2.73-0.85c0.42-0.14,0.81-0.27,1.2-0.4c-0.8,0.51-1.59,1.12-2.23,2.01l-0.27,0.39l-0.22,0.46
		c-0.07,0.16-0.15,0.3-0.2,0.47l-0.12,0.52c-0.16,0.7-0.08,1.48,0.17,2.14c0.54,1.34,1.51,2.16,2.41,2.77
		c1.85,1.21,3.78,1.84,5.7,2.4c1.92,0.55,3.85,0.93,5.77,1.29c1.98,0.31,3.93,0.52,5.9,0.65c1.97,0.11,3.94,0.13,5.92,0.05
		c1.97-0.09,3.94-0.28,5.9-0.57l1.86-0.32l1.29-0.27c0,0,1.87-0.51,3.63-1.18c1.77-0.65,3.43-1.45,3.27-1.42
		c0.69-0.35,1.29-0.71,1.73-1.03c0.45-0.32,0.74-0.58,0.8-0.75c0.06-0.17-0.11-0.24-0.58-0.19c-0.47,0.05-1.23,0.27-2.4,0.56
		c-1.38,0.34-3.05,0.69-4.37,0.95c-0.66,0.11-1.24,0.21-1.65,0.28c-0.41,0.08-0.66,0.1-0.66,0.1l-1.24,0.26
		c-0.21,0.05-0.42,0.08-0.63,0.12l-0.79,0.14c-1.88,0.31-3.78,0.53-5.69,0.62c-3.81,0.21-7.68-0.01-11.44-0.58
		c-1.88-0.32-3.79-0.71-5.61-1.21c-1.81-0.5-3.62-1.12-5.07-2.03c-0.7-0.45-1.3-1-1.5-1.5c-0.21-0.49-0.13-0.94,0.24-1.5
		c0.37-0.55,1.03-1.08,1.76-1.51c0.74-0.44,1.58-0.78,2.43-1.08c1.29-0.43,2.67-0.73,3.98-0.8c0.05-0.01,0.16-0.1,0.18-0.12
		c0.59-0.58,0.81-1.1,0.71-1.54c-0.09-0.43-0.48-0.79-0.83-0.97c-0.1-0.06-0.12-0.06-0.2-0.05c-0.5,0.03-0.98,0.08-1.46,0.15
		c0.01-0.07,0.02-0.15,0.02-0.22c-0.04-0.44-0.39-0.85-0.72-1.05c-0.09-0.07-0.12-0.07-0.19-0.08c-1.7-0.09-3.3,0.21-4.81,0.61
		c-0.95,0.25-1.92,0.58-2.77,0.87c-0.84,0.25-1.82,0.54-2.73,0.85c-0.93,0.31-1.85,0.66-2.77,1.09c-0.92,0.44-1.85,0.91-2.76,1.76
		c-0.97,0.89-1.55,2.5-1.15,3.87C94.04,119.39,94.84,120.29,95.58,121.03z"/>
</g>
</svg>
