<?xml version="1.0" encoding="utf-8"?>
<!-- Generator: Adobe Illustrator 24.1.2, SVG Export Plug-In . SVG Version: 6.00 Build 0)  -->
<svg version="1.1" id="Warstwa_1" xmlns="http://www.w3.org/2000/svg" xmlns:xlink="http://www.w3.org/1999/xlink" x="0px" y="0px"
	 viewBox="0 0 825 472" style="enable-background:new 0 0 825 472;" xml:space="preserve">
<style type="text/css">
	.st0{fill:#23C495;}
	.st1{fill:#101C3A;}
	.st2{fill:#32866B;}
	.st3{fill:url(#SVGID_4_);}
	.st4{fill-rule:evenodd;clip-rule:evenodd;fill:#FCC812;}
	.st5{fill:#BD960C;}
	.st6{fill:#FCC812;}
	.st7{fill:#FFFFFF;}
	.st8{fill:#FC721A;}
	.st9{fill:#390D9F;}
	.st10{fill:#303030;}
	.st11{fill:none;stroke:#303030;stroke-width:0.5;stroke-miterlimit:10;}
	.st12{fill:#FFCCA8;}
	.st13{fill:#D39B6B;}
	.st14{fill:none;stroke:#FCC812;stroke-miterlimit:10;}
	.st15{fill:#43B38F;}
	.st16{fill:none;stroke:#43B38F;stroke-width:0.4661;stroke-miterlimit:10;}
	.st17{fill:none;stroke:#43B38F;stroke-width:0.4661;stroke-miterlimit:10;stroke-dasharray:0.6294,1.0488;}
	.st18{fill:none;stroke:#43B38F;stroke-width:0.4661;stroke-miterlimit:10;stroke-dasharray:0.6223,1.0371;}
	.st19{fill:none;stroke:#FCC812;stroke-width:2;stroke-miterlimit:10;}
</style>
<g>
	<g>
		<g>
			<path class="st0" d="M694.39,372.52c-17.29-15.85-40.15,25.2-37.96,41.41h8.64C673.46,409.88,708.39,385.35,694.39,372.52z"/>
			<g>
				<path class="st1" d="M660.93,414.08c12.81-23.44,33.5-41.08,33.71-41.26l-0.51-0.6c-0.21,0.18-21.01,17.92-33.89,41.48
					L660.93,414.08z"/>
			</g>
			<g>
				<path class="st1" d="M671.09,398.02c0.61-0.06,15.08-1.58,19.48-3.23l-0.28-0.74c-4.31,1.61-19.14,3.17-19.29,3.18
					L671.09,398.02z"/>
			</g>
			<g>
				<path class="st1" d="M681.6,384.22l0.73-0.29c-2.01-5.01-2.41-13.08-2.42-13.16l-0.79,0.04
					C679.14,371.14,679.54,379.08,681.6,384.22z"/>
			</g>
			<path class="st2" d="M664.07,387.43c-5.3,9.29-8.53,19.94-7.65,26.51C668.5,403.4,665.99,389.16,664.07,387.43z"/>
			<path class="st0" d="M650.04,361.47c-15.35-6.38-10.73,31.92,2.75,52.46h6.28C662.22,408.8,662.47,366.64,650.04,361.47z"/>
			<g>
				<path class="st1" d="M656.04,414.01l0.77-0.16c-2.41-11.37-8.96-48.04-9.02-48.41l-0.78,0.14
					C647.08,365.95,653.63,402.63,656.04,414.01z"/>
			</g>
			<g>
				
					<rect x="649.82" y="393.13" transform="matrix(0.7083 -0.7059 0.7059 0.7083 -91.1998 575.0591)" class="st1" width="0.79" height="9.51"/>
			</g>
			<g>
				
					<rect x="650.46" y="383.09" transform="matrix(0.8186 -0.5744 0.5744 0.8186 -101.4139 445.8922)" class="st1" width="9.33" height="0.79"/>
			</g>
		</g>
		<g>
			<path class="st2" d="M680.38,413.99v5.28c0,6-1.25,11.9-3.63,17.13l-0.94,2.08l-6.32,5.68h-17.97l-6.7-5.68l-0.94-2.08
				c-2.38-5.23-3.63-11.13-3.63-17.13v-5.28H680.38z"/>
		</g>
		<g>
			<rect x="650.24" y="426.89" class="st1" width="29.9" height="0.79"/>
		</g>
		<g>
			<rect x="644.64" y="438.03" class="st1" width="10.7" height="0.79"/>
		</g>
	</g>
	<g>
		<g>
			<defs>
				<path id="SVGID_1_" d="M543.36,315.15c-140.33,28.6-98.23,101.62-191.85,118.81c-126.33,23.2-185.56-166.23-106.37-283.15
					c63.29-93.42,172.46-122.94,269.2-84.57C650.96,120.44,654.12,292.57,543.36,315.15z"/>
			</defs>
			<linearGradient id="SVGID_2_" gradientUnits="userSpaceOnUse" x1="136.7288" y1="75.8605" x2="681.7778" y2="423.9643">
				<stop  offset="0" style="stop-color:#379E6E"/>
				<stop  offset="1" style="stop-color:#72C6D4"/>
			</linearGradient>
			<use xlink:href="#SVGID_1_"  style="overflow:visible;fill:url(#SVGID_2_);"/>
			<clipPath id="SVGID_3_">
				<use xlink:href="#SVGID_1_"  style="overflow:visible;"/>
			</clipPath>
		</g>
		<g>
			<linearGradient id="SVGID_4_" gradientUnits="userSpaceOnUse" x1="112.0507" y1="114.5006" x2="657.0997" y2="462.6044">
				<stop  offset="0" style="stop-color:#379E6E"/>
				<stop  offset="1" style="stop-color:#72C6D4"/>
			</linearGradient>
			<path class="st3" d="M541.21,329.04c-33.1,9.18-95.63,73.12-56.86,103.11C523.12,462.14,638.93,301.95,541.21,329.04z"/>
		</g>
	</g>
	<g>
		<g>
			<polygon class="st4" points="611.29,233.84 608.99,215.43 626.08,222.65 			"/>
			<g>
				<g>
					<path class="st5" d="M611.91,230.34l-2.38-19.04l17.68,7.46L611.91,230.34z M609.98,211.89l2.22,17.76l14.27-10.8
						L609.98,211.89z"/>
				</g>
			</g>
		</g>
		<g>
			
				<ellipse transform="matrix(0.6359 -0.7718 0.7718 0.6359 150.1465 392.1816)" class="st4" cx="490.72" cy="36.96" rx="9.39" ry="9.39"/>
			<g>
				<g>
					<path class="st1" d="M486.72,44.22c-4.05-3.34-4.63-9.34-1.29-13.39c3.34-4.05,9.34-4.63,13.39-1.29
						c4.05,3.34,4.63,9.34,1.29,13.39C496.77,46.98,490.76,47.56,486.72,44.22z M498.65,29.74c-3.94-3.25-9.79-2.68-13.03,1.26
						s-2.68,9.79,1.26,13.03c3.94,3.25,9.79,2.68,13.03-1.26S502.59,32.98,498.65,29.74z"/>
				</g>
			</g>
		</g>
		<g>
			<path class="st6" d="M549.74,107.13l0.03,0.07l5.64-2.51l-4.89-3.57l-0.2,0.24C549.16,102.98,548.87,105.17,549.74,107.13z"/>
		</g>
		<g>
			<path class="st7" d="M377.06,81.45l-0.07-0.02l-1.38,6.02l5.79-1.77l-0.07-0.31C380.72,83.47,379.15,81.93,377.06,81.45z"/>
		</g>
		<path class="st0" d="M433.64,37.52c-0.35-0.29-0.4-0.81-0.11-1.16c0.29-0.35,0.81-0.4,1.16-0.11L433.64,37.52z"/>
		<path class="st8" d="M544.76,168.98c-0.35-0.29-0.4-0.81-0.11-1.16c0.29-0.35,0.81-0.4,1.16-0.11L544.76,168.98z"/>
		<path class="st0" d="M616.22,165.76c0.29-0.35,0.81-0.4,1.16-0.11c0.35,0.29,0.4,0.81,0.11,1.16L616.22,165.76z"/>
		<path class="st6" d="M618.93,102.64c-0.58,0.71-1.62,0.81-2.33,0.22c-0.71-0.58-0.81-1.62-0.22-2.33
			c0.58-0.71,1.62-0.81,2.33-0.22C619.41,100.89,619.51,101.94,618.93,102.64z"/>
		<path class="st7" d="M464.85,104.21c-0.58,0.71-1.62,0.81-2.33,0.23c-0.71-0.58-0.81-1.62-0.22-2.33
			c0.58-0.71,1.62-0.81,2.33-0.22C465.33,102.46,465.43,103.5,464.85,104.21z"/>
		<path class="st9" d="M594.7,270.2c-0.58,0.71-1.62,0.81-2.33,0.22c-0.71-0.58-0.81-1.62-0.22-2.33c0.58-0.71,1.62-0.81,2.33-0.22
			C595.18,268.46,595.28,269.5,594.7,270.2z"/>
		<path class="st6" d="M666.25,196.26c-0.7,0.85-1.95,0.97-2.8,0.27c-0.85-0.7-0.97-1.95-0.27-2.8c0.7-0.85,1.95-0.97,2.8-0.27
			C666.82,194.16,666.95,195.41,666.25,196.26z"/>
	</g>
	<path class="st10" d="M201.5,111.4c-0.06,0-0.11-0.02-0.16-0.07l-6.85-7.14l-7.65,6.27c-0.07,0.06-0.16,0.06-0.24,0.02
		c-0.08-0.04-0.12-0.13-0.11-0.22l1.31-9.81l-9.67-2.07c-0.09-0.02-0.15-0.09-0.17-0.17c-0.01-0.09,0.03-0.17,0.1-0.22l8.48-5.09
		l-4.41-8.86c-0.04-0.08-0.03-0.17,0.03-0.24c0.06-0.07,0.15-0.09,0.23-0.06l9.27,3.45l4.17-8.97c0.04-0.08,0.12-0.13,0.21-0.12
		c0.09,0.01,0.16,0.06,0.19,0.15l3.08,9.4l9.62-2.33c0.09-0.02,0.18,0.01,0.23,0.09c0.05,0.07,0.05,0.17,0,0.24l-5.43,8.27
		l7.82,6.07c0.07,0.05,0.1,0.15,0.07,0.23c-0.02,0.08-0.1,0.15-0.19,0.15l-9.85,0.91l0.13,9.89c0,0.09-0.05,0.17-0.13,0.2
		C201.56,111.39,201.53,111.4,201.5,111.4z M194.51,103.69c0.06,0,0.11,0.02,0.16,0.07l6.61,6.89l-0.13-9.55
		c0-0.11,0.08-0.21,0.2-0.22l9.51-0.88l-7.54-5.85c-0.09-0.07-0.11-0.19-0.05-0.29l5.24-7.98l-9.28,2.25
		c-0.11,0.03-0.22-0.04-0.25-0.14L196,78.91l-4.03,8.66c-0.05,0.1-0.16,0.15-0.27,0.11l-8.95-3.33l4.26,8.55
		c0.05,0.1,0.01,0.22-0.08,0.28l-8.19,4.92l9.34,2c0.11,0.02,0.18,0.13,0.17,0.24l-1.26,9.46l7.39-6.05
		C194.42,103.7,194.46,103.69,194.51,103.69z"/>
	<g>
		<rect x="239.68" y="203.52" class="st7" width="47.46" height="47.46"/>
		<rect x="287.14" y="250.98" class="st11" width="47.46" height="47.46"/>
		<rect x="287.14" y="298.44" class="st6" width="47.46" height="47.46"/>
		<rect x="334.61" y="298.44" class="st7" width="47.46" height="47.46"/>
		<rect x="334.61" y="345.9" class="st10" width="47.46" height="47.46"/>
		<rect x="287.14" y="156.05" class="st7" width="47.46" height="47.46"/>
		<rect x="334.61" y="156.05" class="st11" width="47.46" height="47.46"/>
		<rect x="334.61" y="203.52" class="st7" width="47.46" height="47.46"/>
		<rect x="382.07" y="203.52" class="st11" width="47.46" height="47.46"/>
		<rect x="239.68" y="108.59" class="st11" width="47.46" height="47.46"/>
		<rect x="382.07" y="250.98" class="st6" width="47.46" height="47.46"/>
		<rect x="382.07" y="298.44" class="st7" width="47.46" height="47.46"/>
		<rect x="429.53" y="156.05" class="st10" width="47.46" height="47.46"/>
		<rect x="429.53" y="203.52" class="st6" width="47.46" height="47.46"/>
		<path class="st10" d="M239.68,203.73c-0.12,0-0.21-0.1-0.21-0.21v-47.46c0-0.12,0.1-0.21,0.21-0.21c0.12,0,0.21,0.1,0.21,0.21
			v47.46C239.9,203.63,239.8,203.73,239.68,203.73z"/>
		<path class="st10" d="M287.14,393.58c-0.12,0-0.21-0.1-0.21-0.21V345.9c0-0.12,0.1-0.21,0.21-0.21s0.21,0.1,0.21,0.21v47.46
			C287.36,393.48,287.26,393.58,287.14,393.58z"/>
		<path class="st10" d="M405.8,289.31c-0.12,0-0.21-0.1-0.21-0.21v-28.77c0-0.12,0.1-0.21,0.21-0.21s0.21,0.1,0.21,0.21v28.77
			C406.01,289.21,405.92,289.31,405.8,289.31z"/>
		<path class="st10" d="M239.68,393.58c-0.12,0-0.21-0.1-0.21-0.21V250.98c0-0.12,0.1-0.21,0.21-0.21c0.12,0,0.21,0.1,0.21,0.21
			v142.39C239.9,393.48,239.8,393.58,239.68,393.58z"/>
		<path class="st10" d="M239.68,203.73h-47.46c-0.12,0-0.21-0.1-0.21-0.21c0-0.12,0.1-0.21,0.21-0.21h47.46
			c0.12,0,0.21,0.1,0.21,0.21C239.9,203.63,239.8,203.73,239.68,203.73z"/>
		<path class="st10" d="M429.53,156.27h-47.46c-0.12,0-0.21-0.1-0.21-0.21c0-0.12,0.1-0.21,0.21-0.21h47.46
			c0.12,0,0.21,0.1,0.21,0.21C429.75,156.17,429.65,156.27,429.53,156.27z"/>
		<path class="st10" d="M239.68,156.27h-47.46c-0.12,0-0.21-0.1-0.21-0.21c0-0.12,0.1-0.21,0.21-0.21h47.46
			c0.12,0,0.21,0.1,0.21,0.21C239.9,156.17,239.8,156.27,239.68,156.27z"/>
		<path class="st10" d="M476.99,298.65h-47.46c-0.12,0-0.21-0.1-0.21-0.21c0-0.12,0.1-0.21,0.21-0.21h47.46
			c0.12,0,0.21,0.1,0.21,0.21C477.21,298.56,477.11,298.65,476.99,298.65z"/>
		<path class="st10" d="M287.14,346.12h-94.92c-0.12,0-0.21-0.1-0.21-0.21s0.1-0.21,0.21-0.21h94.92c0.12,0,0.21,0.1,0.21,0.21
			S287.26,346.12,287.14,346.12z"/>
		<path class="st10" d="M287.14,298.65h-94.92c-0.12,0-0.21-0.1-0.21-0.21c0-0.12,0.1-0.21,0.21-0.21h94.92
			c0.12,0,0.21,0.1,0.21,0.21C287.36,298.56,287.26,298.65,287.14,298.65z"/>
		<path class="st10" d="M476.99,108.81H287.14c-0.12,0-0.21-0.1-0.21-0.21c0-0.12,0.1-0.21,0.21-0.21h189.85
			c0.12,0,0.21,0.1,0.21,0.21C477.21,108.71,477.11,108.81,476.99,108.81z"/>
		<path class="st10" d="M334.61,156.27c-0.12,0-0.21-0.1-0.21-0.21V61.13c0-0.12,0.1-0.21,0.21-0.21s0.21,0.1,0.21,0.21v94.92
			C334.82,156.17,334.73,156.27,334.61,156.27z"/>
		<path class="st10" d="M382.07,156.27c-0.12,0-0.21-0.1-0.21-0.21V61.13c0-0.12,0.1-0.21,0.21-0.21s0.21,0.1,0.21,0.21v94.92
			C382.28,156.17,382.19,156.27,382.07,156.27z"/>
		<path class="st10" d="M429.53,156.27c-0.12,0-0.21-0.1-0.21-0.21V61.13c0-0.12,0.1-0.21,0.21-0.21s0.21,0.1,0.21,0.21v94.92
			C429.75,156.17,429.65,156.27,429.53,156.27z"/>
		<path class="st6" d="M334.61,179.79h-47.46c0,13.11,10.62,23.73,23.73,23.73S334.61,192.89,334.61,179.79z"/>
		<path class="st6" d="M334.61,156.05h-47.46c0,13.11,10.62,23.73,23.73,23.73S334.61,169.16,334.61,156.05z"/>
		<path class="st10" d="M420.18,274.92h-28.77c-0.12,0-0.21-0.1-0.21-0.21c0-0.12,0.1-0.21,0.21-0.21h28.77
			c0.12,0,0.21,0.1,0.21,0.21C420.4,274.83,420.3,274.92,420.18,274.92z"/>
		<polygon class="st10" points="407.04,273.47 409.31,274.71 407.04,275.95 405.8,278.22 404.56,275.95 402.29,274.71 
			404.56,273.47 405.8,271.2 		"/>
		<polygon class="st6" points="406.26,274.25 407.1,274.71 406.26,275.17 405.8,276.01 405.34,275.17 404.5,274.71 405.34,274.25 
			405.8,273.41 		"/>
		<g>
			<path class="st10" d="M310.88,336.77c-0.12,0-0.21-0.1-0.21-0.21v-28.77c0-0.12,0.1-0.21,0.21-0.21s0.21,0.1,0.21,0.21v28.77
				C311.09,336.68,310.99,336.77,310.88,336.77z"/>
			<path class="st10" d="M325.26,322.39h-28.77c-0.12,0-0.21-0.1-0.21-0.21s0.1-0.21,0.21-0.21h28.77c0.12,0,0.21,0.1,0.21,0.21
				S325.38,322.39,325.26,322.39z"/>
			<path class="st10" d="M300.7,332.56c-0.05,0-0.11-0.02-0.15-0.06c-0.08-0.08-0.08-0.22,0-0.3l20.34-20.34
				c0.08-0.08,0.22-0.08,0.3,0s0.08,0.22,0,0.3l-20.34,20.34C300.81,332.54,300.76,332.56,300.7,332.56z"/>
			<path class="st10" d="M321.05,332.56c-0.05,0-0.11-0.02-0.15-0.06l-20.34-20.34c-0.08-0.08-0.08-0.22,0-0.3s0.22-0.08,0.3,0
				l20.34,20.34c0.08,0.08,0.08,0.22,0,0.3C321.16,332.54,321.1,332.56,321.05,332.56z"/>
			<path class="st10" d="M316.38,335.68c-0.08,0-0.16-0.05-0.2-0.13l-11.01-26.58c-0.05-0.11,0.01-0.24,0.12-0.28
				c0.11-0.05,0.24,0.01,0.28,0.12l11.01,26.58c0.05,0.11-0.01,0.24-0.12,0.28C316.44,335.67,316.41,335.68,316.38,335.68z"/>
			<path class="st10" d="M297.59,327.89c-0.08,0-0.16-0.05-0.2-0.13c-0.05-0.11,0.01-0.24,0.12-0.28l26.58-11.01
				c0.11-0.05,0.24,0.01,0.28,0.12c0.05,0.11-0.01,0.24-0.12,0.28l-26.58,11.01C297.64,327.89,297.61,327.89,297.59,327.89z"/>
			<path class="st10" d="M305.37,335.68c-0.03,0-0.06-0.01-0.08-0.02c-0.11-0.05-0.16-0.17-0.12-0.28l11.01-26.58
				c0.05-0.11,0.17-0.16,0.28-0.12c0.11,0.05,0.16,0.17,0.12,0.28l-11.01,26.58C305.53,335.63,305.45,335.68,305.37,335.68z"/>
			<path class="st10" d="M324.17,327.89c-0.03,0-0.06-0.01-0.08-0.02l-26.58-11.01c-0.11-0.05-0.16-0.17-0.12-0.28
				c0.05-0.11,0.17-0.16,0.28-0.12l26.58,11.01c0.11,0.05,0.16,0.17,0.12,0.28C324.33,327.84,324.25,327.89,324.17,327.89z"/>
			<path class="st10" d="M313.68,336.49c-0.1,0-0.19-0.07-0.21-0.17l-5.61-28.22c-0.02-0.12,0.05-0.23,0.17-0.25
				c0.12-0.02,0.23,0.05,0.25,0.17l5.61,28.22c0.02,0.12-0.05,0.23-0.17,0.25C313.71,336.49,313.7,336.49,313.68,336.49z"/>
			<path class="st10" d="M296.77,325.19c-0.1,0-0.19-0.07-0.21-0.17c-0.02-0.12,0.05-0.23,0.17-0.25l28.22-5.61
				c0.12-0.02,0.23,0.05,0.25,0.17c0.02,0.12-0.05,0.23-0.17,0.25l-28.22,5.61C296.79,325.19,296.78,325.19,296.77,325.19z"/>
			<path class="st10" d="M302.88,334.35c-0.04,0-0.08-0.01-0.12-0.04c-0.1-0.07-0.13-0.2-0.06-0.3l15.98-23.92
				c0.07-0.1,0.2-0.12,0.3-0.06c0.1,0.07,0.13,0.2,0.06,0.3l-15.98,23.92C303.02,334.31,302.95,334.35,302.88,334.35z"/>
			<path class="st10" d="M322.84,330.38c-0.04,0-0.08-0.01-0.12-0.04l-23.92-15.98c-0.1-0.07-0.13-0.2-0.06-0.3
				c0.07-0.1,0.2-0.13,0.3-0.06l23.92,15.98c0.1,0.07,0.13,0.2,0.06,0.3C322.97,330.34,322.91,330.38,322.84,330.38z"/>
			<path class="st10" d="M318.87,334.35c-0.07,0-0.14-0.03-0.18-0.1l-15.98-23.92c-0.07-0.1-0.04-0.23,0.06-0.3
				c0.1-0.07,0.23-0.04,0.3,0.06l15.98,23.92c0.07,0.1,0.04,0.23-0.06,0.3C318.95,334.34,318.91,334.35,318.87,334.35z"/>
			<path class="st10" d="M298.91,330.38c-0.07,0-0.14-0.03-0.18-0.1c-0.07-0.1-0.04-0.23,0.06-0.3L322.72,314
				c0.1-0.07,0.23-0.04,0.3,0.06c0.07,0.1,0.04,0.23-0.06,0.3l-23.92,15.98C299,330.37,298.96,330.38,298.91,330.38z"/>
			<path class="st10" d="M308.07,336.49c-0.01,0-0.03,0-0.04,0c-0.12-0.02-0.19-0.14-0.17-0.25l5.61-28.22
				c0.02-0.12,0.14-0.19,0.25-0.17c0.12,0.02,0.19,0.14,0.17,0.25l-5.61,28.22C308.26,336.42,308.17,336.49,308.07,336.49z"/>
			<path class="st10" d="M324.99,325.19c-0.01,0-0.03,0-0.04,0l-28.22-5.61c-0.12-0.02-0.19-0.14-0.17-0.25
				c0.02-0.12,0.14-0.19,0.25-0.17l28.22,5.61c0.12,0.02,0.19,0.14,0.17,0.25C325.18,325.12,325.09,325.19,324.99,325.19z"/>
		</g>
		<rect x="261.72" y="207.58" class="st10" width="3.39" height="39.33"/>
		
			<rect x="261.72" y="207.58" transform="matrix(-1.836970e-16 1 -1 -1.836970e-16 490.6609 -36.1668)" class="st10" width="3.39" height="39.33"/>
		
			<rect x="261.72" y="207.58" transform="matrix(0.7071 0.7071 -0.7071 0.7071 237.8401 -119.7026)" class="st10" width="3.39" height="39.33"/>
		
			<rect x="261.72" y="207.58" transform="matrix(-0.7071 0.7071 -0.7071 -0.7071 610.3635 201.6733)" class="st10" width="3.39" height="39.33"/>
		<path class="st10" d="M453.26,239.36c13.11,0,23.73-12.11,23.73-12.11s-10.62-12.11-23.73-12.11s-23.73,12.11-23.73,12.11
			S440.16,239.36,453.26,239.36z"/>
		
			<ellipse transform="matrix(0.9732 -0.2298 0.2298 0.9732 -40.0855 110.2171)" class="st6" cx="453.26" cy="227.25" rx="9.11" ry="9.11"/>
		<polygon class="st6" points="382.07,298.44 382.07,298.44 379.66,310.05 372.99,300.25 375.2,311.89 365.29,305.39 371.79,315.3 
			360.14,313.09 369.95,319.76 358.34,322.17 369.95,324.58 360.14,331.25 371.79,329.04 365.29,338.95 375.2,332.45 372.99,344.1 
			379.66,334.29 382.07,345.9 382.07,345.9 		"/>
		<polygon class="st10" points="358.34,250.98 334.61,250.98 334.61,239.11 		"/>
		<polygon class="st10" points="358.34,239.11 334.61,239.11 334.61,227.25 		"/>
		<polygon class="st10" points="382.07,250.98 358.34,250.98 358.34,239.11 		"/>
		<polygon class="st10" points="382.07,239.11 358.34,239.11 358.34,227.25 		"/>
		<polygon class="st10" points="358.34,227 334.61,227 334.61,215.13 		"/>
		<polygon class="st10" points="358.34,215.13 334.61,215.13 334.61,203.27 		"/>
		<polygon class="st10" points="382.07,227 358.34,227 358.34,215.13 		"/>
		<polygon class="st10" points="382.07,215.13 358.34,215.13 358.34,203.27 		"/>
		<rect x="287.14" y="203.52" class="st11" width="47.46" height="47.46"/>
	</g>
	<path class="st12" d="M500.67,401.42l-17.8,22.67c-19.85,4.21-13.23-11.12-13.23-11.12l13.72-16.3L500.67,401.42z"/>
	<path class="st6" d="M489.15,426.1l-49.29,12.88c-2.76-4.21-2.15-10.68,3.92-13.19c0.17-0.07,0.34-0.14,0.51-0.21
		c17.21-6.81,25.34-12.61,25.34-12.61s1.57,7.88,9.23,8.32c7.66,0.43,7.59-5.63,10.22,4.63L489.15,426.1z"/>
	<polygon class="st2" points="489.15,426.1 490.84,431.67 485.53,431.95 479.67,434.59 472.56,435.21 466.67,437.99 459.73,438.5 
		452.74,441.63 446.89,441.92 441.34,444.61 439.87,438.98 	"/>
	<path class="st10" d="M463.84,423.37c-0.01,0-0.03,0-0.04,0c-3.45-0.62-4.91-4.21-4.97-4.37c-0.04-0.11,0.01-0.24,0.12-0.28
		c0.11-0.04,0.24,0.01,0.28,0.12c0.01,0.04,1.44,3.52,4.65,4.1c0.12,0.02,0.19,0.13,0.17,0.25
		C464.03,423.3,463.94,423.37,463.84,423.37z"/>
	<path class="st10" d="M458.96,425.33c-0.01,0-0.02,0-0.03,0c-3.8-0.54-4.7-4.11-4.71-4.15c-0.03-0.12,0.04-0.23,0.16-0.26
		c0.12-0.03,0.23,0.04,0.26,0.16c0.03,0.14,0.85,3.33,4.35,3.82c0.12,0.02,0.2,0.13,0.18,0.24
		C459.16,425.26,459.07,425.33,458.96,425.33z"/>
	<path class="st10" d="M454.43,427.32c-0.01,0-0.01,0-0.02,0c-3.89-0.4-4.56-4.15-4.56-4.19c-0.02-0.12,0.06-0.23,0.18-0.25
		c0.12-0.02,0.23,0.06,0.25,0.18c0.02,0.14,0.62,3.46,4.18,3.83c0.12,0.01,0.2,0.12,0.19,0.24
		C454.63,427.24,454.54,427.32,454.43,427.32z"/>
	<path class="st10" d="M459.03,419.13c-0.01,0-0.02,0-0.04,0c-0.08-0.01-0.15-0.07-0.17-0.15c-0.08-0.26-1.96-6.46-0.34-8.11
		c0.41-0.42,1-0.52,1.75-0.31c0.8,0.23,1.32,0.7,1.55,1.38c0.83,2.45-2.44,6.9-2.57,7.09C459.16,419.1,459.1,419.13,459.03,419.13z
		 M459.53,410.89c-0.3,0-0.55,0.1-0.74,0.29c-1.11,1.13-0.24,5.28,0.32,7.25c0.75-1.11,2.89-4.48,2.26-6.34
		c-0.19-0.55-0.6-0.91-1.26-1.11C459.9,410.92,459.7,410.89,459.53,410.89z"/>
	<path class="st10" d="M459.03,419.13c-0.03,0-0.05-0.01-0.08-0.02c-0.24-0.1-5.85-2.39-6.39-5.03c-0.15-0.72,0.09-1.4,0.7-2.02
		c0.59-0.59,1.2-0.8,1.83-0.63c2.43,0.67,4.08,7.15,4.15,7.43c0.02,0.08-0.01,0.16-0.07,0.21
		C459.13,419.12,459.08,419.13,459.03,419.13z M454.68,411.81c-0.37,0-0.73,0.19-1.11,0.56c-0.51,0.52-0.7,1.05-0.58,1.63
		c0.42,2.03,4.42,3.96,5.72,4.54c-0.41-1.46-1.87-6.18-3.73-6.69C454.88,411.83,454.78,411.81,454.68,411.81z"/>
	<path class="st12" d="M552.98,361.7l17.6,8.57c-4.28,19.84-13.97,11.59-13.97,11.59l-15.25-6.64L552.98,361.7z"/>
	<path class="st6" d="M576.56,369.44l-8.42,50.24c-4.97,0.8-10.62-2.41-10.43-8.98c0.01-0.18,0.01-0.37,0.02-0.55
		c0.83-18.49-1.13-28.28-1.13-28.28s7.84,1.79,11.37-5.02c3.53-6.81-2.03-9.23,8.41-7.43L576.56,369.44z"/>
	<polygon class="st2" points="576.56,369.44 582.34,370.18 580.42,375.15 580.44,381.57 578.09,388.31 578.21,394.82 575.83,401.37 
		575.83,409.02 573.7,414.48 573.89,420.65 568.14,419.68 	"/>
	<path class="st10" d="M557.84,394.2c-0.09,0-0.15,0-0.17,0c-0.12-0.01-0.21-0.11-0.21-0.22c0.01-0.12,0.11-0.21,0.22-0.21
		c0.04,0,3.8,0.13,5.65-2.56c0.07-0.1,0.2-0.12,0.3-0.06c0.1,0.07,0.12,0.2,0.06,0.3C561.92,394.04,558.63,394.2,557.84,394.2z"/>
	<path class="st10" d="M558.57,399.35c-0.48,0-0.78-0.05-0.79-0.06c-0.12-0.02-0.19-0.13-0.17-0.25c0.02-0.12,0.13-0.19,0.25-0.17
		c0.14,0.03,3.38,0.59,5.27-2.4c0.06-0.1,0.2-0.13,0.3-0.07c0.1,0.06,0.13,0.2,0.07,0.3C562.03,399.02,559.76,399.35,558.57,399.35z
		"/>
	<path class="st10" d="M558.95,404.21c-0.7,0-1.17-0.12-1.19-0.12c-0.11-0.03-0.18-0.15-0.15-0.26c0.03-0.11,0.15-0.18,0.26-0.15
		c0.14,0.04,3.41,0.85,5.21-2.25c0.06-0.1,0.19-0.14,0.29-0.08c0.1,0.06,0.14,0.19,0.08,0.29
		C562.2,403.82,560.21,404.21,558.95,404.21z"/>
	<path class="st10" d="M557.69,394.2c-0.01,0-0.02,0-0.03,0c-0.27-0.03-6.7-0.85-7.54-3.01c-0.21-0.55-0.07-1.13,0.44-1.72
		c0.54-0.63,1.18-0.92,1.9-0.85c2.57,0.25,5.3,5.05,5.42,5.25c0.04,0.07,0.04,0.16-0.01,0.23
		C557.82,394.16,557.76,394.2,557.69,394.2z M552.24,389.04c-0.51,0-0.95,0.23-1.36,0.7c-0.4,0.47-0.52,0.89-0.36,1.28
		c0.57,1.48,4.72,2.38,6.75,2.68c-0.7-1.14-2.9-4.47-4.86-4.66C552.36,389.05,552.3,389.04,552.24,389.04z"/>
	<path class="st10" d="M551.17,397.96c-0.19,0-0.37-0.02-0.54-0.06c-0.72-0.16-1.24-0.65-1.55-1.47c-0.3-0.78-0.24-1.43,0.17-1.93
		c1.6-1.94,8.19-0.79,8.47-0.74c0.08,0.01,0.14,0.07,0.17,0.15c0.02,0.08,0,0.16-0.06,0.22
		C557.66,394.3,553.82,397.96,551.17,397.96z M553.38,393.82c-1.6,0-3.18,0.22-3.8,0.97c-0.31,0.38-0.35,0.87-0.1,1.5
		c0.26,0.68,0.67,1.07,1.25,1.2c2.03,0.45,5.43-2.41,6.49-3.36C556.48,394.02,554.92,393.82,553.38,393.82z"/>
	<path class="st10" d="M521.86,268.84c-7.91,6.12-15.82,12.24-23.74,18.34c-7.6,5.85-15.98,11.27-22.93,17.89
		c-12.35,11.76-11.94,26.29-0.44,38.44c0,0,61.12,65.13,61.12,65.13l26.37-46.92l-53.91-37.29l21.6-13.81l-63.9,91.07l45.18,31.78
		c0,0,32.56-82.61,49.71-99.83s18.11-33.19,11.69-54.03C572.62,279.61,521.87,268.84,521.86,268.84z"/>
	<path class="st10" d="M489.1,426.14c-0.1,0-0.18-0.06-0.21-0.16c-0.99-3.88-1.6-5.38-2.32-5.76c-0.47-0.25-1.06-0.02-1.96,0.31
		c-1.27,0.48-3.01,1.13-5.75,0.97c-4.05-0.23-6.4-2.53-7.66-4.42c-1.36-2.04-1.76-3.99-1.78-4.07c-0.02-0.12,0.05-0.23,0.17-0.25
		c0.12-0.02,0.23,0.05,0.25,0.17c0,0.02,0.4,1.96,1.72,3.93c1.75,2.62,4.21,4.04,7.31,4.21c2.65,0.15,4.34-0.48,5.58-0.95
		c0.97-0.36,1.67-0.62,2.31-0.29c0.86,0.45,1.48,1.92,2.54,6.03c0.03,0.12-0.04,0.23-0.15,0.26
		C489.13,426.14,489.12,426.14,489.1,426.14z"/>
	<path class="st10" d="M558.89,382.3c-1.35,0-2.28-0.21-2.34-0.22c-0.12-0.03-0.19-0.14-0.16-0.26c0.03-0.12,0.14-0.19,0.26-0.16
		c0.02,0,1.96,0.44,4.29,0.04c3.11-0.53,5.41-2.19,6.84-4.95c1.22-2.35,1.33-4.16,1.42-5.47c0.07-1.03,0.11-1.78,0.68-2.22
		c0.76-0.6,2.35-0.57,6.54,0.16c0.12,0.02,0.2,0.13,0.18,0.25c-0.02,0.12-0.13,0.2-0.25,0.18c-3.94-0.68-5.57-0.74-6.2-0.24
		c-0.42,0.33-0.46,0.96-0.52,1.91c-0.09,1.36-0.2,3.21-1.47,5.64c-1.86,3.6-4.92,4.8-7.16,5.18
		C560.24,382.25,559.52,382.3,558.89,382.3z"/>
	<path class="st6" d="M529.93,310.84c-0.12,0-0.21-0.09-0.21-0.21l-0.1-10.53c0-0.12,0.09-0.22,0.21-0.22c0,0,0,0,0,0
		c0.12,0,0.21,0.09,0.21,0.21l0.1,10.53C530.15,310.74,530.05,310.84,529.93,310.84C529.94,310.84,529.93,310.84,529.93,310.84z"/>
	<path class="st6" d="M508.34,324.65h-6.46c-0.12,0-0.21-0.1-0.21-0.21s0.1-0.21,0.21-0.21h5.76l-5.88-4.01
		c-0.1-0.07-0.12-0.2-0.06-0.3c0.07-0.1,0.2-0.12,0.3-0.06l6.46,4.4c0.08,0.05,0.11,0.15,0.08,0.24
		C508.51,324.59,508.43,324.65,508.34,324.65z"/>
	<path class="st6" d="M553.17,165.16c0,0,5.52-9.54,16.74-5.16c7.57,2.96,11.83,19.51,24.02,22.13c12.19,2.61,24.87-0.76,26.99-2.75
		c-0.39,1.81-2.53,8.81-10.85,9.12c5.15,1.77,15.13-4.89,16.71-6.92c0.4,1.31-4.64,11.54-12.73,13.99s-11.98,0.9-14.72-0.39
		c4.65,3.43,16.43,5.28,25.23-3.51c0.31,1.74-3,13.76-23.98,16.25c1.75,0.9,5.06,0.76,5.06,0.76s-2.97,3.42-10.52,3.68
		c-7.55,0.26-21.94-2.87-28.2-12.29C560.67,190.63,553.17,165.16,553.17,165.16z"/>
	<path class="st12" d="M545.64,198.4c0,0,1.7,8.03-1.7,15.42c-5.01,4.95-6.26,7.52-6.26,7.52l35.91-0.96c0,0-4.26-3.88-9.34-7.4
		c-3.92-5.35-6-13.74-3.95-21.91C556.13,192.16,545.64,198.4,545.64,198.4z"/>
	<path class="st10" d="M551.86,166.47l0.05-0.14c0.27-0.68,0.87-1.16,1.59-1.29c1.14-0.2,2.89-0.26,4.27,0.74
		c1.3,0.94,1.88,2.09,2.14,2.88c0.18,0.54,0.12,1.14-0.15,1.64v0c-0.6,1.12-2.06,1.45-3.09,0.69c-0.61-0.45-1.28-0.9-1.89-1.2
		c-0.47-0.23-0.98-0.4-1.48-0.52C552.06,168.97,551.39,167.65,551.86,166.47z"/>
	<path class="st12" d="M550.9,169.94c-4.9-0.83-17.36,2.2-16.36,17.3c1.1,16.45,5.92,16.61,12.34,14.82
		c8.42-2.35,17.67-8.14,16.36-18.23C561.93,173.73,550.9,169.94,550.9,169.94z"/>
	<path class="st6" d="M541.63,176c-1.44,2.48-4.52,5.5-6.9,6.29c-2.5-3.49,0.05-8.05,2.52-10.77c3.66-4.03,9.46-5.52,14.74-4.78
		c5.85,0.82,10.68,4.29,13,9.63c1.58,3.63,2.71,8.65,1.47,12.41c-1.2,3.63-2.45,7.01-6.95,8.2c-1.44-1.41-2.07-5.26-2.76-8.49
		c-0.52-2.42-0.59-3.01-2.15-4.92c-0.23-0.28-0.47-0.57-0.81-0.72c-0.31-0.14-0.65-0.14-0.99-0.15c-2.36-0.04-4.77-0.32-6.89-1.38
		C543.8,180.25,542.02,178.32,541.63,176C541.64,176,541.63,176,541.63,176z"/>
	<path class="st10" d="M543.86,182.99c-0.04-0.61,2.69-1.58,3.98-1.41c1.29,0.17,2.91,1.32,2.79,1.92c-0.12,0.6-2.27-0.59-3.34-0.62
		C546.23,182.86,543.91,183.81,543.86,182.99z"/>
	<path class="st10" d="M537.85,186.29c-0.1,1.03-0.65,1.82-1.22,1.76s-0.95-0.94-0.85-1.97s0.65-1.82,1.22-1.76
		S537.96,185.26,537.85,186.29z"/>
	<path class="st10" d="M547.39,187.23c-0.1,1.03-0.65,1.82-1.22,1.76c-0.57-0.06-0.95-0.94-0.85-1.97c0.1-1.03,0.65-1.82,1.22-1.76
		S547.49,186.2,547.39,187.23z"/>
	<path class="st10" d="M540.25,192C540.24,192,540.24,192,540.25,192c-0.54-0.02-1.58-0.32-1.7-1.38c-0.05-0.42,0.19-0.82,0.43-1.25
		c0.1-0.18,0.21-0.37,0.31-0.56c0.39-0.83,0.7-2.41,0.7-2.42c0.02-0.12,0.13-0.19,0.25-0.17c0.12,0.02,0.19,0.13,0.17,0.25
		c-0.01,0.07-0.32,1.65-0.74,2.53c-0.1,0.21-0.21,0.41-0.32,0.59c-0.22,0.38-0.41,0.71-0.38,0.98c0.11,0.94,1.23,0.99,1.28,0.99
		c0.12,0,0.21,0.1,0.21,0.22C540.46,191.91,540.36,192,540.25,192z"/>
	<path class="st13" d="M556.74,181.3"/>
	
		<ellipse transform="matrix(0.0292 -0.9996 0.9996 0.0292 355.0104 739.2026)" class="st12" cx="558.07" cy="186.83" rx="6.01" ry="6.01"/>
	<path class="st10" d="M556.07,186.9c-0.06,0-0.12-0.03-0.16-0.08c-0.08-0.09-0.07-0.23,0.02-0.3c0.03-0.02,2.74-2.28,5.42-0.09
		c0.09,0.08,0.11,0.21,0.03,0.3c-0.08,0.09-0.21,0.11-0.3,0.03c-2.4-1.96-4.84,0.07-4.87,0.09
		C556.17,186.88,556.12,186.9,556.07,186.9z"/>
	<path class="st10" d="M558.18,188.99c-0.09,0-0.17-0.06-0.2-0.15c-0.04-0.11,0.02-0.23,0.14-0.27c0.08-0.03,1.92-0.68,1.3-2.73
		c-0.03-0.11,0.03-0.23,0.14-0.27c0.11-0.03,0.23,0.03,0.27,0.14c0.74,2.46-1.56,3.26-1.58,3.26
		C558.22,188.99,558.2,188.99,558.18,188.99z"/>
	<path class="st10" d="M538.77,195.21c1.95,2.5,5.77,1.64,6.5-1.63c0.07-0.3-0.23-0.53-0.47-0.34c-1.78,1.41-3.57,1.48-5.81,1.42
		C538.69,194.65,538.58,194.97,538.77,195.21z"/>
	<path class="st10" d="M535.13,180.84c-0.04,0-0.07,0.01-0.11,0.01c-0.11,0.46-0.21,0.94-0.29,1.44c0.32-0.07,0.61-0.11,0.85-0.1
		c1.06,0.04,3.32,1.16,3.42,0.34C539.08,181.92,536.43,180.76,535.13,180.84z"/>
	<path class="st10" d="M545.9,206.52c6.06-2.2,8.02-7.26,8.02-7.26c-2.24,1.22-4.67,2.15-7.03,2.81c-0.28,0.08-0.56,0.15-0.84,0.22
		v0C546.09,203.51,546.07,204.95,545.9,206.52z"/>
	<path class="st7" d="M615.03,257.8c0,0-16.3-29.6-16.3-29.6c-6.33-11.51-18.43-18.65-31.56-18.65h-4.97l-0.09,0.11
		c-4.31,5.36-12.49,5.3-16.72-0.11l-6.62,0.2c-14.04,0.42-27.46,5.83-37.86,15.27l-17.61,15.98l13.97,30.07
		c2.14,4.61,6.23,7.57,10.75,8.49l13.85-10.71l43.52,9.24c0,0,1.02,4.8,1.02,4.8c0,0,35.29,2.4,44.78-3.11
		C619.2,275.1,618.8,264.92,615.03,257.8z M577.9,257.64l1.5-8.9l7.04,10.34L577.9,257.64z"/>
	<path class="st10" d="M513.17,254.9c-0.1,0-0.19-0.07-0.21-0.17l-1.38-6.81c-0.02-0.12,0.05-0.23,0.17-0.25
		c0.12-0.02,0.23,0.05,0.25,0.17l1.38,6.81c0.02,0.12-0.05,0.23-0.17,0.25C513.2,254.89,513.18,254.9,513.17,254.9z"/>
	<path class="st10" d="M586.44,259.29c-0.07,0-0.14-0.03-0.18-0.09l-9.97-14.64c-0.07-0.1-0.04-0.23,0.06-0.3
		c0.1-0.07,0.23-0.04,0.3,0.06l9.97,14.64c0.07,0.1,0.04,0.23-0.06,0.3C586.52,259.28,586.48,259.29,586.44,259.29z"/>
	<path class="st10" d="M521.86,269.05c-0.11,0-0.2-0.08-0.21-0.19l-2.61-22.54c-0.01-0.12,0.07-0.22,0.19-0.24
		c0.12-0.01,0.22,0.07,0.24,0.19l2.61,22.54c0.01,0.12-0.07,0.22-0.19,0.24C521.88,269.05,521.87,269.05,521.86,269.05z"/>
	
		<rect x="522.98" y="156.96" transform="matrix(0.7071 -0.7071 0.7071 0.7071 -34.2217 460.5604)" class="st5" width="31.7" height="229.27"/>
	<path class="st10" d="M625.5,347.26c-0.05,0-0.11-0.02-0.15-0.06L463.23,185.08c-0.08-0.08-0.08-0.22,0-0.3
		c0.08-0.08,0.22-0.08,0.3,0l162.12,162.12c0.08,0.08,0.08,0.22,0,0.3C625.61,347.24,625.55,347.26,625.5,347.26z"/>
	<path class="st10" d="M614.29,358.47c-0.05,0-0.11-0.02-0.15-0.06L452.02,196.29c-0.08-0.08-0.08-0.22,0-0.3
		c0.08-0.08,0.22-0.08,0.3,0L614.44,358.1c0.08,0.08,0.08,0.22,0,0.3C614.4,358.45,614.34,358.47,614.29,358.47z"/>
	<path class="st12" d="M561.74,261.28c0,0-14.73-2.01-20.41,1.38c-5.68,3.39-13.72,9.66-9.67,13.21c2.08,1.82,7.08-4.06,7.08-4.06
		s-5.47,4.43-3.39,6.42c3.47,3.32,7.51-4.13,7.51-4.13s-5.07,5.46-2.49,7.01c4,2.4,7.82-4.35,7.82-4.35s-6.35,6.42-2.14,6.94
		c4.21,0.52,5.06-6.08,7.89-5.9c2.83,0.18,10.96-1.55,10.96-1.55L561.74,261.28z"/>
	<path class="st10" d="M553.59,217.07c-4.12,0-7.24-1.94-9.14-3.59c-2.1-1.82-3.18-3.63-3.23-3.71c-0.06-0.1-0.03-0.23,0.08-0.29
		c0.1-0.06,0.23-0.03,0.29,0.08c0.04,0.07,4.28,7.09,11.99,7.09c0.08,0,0.16,0,0.25,0c7.87-0.15,11.56-7.12,11.6-7.19
		c0.05-0.11,0.18-0.15,0.29-0.09c0.11,0.05,0.15,0.18,0.09,0.29c-0.04,0.07-0.96,1.84-2.9,3.65c-1.79,1.68-4.82,3.69-9.07,3.77
		C553.76,217.07,553.68,217.07,553.59,217.07z"/>
	<path class="st6" d="M493.13,363.3c-0.04,0-0.09-0.01-0.12-0.04c-0.1-0.07-0.12-0.2-0.05-0.3l23.23-33.11
		c0.07-0.1,0.2-0.12,0.3-0.05c0.1,0.07,0.12,0.2,0.05,0.3l-23.23,33.11C493.26,363.27,493.19,363.3,493.13,363.3z"/>
	<path class="st6" d="M526.02,398.36c-0.03,0-0.06-0.01-0.09-0.02c-0.11-0.05-0.15-0.18-0.1-0.29L548.14,352
		c0.05-0.11,0.18-0.15,0.29-0.1c0.11,0.05,0.15,0.18,0.1,0.29l-22.31,46.05C526.18,398.32,526.1,398.36,526.02,398.36z"/>
	<path class="st10" d="M536.25,274.51c-0.05,0-0.11-0.02-0.15-0.06c-0.09-0.08-0.09-0.22-0.01-0.3l3.13-3.28
		c0.08-0.09,0.22-0.09,0.3-0.01c0.09,0.08,0.09,0.22,0.01,0.3l-3.13,3.28C536.36,274.49,536.31,274.51,536.25,274.51z"/>
	<path class="st10" d="M540.44,277.59c-0.04,0-0.08-0.01-0.11-0.03c-0.1-0.06-0.13-0.19-0.07-0.3c0.07-0.11,1.68-2.72,2.47-3.33
		c0.09-0.07,0.23-0.06,0.3,0.04c0.07,0.09,0.06,0.23-0.04,0.3c-0.73,0.57-2.35,3.19-2.37,3.22
		C540.58,277.56,540.51,277.59,540.44,277.59z"/>
	<path class="st10" d="M545.51,280.3c-0.03,0-0.06-0.01-0.09-0.02c-0.11-0.05-0.15-0.18-0.1-0.29c0.05-0.1,1.2-2.48,2.28-3.34
		c0.09-0.07,0.23-0.06,0.3,0.03c0.07,0.09,0.06,0.23-0.03,0.3c-1.01,0.8-2.15,3.16-2.16,3.19
		C545.66,280.26,545.59,280.3,545.51,280.3z"/>
	
		<rect x="608.37" y="350.85" transform="matrix(0.7071 -0.7071 0.7071 0.7071 -69.5909 545.9491)" class="st10" width="31.7" height="12.25"/>
	<path class="st6" d="M639.76,350.1l-22.42,22.42l3.51,3.51c6.19,6.19,16.23,6.19,22.42,0l0,0c6.19-6.19,6.19-16.23,0-22.42
		L639.76,350.1z"/>
	<polygon class="st6" points="433.85,165.5 446.57,201.74 468.99,179.32 	"/>
	<g>
		<polygon class="st7" points="444.1,169.53 433.85,165.5 437.56,176.07 		"/>
	</g>
	<polygon class="st10" points="620.89,376.06 617.34,372.52 639.76,350.1 	"/>
	<path class="st6" d="M617.34,372.73c-0.05,0-0.11-0.02-0.15-0.06c-0.08-0.08-0.08-0.22,0-0.3l22.42-22.42
		c0.08-0.08,0.22-0.08,0.3,0c0.08,0.08,0.08,0.22,0,0.3l-22.42,22.42C617.45,372.71,617.4,372.73,617.34,372.73z"/>
	<g>
		<path class="st12" d="M473.05,241.34c3.41,0.39,10.02-15.8,5.83-17.08S464.36,240.36,473.05,241.34z"/>
		<path class="st12" d="M477.94,242.89c3.12,0.35,9.18-14.47,5.34-15.64C479.44,226.08,469.99,241.99,477.94,242.89z"/>
		<path class="st12" d="M482.56,244.77c3.12,0.35,9.18-14.47,5.34-15.64C484.05,227.96,474.6,243.87,482.56,244.77z"/>
		<path class="st12" d="M486.75,244.72c2.82,0.32,8.29-13.07,4.82-14.12S479.57,243.9,486.75,244.72z"/>
		<path class="st10" d="M475.93,238.31c-0.03,0-0.06-0.01-0.09-0.02c-0.11-0.05-0.16-0.18-0.11-0.28l4.18-9.41
			c0.05-0.11,0.17-0.16,0.28-0.11c0.11,0.05,0.16,0.18,0.11,0.28l-4.18,9.41C476.09,238.27,476.01,238.31,475.93,238.31z"/>
		<path class="st10" d="M480.75,240.26c-0.05,0-0.1-0.02-0.14-0.05c-0.09-0.08-0.1-0.21-0.02-0.3c0.68-0.79,2.88-6.88,3.67-9.16
			c0.04-0.11,0.16-0.17,0.27-0.13c0.11,0.04,0.17,0.16,0.13,0.27c-0.12,0.34-2.88,8.29-3.75,9.3
			C480.87,240.23,480.81,240.26,480.75,240.26z"/>
		<path class="st10" d="M484.88,241.17c-0.12,0-0.21-0.09-0.21-0.21c-0.03-3.32,4.11-9.31,4.28-9.57c0.07-0.1,0.2-0.12,0.3-0.05
			c0.1,0.07,0.12,0.2,0.05,0.3c-0.04,0.06-4.24,6.14-4.21,9.32C485.1,241.07,485,241.17,484.88,241.17
			C484.88,241.17,484.88,241.17,484.88,241.17z"/>
	</g>
	<path class="st7" d="M572.86,283.2c-3.91-0.15-6.46-0.32-6.46-0.32c0,0-1.76-8.33-1.76-8.33L572.86,283.2z"/>
	<path class="st10" d="M566.4,283.09c-0.1,0-0.19-0.07-0.21-0.17l-5.97-28.2c-0.01-0.07,0.01-0.14,0.06-0.19
		c0.05-0.05,0.12-0.07,0.19-0.06l33.02,5.58c0.12,0.02,0.2,0.13,0.18,0.25c-0.02,0.12-0.13,0.19-0.25,0.18l-32.71-5.53l5.9,27.89
		c0.02,0.12-0.05,0.23-0.17,0.25C566.43,283.09,566.41,283.09,566.4,283.09z"/>
	<polygon class="st2" points="161.48,242.8 177.41,238.94 168.41,252.64 181.37,262.7 165.04,264.2 165.26,280.6 153.9,268.78 
		141.21,279.17 143.37,262.91 127.34,259.48 141.4,251.03 134.09,236.36 149.45,242.08 156.37,227.21 	"/>
	
		<ellipse transform="matrix(0.1602 -0.9871 0.9871 0.1602 389.0369 659.5769)" class="st6" cx="582.14" cy="101.16" rx="23.93" ry="23.93"/>
	<g>
		<path class="st0" d="M155.3,421.16c1.33-8.33,4.9-16.3,10.23-22.83c2.67-3.27,5.74-4.39,9.24-6.55
			c4.09-2.52,8.46-11.35,8.46-16.57c0-0.41,19.34,3.44,19.66,4.18c0.55,1.29,0.04,3.49,0.3,5.29c0.6,4.16,3.33,8.16,3.74,12.33
			c0.39,3.96-0.89,8.11-1.86,11.9c-2.33,9.06-5.19,18.52-1.7,27.64c0.73,0.48,1.71,0.39,2.49,0.76c0.49,0.23,0.88,0.57,1.19,1.01
			c0.8,1.13,0.96,2.87,0.73,4.2c-0.17,1.01-0.86,1.43-1.84,1.58c-2,0.31-4.17,0.03-6.14-0.31c-0.07-0.01-0.13-0.04-0.18-0.07
			c-0.04,0.02-0.08,0.04-0.13,0.04c-2.66,0.35-5.32,0.45-8,0.21c-1.03-0.1-3.79,0-4.37-1.01c-0.18-0.32-24.06,2.34-27.36,0.8
			C153.19,440.68,154.39,426.81,155.3,421.16z"/>
		<g>
			<path class="st0" d="M133.91,380.87c2.45,0.72,5.07-1.42,7.27-2.16c4.18-1.39,9.73-1.31,11.8,3.37c1.57,3.56,0.5,7.88-0.01,11.57
				c-0.53,3.88-1,7.77-1.41,11.67c-0.73,7.05-1.89,14.6-1.16,21.69c0.3,2.91,1.07,5.83,2.61,8.34c0.88,1.43,2.42,3.83,4.26,3.96
				c0.29,0.02,0.51-0.06,0.66-0.32c0.09-0.14,0.17-0.28,0.26-0.42c0.1-0.17,0.09-0.45-0.04-0.61c-0.09-0.1-0.18-0.21-0.27-0.32
				c-0.1-0.12-0.23-0.18-0.36-0.21c-2.8-3.33-2.99-7.76-2.77-11.93c0.25-4.6,0.95-9.19,2-13.67c1.9-8.15,5.82-15.8,7.02-24.1
				c0.89-6.11,0.56-13.86-2.5-19.41c-2.53-4.61-9.03-5.84-13.82-5.97c-3.09-0.08-6.42,0.19-9.43,0.99
				c-2.57,0.69-4.02,2.37-5.21,4.68C131.14,371.29,128.65,379.33,133.91,380.87z"/>
		</g>
		<g>
			<path class="st10" d="M199.06,352.05c-1.92,2.76-4.86,5.81-4.81,9.37c-0.14,0.15,7.83,1.2,8.5,0.32
				C203.42,360.87,199.33,351.66,199.06,352.05z"/>
			<g>
				<path class="st0" d="M193.27,351.86c-1.92,2.75-4.17,6.67-4.12,10.23c-0.14,0.15,7.46,0.65,8.14-0.24
					C197.95,360.98,193.54,351.47,193.27,351.86z"/>
			</g>
			<path class="st0" d="M211.47,375c-0.52,2.69-2.58,3.84-5.11,4.15c-6.88,0.84-4.37,12.22-5.42,13.03
				c-4.92-5.63-16.12,0.88-19.72-5.63c1.52,0.01,0.95-19.9,7.68-25.27c2.13-1.7,4.41-2.97,7.16-3.04c5.8-0.15,10.35,3.96,12.54,9.05
				c0.01,0.03,0.01,0.05,0.02,0.08c1.75,0.74,3.41,2.07,4.06,3.9C213.22,372.79,212.5,374.01,211.47,375z"/>
			<path class="st10" d="M210.8,368.51c0.65-0.33,1.48,0.02,1.85,0.78c0.38,0.75,0.63,2.03-0.02,2.36
				c-0.65,0.32-1.95-0.43-2.33-1.18C209.93,369.7,210.15,368.83,210.8,368.51z"/>
			<path class="st10" d="M203.02,363.32c0.92,0,1.66,0.74,1.66,1.66c0,0.92-0.74,1.66-1.66,1.66c-0.92,0-1.66-0.74-1.66-1.66
				C201.36,364.06,202.1,363.32,203.02,363.32z"/>
		</g>
		<path class="st10" d="M195.88,412.72c0.03-0.77,1.24-0.78,1.21,0c-0.44,10.31,0.09,20.6,1.62,30.81c0.11,0.76-1.05,1.09-1.16,0.32
			C196,433.54,195.44,423.14,195.88,412.72z"/>
		<path class="st10" d="M172.98,419.31c4.91,3.84,9.39,9.03,7.87,15.65c2.55,0.8,5.33,0.66,7.54,2.31c0.59-0.47,1.28-0.83,2.05-1
			c-1.1-5.6-1.11-11.11-2.04-16.74c-0.12-0.76,1.04-1.09,1.16-0.32c0.93,5.66,0.93,11.22,2.05,16.84c0.07,0.34-0.13,0.58-0.37,0.69
			c0.07,0.28-0.04,0.6-0.41,0.67c-1.93,0.38-3.29,2.1-3.21,4.07c0.03,0.78-1.17,0.77-1.21,0c-0.05-1.24,0.37-2.43,1.1-3.36
			c-2.14-1.55-5.11-1.25-7.52-2.16c-0.36-0.14-0.46-0.5-0.38-0.79c-0.01-0.08-0.01-0.17,0.01-0.27c1.59-6.33-2.92-11.14-7.51-14.73
			C171.52,419.69,172.38,418.84,172.98,419.31z"/>
	</g>
	<line class="st14" x1="130.51" y1="444.63" x2="694.64" y2="444.63"/>
	<g>
		<path id="XMLID_3_" class="st6" d="M390.36,152.05v-39.03c0-0.44,0.35-0.79,0.79-0.79h28.88c0.44,0,0.79,0.35,0.79,0.79v39.03
			c0,0.44-0.35,0.79-0.79,0.79h-28.88C390.71,152.84,390.36,152.49,390.36,152.05z"/>
		<path class="st15" d="M390.36,123.88c4.78,0,8.66,3.87,8.66,8.66c0,4.78-3.87,8.66-8.66,8.66"/>
	</g>
	<path id="XMLID_8_" class="st6" d="M295.43,247.61v-39.03c0-0.44,0.35-0.79,0.79-0.79h28.88c0.44,0,0.79,0.35,0.79,0.79v39.03
		c0,0.44-0.35,0.79-0.79,0.79h-28.88C295.78,248.4,295.43,248.04,295.43,247.61z"/>
	<path id="XMLID_7_" class="st15" d="M300.58,248.19V208c0-0.11,0.1-0.21,0.21-0.21h1.68c0.11,0,0.21,0.1,0.21,0.21v40.2
		c0,0.11-0.1,0.21-0.21,0.21h-1.68C300.67,248.4,300.58,248.3,300.58,248.19z"/>
	<g>
		<path id="XMLID_2_" class="st6" d="M343.11,199.12v-39.03c0-0.44,0.35-0.79,0.79-0.79h28.88c0.44,0,0.79,0.35,0.79,0.79v39.03
			c0,0.44-0.35,0.79-0.79,0.79H343.9C343.46,199.91,343.11,199.56,343.11,199.12z"/>
		<g id="XMLID_1_">
			<g>
				<path class="st16" d="M373.32,197.72c-0.04,0.06-0.1,0.12-0.16,0.16"/>
				<path class="st17" d="M372.45,197.99H348c-0.36,0-0.66-0.31-0.66-0.69v-33.35c0-0.38,0.29-0.69,0.66-0.69h24.72"/>
				<path class="st16" d="M373.07,163.31c0.07,0.03,0.13,0.07,0.18,0.13"/>
			</g>
		</g>
		<rect x="345.76" y="161.47" class="st7" width="4.66" height="4.66"/>
	</g>
	<g>
		<path class="st6" d="M395.57,231.31v1.36h-7.88v-1.06l4.46-4.31c1.16-1.13,1.38-1.82,1.38-2.51c0-1.13-0.8-1.82-2.33-1.82
			c-1.17,0-2.13,0.37-2.81,1.19l-1.06-0.92c0.84-1.05,2.3-1.65,4.01-1.65c2.29,0,3.76,1.17,3.76,3.06c0,1.06-0.32,2.02-1.8,3.44
			l-3.35,3.22H395.57z"/>
		<path class="st6" d="M396.81,227.19c0-3.57,1.91-5.61,4.48-5.61c2.55,0,4.46,2.04,4.46,5.61c0,3.57-1.91,5.61-4.46,5.61
			C398.73,232.8,396.81,230.76,396.81,227.19z M404.19,227.19c0-2.81-1.19-4.21-2.89-4.21c-1.72,0-2.92,1.41-2.92,4.21
			c0,2.81,1.19,4.21,2.92,4.21C403,231.41,404.19,229.99,404.19,227.19z"/>
		<path class="st6" d="M414.92,231.31v1.36h-7.88v-1.06l4.46-4.31c1.16-1.13,1.38-1.82,1.38-2.51c0-1.13-0.8-1.82-2.33-1.82
			c-1.17,0-2.13,0.37-2.81,1.19l-1.06-0.92c0.84-1.05,2.3-1.65,4.01-1.65c2.29,0,3.76,1.17,3.76,3.06c0,1.06-0.32,2.02-1.8,3.44
			l-3.35,3.22H414.92z"/>
		<path class="st6" d="M424.27,231.31v1.36h-7.88v-1.06l4.46-4.31c1.16-1.13,1.38-1.82,1.38-2.51c0-1.13-0.8-1.82-2.33-1.82
			c-1.17,0-2.13,0.37-2.81,1.19l-1.06-0.92c0.84-1.05,2.3-1.65,4.01-1.65c2.29,0,3.76,1.17,3.76,3.06c0,1.06-0.32,2.02-1.8,3.44
			l-3.35,3.22H424.27z"/>
	</g>
	<g>
		<path class="st6" d="M389.01,325.4l3.12-2.11c1.34-0.91,2.17-1.62,2.17-2.56c0-1.08-0.91-1.49-1.92-1.49
			c-1.08,0-2.17,0.49-3.14,1.26v-1.41c0.62-0.49,1.92-1.08,3.18-1.08c1.94,0,3.35,1.06,3.35,2.58c0,1.39-0.89,2.28-2.03,2.99
			l-2.6,1.6h4.92v1.26h-7.04L389.01,325.4L389.01,325.4L389.01,325.4z"/>
		<path class="st6" d="M397.95,322.39c0-2.6,2.05-4.39,4.48-4.39c2.41,0,4.46,1.79,4.46,4.39c0,2.62-2.05,4.39-4.46,4.39
			C400,326.77,397.95,324.99,397.95,322.39z M405.46,322.39c0-1.97-1.36-3.24-3.03-3.24c-1.71,0-3.05,1.26-3.05,3.24
			c0,1.99,1.34,3.24,3.05,3.24C404.11,325.62,405.46,324.38,405.46,322.39z"/>
		<path class="st6" d="M408.76,325.4l3.12-2.11c1.34-0.91,2.17-1.62,2.17-2.56c0-1.08-0.91-1.49-1.92-1.49
			c-1.08,0-2.17,0.49-3.14,1.26v-1.41c0.62-0.49,1.92-1.08,3.18-1.08c1.94,0,3.35,1.06,3.35,2.58c0,1.39-0.89,2.28-2.03,2.99
			l-2.6,1.6h4.92v1.26h-7.04L408.76,325.4L408.76,325.4L408.76,325.4z"/>
		<path class="st6" d="M417.54,325.4l3.12-2.11c1.34-0.91,2.17-1.62,2.17-2.56c0-1.08-0.91-1.49-1.92-1.49
			c-1.08,0-2.17,0.49-3.14,1.26v-1.41c0.62-0.49,1.92-1.08,3.18-1.08c1.94,0,3.35,1.06,3.35,2.58c0,1.39-0.89,2.28-2.03,2.99
			l-2.6,1.6h4.92v1.26h-7.04L417.54,325.4L417.54,325.4L417.54,325.4z"/>
	</g>
	<g>
		<path id="XMLID_6_" class="st6" d="M292.62,152.06v-39.03c0-0.44,0.35-0.79,0.79-0.79h28.88c0.44,0,0.79,0.35,0.79,0.79v39.03
			c0,0.44-0.35,0.79-0.79,0.79h-28.88C292.98,152.85,292.62,152.49,292.62,152.06z"/>
		<g>
			<g>
				<line class="st16" x1="292.62" y1="121.41" x2="292.84" y2="121.41"/>
				<line class="st18" x1="293.58" y1="121.41" x2="322.42" y2="121.41"/>
				<line class="st16" x1="322.78" y1="121.41" x2="323" y2="121.41"/>
			</g>
		</g>
		<path class="st7" d="M323.04,121.23v-8.21c0-0.44-0.35-0.79-0.79-0.79h-28.84c-0.44,0-0.79,0.35-0.79,0.79v8.21H323.04z"/>
	</g>
	<g>
		<path id="XMLID_10_" class="st19" d="M418.55,180.6v16.69c0,0.4-0.3,0.71-0.68,0.71h-24.57c-0.37,0-0.68-0.32-0.68-0.71V180.6"/>
		<path id="XMLID_9_" class="st19" d="M392.62,177.39v-15.47c0-0.4,0.3-0.71,0.68-0.71h24.57c0.37,0,0.68,0.32,0.68,0.71v15.47"/>
		<g>
			<g>
				<path class="st6" d="M404.93,173.73v1.3h-7.52v-1.02l4.26-4.11c1.11-1.08,1.32-1.73,1.32-2.39c0-1.08-0.76-1.73-2.22-1.73
					c-1.12,0-2.04,0.36-2.67,1.13l-1.02-0.88c0.81-1.01,2.2-1.58,3.83-1.58c2.19,0,3.59,1.12,3.59,2.91c0,1.02-0.3,1.93-1.71,3.29
					l-3.19,3.08L404.93,173.73L404.93,173.73z"/>
				<path class="st6" d="M406.11,169.8c0-3.4,1.83-5.34,4.27-5.34c2.44,0,4.26,1.94,4.26,5.34c0,3.4-1.83,5.34-4.26,5.34
					C407.94,175.14,406.11,173.2,406.11,169.8z M413.15,169.8c0-2.67-1.13-4.01-2.76-4.01c-1.64,0-2.78,1.34-2.78,4.01
					c0,2.67,1.13,4.01,2.78,4.01C412.02,173.81,413.15,172.47,413.15,169.8z"/>
			</g>
			<path class="st6" d="M404.93,191.66v1.3h-7.52v-1.02l4.26-4.11c1.11-1.08,1.32-1.73,1.32-2.39c0-1.08-0.76-1.73-2.22-1.73
				c-1.12,0-2.04,0.36-2.67,1.13l-1.02-0.88c0.81-1.01,2.2-1.58,3.83-1.58c2.19,0,3.59,1.12,3.59,2.91c0,1.02-0.3,1.93-1.71,3.29
				l-3.19,3.08L404.93,191.66L404.93,191.66z"/>
			<path class="st6" d="M414.65,191.66v1.3h-7.52v-1.02l4.26-4.11c1.11-1.08,1.32-1.73,1.32-2.39c0-1.08-0.76-1.73-2.22-1.73
				c-1.12,0-2.04,0.36-2.67,1.13l-1.02-0.88c0.81-1.01,2.2-1.58,3.83-1.58c2.19,0,3.59,1.12,3.59,2.91c0,1.02-0.3,1.93-1.71,3.29
				l-3.19,3.08L414.65,191.66L414.65,191.66z"/>
		</g>
	</g>
	<g>
		<circle class="st14" cx="358.34" cy="274.91" r="20.01"/>
		<g>
			<g>
				<path class="st6" d="M357.31,269.42v1.44h-8.28v-1.12l4.7-4.53c1.22-1.19,1.45-1.9,1.45-2.63c0-1.19-0.84-1.9-2.45-1.9
					c-1.23,0-2.25,0.4-2.94,1.25l-1.12-0.97c0.89-1.11,2.42-1.74,4.22-1.74c2.41,0,3.96,1.23,3.96,3.2c0,1.12-0.33,2.12-1.89,3.63
					l-3.52,3.4L357.31,269.42L357.31,269.42z"/>
				<path class="st6" d="M358.61,265.09c0-3.75,2.01-5.89,4.71-5.89c2.68,0,4.7,2.14,4.7,5.89c0,3.75-2.01,5.89-4.7,5.89
					C360.62,270.98,358.61,268.85,358.61,265.09z M366.36,265.09c0-2.94-1.25-4.42-3.04-4.42c-1.81,0-3.07,1.48-3.07,4.42
					s1.25,4.42,3.07,4.42C365.11,269.52,366.36,268.04,366.36,265.09z"/>
			</g>
			<path class="st6" d="M357.31,289.17v1.44h-8.28v-1.12l4.7-4.53c1.22-1.19,1.45-1.9,1.45-2.63c0-1.19-0.84-1.9-2.45-1.9
				c-1.23,0-2.25,0.4-2.94,1.25l-1.12-0.97c0.89-1.11,2.42-1.74,4.22-1.74c2.41,0,3.96,1.23,3.96,3.2c0,1.12-0.33,2.12-1.89,3.63
				l-3.52,3.4L357.31,289.17L357.31,289.17z"/>
			<path class="st6" d="M368.02,289.17v1.44h-8.28v-1.12l4.7-4.53c1.22-1.19,1.45-1.9,1.45-2.63c0-1.19-0.84-1.9-2.45-1.9
				c-1.23,0-2.25,0.4-2.94,1.25l-1.12-0.97c0.89-1.11,2.42-1.74,4.22-1.74c2.41,0,3.96,1.23,3.96,3.2c0,1.12-0.33,2.12-1.89,3.63
				l-3.52,3.4L368.02,289.17L368.02,289.17z"/>
		</g>
	</g>
	<path class="st11" d="M614.11,256.13c6.63,12.92,4.11,25.74-15.51,26.61"/>
</g>
</svg>
