<?xml version="1.0" encoding="utf-8"?>
<!-- Generator: Adobe Illustrator 19.0.0, SVG Export Plug-In . SVG Version: 6.00 Build 0)  -->
<svg version="1.1" id="Warstwa_1" xmlns="http://www.w3.org/2000/svg" xmlns:xlink="http://www.w3.org/1999/xlink" x="0px" y="0px"
	 viewBox="4813 -1409.1 10125 3319.1" style="enable-background:new 4813 -1409.1 10125 3319.1;" xml:space="preserve">
<style type="text/css">
	.st0{fill:#0E1A17;}
	.st1{fill:#FFFFFF;}
	.st2{fill:#00D1B2;}
	.st3{fill:none;stroke:#404040;stroke-width:7.3595;stroke-miterlimit:10;}
	.st4{fill:none;stroke:#404040;stroke-width:4.6058;stroke-miterlimit:10;}
	.st5{fill:#C5C5BF;}
	.st6{fill:#E1F1EE;}
	.st7{fill:#404040;}
	.st8{fill:#666666;}
	.st9{fill:#8C8C8C;}
	.st10{fill:#43B38F;}
	.st11{fill:#A8FFCD;}
	.st12{fill:#666666;stroke:#1A2E35;stroke-width:0.6853;stroke-linecap:round;stroke-linejoin:round;stroke-miterlimit:10;}
	.st13{fill:#404040;stroke:#404040;stroke-width:1.2385;stroke-miterlimit:10;}
	.st14{fill:#BD960C;}
	.st15{fill:#FCC812;}
	.st16{fill:#32866B;}
	.st17{fill:#303030;}
	.st18{fill:#FFFFFF;stroke:#1A2E35;stroke-width:2.1235;stroke-linecap:round;stroke-linejoin:round;stroke-miterlimit:10;}
	.st19{fill:#666666;stroke:#1A2E35;stroke-width:0.8655;stroke-linecap:round;stroke-linejoin:round;stroke-miterlimit:10;}
	.st20{fill:#404040;stroke:#404040;stroke-width:1.9043;stroke-miterlimit:10;}
	.st21{fill:none;stroke:#43B38F;stroke-width:4.6058;stroke-miterlimit:10;}
	.st22{fill:none;stroke:#43B38F;stroke-width:4.6058;stroke-miterlimit:10;stroke-dasharray:6.1499,10.248;}
	.st23{fill:none;stroke:#43B38F;stroke-width:4.6058;stroke-miterlimit:10;stroke-dasharray:6.2196,10.3638;}
	.st24{fill:#666666;stroke:#1A2E35;stroke-width:0.7388;stroke-linecap:round;stroke-linejoin:round;stroke-miterlimit:10;}
	.st25{fill:#404040;stroke:#404040;stroke-width:1.3358;stroke-miterlimit:10;}
	.st26{fill:#8E7109;}
	.st27{fill:none;stroke:#FCC812;stroke-width:1.8909;stroke-miterlimit:10;}
	.st28{opacity:0.5;fill:#32866B;enable-background:new    ;}
	.st29{fill:none;stroke:#404040;stroke-width:2.9552;stroke-miterlimit:10;}
	.st30{fill:#CCCBA2;}
	.st31{fill:#A4DCD7;}
</style>
<ellipse class="st0" cx="9969.4" cy="1550.4" rx="119.4" ry="23.7"/>
<g id="XMLID_716_">
	<path id="XMLID_929_" class="st0" d="M11996.2,1517.4c844.6,0,1529.3,14.3,1529.3,32.1c0,17.7-721.5,81.3-1566.1,81.3
		c-844.6,0-1492.5-63.6-1492.5-81.3C10466.9,1531.7,11151.6,1517.4,11996.2,1517.4z"/>
	<g id="XMLID_925_">
		<g id="XMLID_926_">
			<path id="XMLID_928_" class="st1" d="M13467.1,618.4c0,0-64.3-686.6-584.7-953.2c-520.4-266.6-792.5-184.2-1124-32.1
				c-331.5,152.1-456.3,425.9-741.6,557.4c-285.3,131.2-700,221.1-718.7,534.6c-18.7,313.4,92.5,525.2,248.5,608.1
				c156.8,83,308.9,83,308.9,83h2404C13260.1,1415.4,13559.6,1263.6,13467.1,618.4z"/>
			<path id="XMLID_927_" class="st2" d="M13649,683.1c0,0-68-726.1-618.3-1007.9s-838-194.7-1188.5-33.9
				c-350.5,160.8-482.5,450.4-784.1,589.4c-301.6,138.7-740.2,233.8-760,565.3c-19.7,331.4,97.8,555.2,262.7,643
				c165.8,87.8,326.6,87.8,326.6,87.8h2542C13430.2,1525.8,13746.8,1365.3,13649,683.1z"/>
		</g>
	</g>
	<path id="XMLID_924_" class="st3" d="M9823.1,148.2c0,0,2479.6,1626.3,3325,1356.4c540.6-172.7,482.2-925.1-110.6-975.9
		c-812.6-69.6,264.6-667.1,264.6-667.1"/>
	<g id="XMLID_920_">
		<line id="XMLID_923_" class="st4" x1="11235.2" y1="1358.6" x2="11649.1" y2="1358.6"/>
		<line id="XMLID_922_" class="st4" x1="9180.7" y1="1358.6" x2="11184.5" y2="1358.6"/>
		<line id="XMLID_921_" class="st4" x1="8549.8" y1="1358.6" x2="9139.2" y2="1358.6"/>
	</g>
	<g id="XMLID_903_">
		<g id="XMLID_601_">
			<path id="XMLID_919_" class="st5" d="M11844.1,1227.4c0,0,49.6,213.7,28.1,249.3c-28.1,46.2-329.5,73.8-329.5,73.8h665.2
				c0,0,83-23.4,58.3-90.5c-19.5-51.6-112.6-232.3-112.6-232.3h-309.5V1227.4z"/>
			<path id="XMLID_918_" class="st6" d="M11829.4,1227.4c0,0,53,215.7,28.1,249.3c-24.8,33.5-315.6,59-315.6,59h667.8
				c0,0,56.3-22.8,40.9-75.8c-15.3-53-112.6-232.3-112.6-232.3h-308.7L11829.4,1227.4L11829.4,1227.4z"/>
			<path id="XMLID_917_" class="st7" d="M12138.3,1227.4h-308.9c0,0,31.5,127.9,34.8,201.7h375.2
				C12208.5,1358,12138.3,1227.4,12138.3,1227.4z"/>
			<rect id="XMLID_916_" x="11542.1" y="1536.1" class="st6" width="665.2" height="14"/>
			<path id="XMLID_605_" class="st5" d="M12970.8,1248h-1928.5c-21.5,0-38.8-17.5-38.8-38.8V-217.6c0-21.5,17.5-38.8,38.8-38.8
				h1927.8c21.5,0,38.8,17.5,38.8,38.8v1426.9C13009.6,1230.7,12992.3,1248,12970.8,1248z"/>
			<path id="XMLID_604_" class="st7" d="M12923.3,1248h-1927.7c-21.5,0-38.8-17.5-38.8-38.8V-217.6c0-21.5,17.5-38.8,38.8-38.8
				h1927.7c21.5,0,38.8,17.5,38.8,38.8v1426.9C12962.1,1230.7,12944.7,1248,12923.3,1248z"/>
			<path id="XMLID_603_" class="st6" d="M12923.3,1248h-1927.7c-21.5,0-38.8-17.5-38.8-38.8v-194.9H12963v194.9
				C12962.1,1230.7,12944.7,1248,12923.3,1248z"/>
			<path id="XMLID_602_" class="st7" d="M11996.2,1131.6c0-20.9-16.7-36.8-36.8-36.8c-20.9,0-36.8,16.7-36.8,36.8
				c0,20.9,16.7,36.8,36.8,36.8C11979.5,1168.4,11996.2,1151.6,11996.2,1131.6z"/>
		</g>
		<g id="XMLID_904_">
			<rect id="XMLID_600_" x="11057.1" y="-162.7" class="st8" width="1804.5" height="1063"/>
			<g id="XMLID_907_">
				<rect id="XMLID_599_" x="12812.1" y="-162.7" class="st9" width="49.6" height="1063"/>
				<rect id="XMLID_908_" x="12816" y="240.7" class="st7" width="40.9" height="276.7"/>
			</g>
			<rect id="XMLID_598_" x="11057.1" y="-162.7" class="st9" width="1804.5" height="85.8"/>
			<rect id="XMLID_905_" x="11195.6" y="-140.4" class="st7" width="823.9" height="46.8"/>
		</g>
	</g>
	<path id="XMLID_597_" class="st10" d="M11634.3,860.3V-15.2c0-10,8-17.5,17.5-17.5h647.7c10,0,17.5,8,17.5,17.5v875.5
		c0,10-8,17.5-17.5,17.5h-647.7C11641.9,877.8,11634.3,870.3,11634.3,860.3z"/>
	<path id="XMLID_596_" class="st11" d="M11600.9,860.3V-15.2c0-10,8-17.5,17.5-17.5h647.7c10,0,17.5,8,17.5,17.5v875.5
		c0,10-8,17.5-17.5,17.5h-647.7C11609,877.8,11600.9,870.3,11600.9,860.3z"/>
	<g id="XMLID_890_">
		<path id="XMLID_595_" class="st12" d="M12534.7-102.3v-331c0-10,8-18.1,18.1-18.1h1712.9c10,0,18.1,8,18.1,18.1v331
			c0,10-8,18.1-18.1,18.1h-1712.9C12542.8-84.1,12534.7-92.2,12534.7-102.3z"/>
		<path id="XMLID_594_" class="st13" d="M12446.9-102.3v-330.1c0-10,8-18.1,18.1-18.1h1769.2c10,0,18.1,8,18.1,18.1v330.1
			c0,10-8,18.1-18.1,18.1H12465C12455-84.1,12446.9-92.2,12446.9-102.3z"/>
		<path id="XMLID_593_" class="st14" d="M12534.1-143.8v-247.1c0-3.3,2.7-6.1,6.1-6.1h247.1c3.3,0,6.1,2.7,6.1,6.1v247.1
			c0,3.3-2.7,6.1-6.1,6.1h-247.1C12536.7-138.5,12534.1-141.2,12534.1-143.8z"/>
		<path id="XMLID_592_" class="st15" d="M12522.1-143.8v-247.1c0-3.3,2.7-6.1,6.1-6.1h247.1c3.3,0,6.1,2.7,6.1,6.1v247.1
			c0,3.3-2.7,6.1-6.1,6.1h-247.1C12524.1-138.5,12522.1-141.2,12522.1-143.8z"/>
		<path id="XMLID_591_" class="st16" d="M12987.6-143.8v-247.1c0-3.3,2.7-6.1,6.1-6.1h247.1c3.3,0,6.1,2.7,6.1,6.1v247.1
			c0,3.3-2.7,6.1-6.1,6.1h-247.1C12990.2-138.5,12987.6-141.2,12987.6-143.8z"/>
		<path id="XMLID_590_" class="st10" d="M12975.4-143.8v-247.1c0-3.3,2.7-6.1,6.1-6.1h247.1c3.3,0,6.1,2.7,6.1,6.1v247.1
			c0,3.3-2.7,6.1-6.1,6.1h-247.1C12978.1-138.5,12975.4-141.2,12975.4-143.8z"/>
		<path id="XMLID_589_" class="st12" d="M13441.7-143.8v-247.1c0-3.3,2.7-6.1,6.1-6.1h247.1c3.3,0,6.1,2.7,6.1,6.1v247.1
			c0,3.3-2.7,6.1-6.1,6.1h-247.1C13443.7-138.5,13441.7-141.2,13441.7-143.8z"/>
		<path id="XMLID_588_" class="st17" d="M13428.9-143.8v-247.1c0-3.3,2.7-6.1,6.1-6.1h247.1c3.3,0,6.1,2.7,6.1,6.1v247.1
			c0,3.3-2.7,6.1-6.1,6.1h-247.1C13431.7-138.5,13428.9-141.2,13428.9-143.8z"/>
		<path id="XMLID_587_" class="st12" d="M13895.2-143.8v-247.1c0-3.3,2.7-6.1,6.1-6.1h247.1c3.3,0,6.1,2.7,6.1,6.1v247.1
			c0,3.3-2.7,6.1-6.1,6.1h-247.1C13898-138.5,13895.2-141.2,13895.2-143.8z"/>
		<path id="XMLID_586_" class="st18" d="M13883.2-143.8v-247.1c0-3.3,2.7-6.1,6.1-6.1h247.1c3.3,0,6.1,2.7,6.1,6.1v247.1
			c0,3.3-2.7,6.1-6.1,6.1h-247.2C13885.1-138.5,13883.2-141.2,13883.2-143.8z"/>
	</g>
	<path id="XMLID_585_" class="st19" d="M9299.4,152.9v-631c0-15.3,12.8-27.5,27.5-27.5H11481c15.3,0,27.5,12.8,27.5,27.5v631
		c0,15.3-12.8,27.5-27.5,27.5H9326.9C9312.2,180.3,9299.4,168.3,9299.4,152.9z"/>
	<path id="XMLID_584_" class="st20" d="M9188.2,152.1v-630.4c0-15.3,12.8-28.1,28.1-28.1h2224.6c15.3,0,28.1,12.8,28.1,28.1v630.4
		c0,15.3-12.8,28.1-28.1,28.1H9216.3C9201.1,180.3,9188.2,167.7,9188.2,152.1z"/>
	<path id="XMLID_583_" class="st14" d="M9269.8,95.9v-521.8c0-6.1,4.7-10.6,10.6-10.6h385.9c6.1,0,10.6,4.7,10.6,10.6V95.9
		c0,6.1-4.7,10.6-10.6,10.6h-385.8C9274.6,106.7,9269.8,102,9269.8,95.9z"/>
	<path id="XMLID_582_" class="st15" d="M9250.6,95.9v-521.8c0-6.1,4.7-10.6,10.6-10.6H9647c6.1,0,10.6,4.7,10.6,10.6V95.9
		c0,6.1-4.7,10.6-10.6,10.6h-385.8C9255.1,106.7,9250.6,102,9250.6,95.9z"/>
	<path id="XMLID_581_" class="st14" d="M10396.6,95.9v-521.8c0-6.1,4.7-10.6,10.6-10.6h385.8c6.1,0,10.6,4.7,10.6,10.6V95.9
		c0,6.1-4.7,10.6-10.6,10.6h-385.8C10401.4,106.7,10396.6,102,10396.6,95.9z"/>
	<path id="XMLID_580_" class="st15" d="M10376.6,95.9v-521.8c0-6.1,4.7-10.6,10.6-10.6h385.8c6.1,0,10.6,4.7,10.6,10.6V95.9
		c0,6.1-4.7,10.6-10.6,10.6h-385.8C10381.1,106.7,10376.6,102,10376.6,95.9z"/>
	<path id="XMLID_579_" class="st14" d="M9843.4,95.9v-521.8c0-6.1,4.7-10.6,10.6-10.6h385.8c6.1,0,10.6,4.7,10.6,10.6V95.9
		c0,6.1-4.7,10.6-10.6,10.6H9854C9848,106.7,9843.4,102,9843.4,95.9z"/>
	<path id="XMLID_578_" class="st15" d="M9823.1,95.9v-521.8c0-6.1,4.7-10.6,10.6-10.6h385.8c6.1,0,10.6,4.7,10.6,10.6V95.9
		c0,6.1-4.7,10.6-10.6,10.6h-385.7C9827.8,106.7,9823.1,102,9823.1,95.9z"/>
	<path id="XMLID_572_" class="st14" d="M10969.4,95.9v-521.8c0-6.1,4.7-10.6,10.6-10.6h385.8c6.1,0,10.6,4.7,10.6,10.6V95.9
		c0,6.1-4.7,10.6-10.6,10.6H10980C10974.1,106.7,10969.4,102,10969.4,95.9z"/>
	<path id="XMLID_564_" class="st15" d="M10949.9,95.9v-521.8c0-6.1,4.7-10.6,10.6-10.6h385.8c6.1,0,10.6,4.7,10.6,10.6V95.9
		c0,6.1-4.7,10.6-10.6,10.6h-385.8C10954.6,106.7,10949.9,102,10949.9,95.9z"/>
	<path id="XMLID_879_" class="st10" d="M9823.1-280.5c63.6,0,115.9,51.6,115.9,115.9c0,64.3-51.6,115.9-115.9,115.9"/>
	<g id="XMLID_874_">
		<g id="XMLID_875_">
			<line id="XMLID_878_" class="st21" x1="10376.6" y1="-313.9" x2="10379.9" y2="-313.9"/>
			<line id="XMLID_877_" class="st22" x1="10389.9" y1="-313.9" x2="10794.5" y2="-313.9"/>
			<line id="XMLID_876_" class="st21" x1="10799.8" y1="-313.9" x2="10803.1" y2="-313.9"/>
		</g>
	</g>
	<path id="XMLID_563_" class="st10" d="M11018.9,104v-537.1c0-1.4,1.4-2.7,2.7-2.7h22.8c1.4,0,2.7,1.4,2.7,2.7V104
		c0,1.4-1.4,2.7-2.7,2.7h-22.8C11019.5,106.7,11018.9,105.4,11018.9,104z"/>
	<g id="XMLID_562_">
		<g id="XMLID_817_">
			<path id="XMLID_872_" class="st21" d="M9675.1,77.2c-0.6,0.6-1.4,1.4-2,2"/>
			<path id="XMLID_871_" class="st23" d="M9663.2,81.3h-347c-5.3,0-9.4-3.9-9.4-9.4v-445.4c0-5.3,3.9-9.4,9.4-9.4h350.4"/>
			<path id="XMLID_870_" class="st21" d="M9671.8-382.2c0.6,0.6,2,1.4,2.7,2"/>
		</g>
	</g>
	<rect id="XMLID_815_" x="9286" y="-407" class="st10" width="62.3" height="62.3"/>
	<g id="XMLID_719_">
		<path id="XMLID_559_" class="st24" d="M12185.1,1080V722.9c0-10.6,8.6-19.5,19.5-19.5h1847.5c10.6,0,19.5,8.6,19.5,19.5V1080
			c0,10.6-8.6,19.5-19.5,19.5h-1847.5C12193.7,1099.5,12185.1,1090.6,12185.1,1080z"/>
		<path id="XMLID_442_" class="st25" d="M12090,1079.3V722.9c0-10.6,8.6-19.5,19.5-19.5h1907.6c10.6,0,19.5,8.6,19.5,19.5v356.3
			c0,10.6-8.6,19.5-19.5,19.5h-1907.8C12098.7,1099.5,12090,1090,12090,1079.3z"/>
		<g id="XMLID_806_">
			<path id="XMLID_812_" class="st26" d="M12257.5,928.5v12h-71v-9.4l40.1-38.8c10.6-10,12.8-16.2,12.8-22.8
				c0-10-7.3-16.2-20.9-16.2c-10.6,0-22.8,1.4-28.8,8.6l-6.1-6.1c7.3-9.4,20.9-14.8,36.2-14.8c20.9,0,34.2,10.6,34.2,27.5
				c0,9.4-2.7,18.1-16.2,30.9l-30.1,28.8h49.6v0.2H12257.5z"/>
			<path id="XMLID_809_" class="st26" d="M12268.9,891.7c0-32.1,17.5-50.1,40.1-50.1c22.8,0,40.1,18.1,40.1,50.1
				c0,32.1-17.5,50.1-40.1,50.1C12286.2,941.9,12268.9,924,12268.9,891.7z M12335.2,891.7c0-25.4-10.6-38.2-26.2-38.2
				c-15.3,0-26.2,12.8-26.2,38.2c0,25.4,10.6,38.2,26.2,38.2C12324.4,929.9,12335.2,917.1,12335.2,891.7z"/>
			<path id="XMLID_808_" class="st26" d="M12432.2,928.5v12h-71v-9.4l40.1-38.8c10.6-10,12.8-16.2,12.8-22.8
				c0-10-7.3-16.2-20.9-16.2c-10.6,0-22,0.6-28.1,8l-6.7-6.1c7.3-9.4,20.9-14.8,36.2-14.8c20.9,0,34.2,10.6,34.2,27.5
				c0,9.4-2.7,18.1-16.2,30.9l-30.1,28.8h49.6L12432.2,928.5L12432.2,928.5z"/>
			<path id="XMLID_807_" class="st26" d="M12474.5,842.1v99.2h-14.2V855h-22v-12h36.2L12474.5,842.1L12474.5,842.1z"/>
		</g>
		<g id="XMLID_799_">
			<path id="XMLID_805_" class="st15" d="M12252,928.5v12h-71v-9.4l40.1-38.8c10.6-10,12.8-16.2,12.8-22.8c0-10-7.3-16.2-20.9-16.2
				c-10.6,0-19.5,3.3-25.4,10.6l-9.4-8c7.3-9.4,20.9-14.8,36.2-14.8c20.9,0,34.2,10.6,34.2,27.5c0,9.4-2.7,18.1-16.2,30.9
				l-30.1,28.8h49.6L12252,928.5L12252,928.5z"/>
			<path id="XMLID_802_" class="st15" d="M12263.4,891.7c0-32.1,17.5-50.1,40.1-50.1c22.8,0,40.1,18.1,40.1,50.1
				c0,32.1-17.5,50.1-40.1,50.1C12280.9,941.9,12263.4,924,12263.4,891.7z M12329.7,891.7c0-25.4-10.6-38.2-26.2-38.2
				s-26.2,12.8-26.2,38.2c0,25.4,10.6,38.2,26.2,38.2S12329.7,917.1,12329.7,891.7z"/>
			<path id="XMLID_801_" class="st15" d="M12426.9,928.5v12h-71v-9.4l40.1-38.8c10.6-10,12.8-16.2,12.8-22.8
				c0-10-7.3-16.2-20.9-16.2c-10.6,0-19.5,3.3-25.4,10.6l-9.4-8c7.3-9.4,20.9-14.8,36.2-14.8c20.9,0,34.2,10.6,34.2,27.5
				c0,9.4-2.7,18.1-16.2,30.9l-30.1,28.8h49.6L12426.9,928.5L12426.9,928.5z"/>
			<path id="XMLID_800_" class="st15" d="M12469.2,842.1v99.2h-14V855h-22v-12h36.2v-0.7L12469.2,842.1L12469.2,842.1z"/>
		</g>
		<path id="XMLID_441_" class="st27" d="M13330.6,907.9v132.6c0,3.3-2.7,5.3-5.3,5.3h-205.6c-3.3,0-5.3-2.7-5.3-5.3V907.9"/>
		<path id="XMLID_440_" class="st27" d="M13113.5,882.3V759.2c0-3.3,2.7-5.3,5.3-5.3h205.6c3.3,0,5.3,2.7,5.3,5.3v123.2"/>
		<path id="XMLID_439_" class="st27" d="M13319.7,907.9v132.6c0,3.3-2.7,5.3-5.3,5.3h-195.6c-2.7,0-5.3-2.7-5.3-5.3V907.9"/>
		<path id="XMLID_72_" class="st27" d="M13113.5,882.3V759.2c0-3.3,2.7-5.3,5.3-5.3h195.6c2.7,0,5.3,2.7,5.3,5.3v123.2"/>
		<g id="XMLID_788_">
			<path id="XMLID_794_" class="st26" d="M13215.3,853v10h-59.6v-8l34.2-32.8c8.6-8.6,10.6-14,10.6-18.7c0-8.6-6.1-14-17.5-14
				c-8.6,0-18.7,0.6-24.2,6.7l-5.3-4.7c6.7-8,17.5-12.8,30.1-12.8c17.5,0,28.8,8.6,28.8,23.4c0,8-2.7,15.3-13.3,26.2l-25.4,24.8
				H13215.3L13215.3,853z"/>
			<path id="XMLID_791_" class="st26" d="M13224.7,821.5c0-26.8,14.8-42.1,34.2-42.1s34.2,15.3,34.2,42.1
				c0,26.8-14.8,42.9-34.2,42.9C13238.6,864.2,13224.7,848.8,13224.7,821.5z M13280.3,821.5c0-21.5-8.6-32.1-22-32.1
				c-13.3,0-22,10.6-22,32.1c0,21.5,8.6,32.1,22,32.1C13271.7,853.6,13280.3,843,13280.3,821.5z"/>
			<path id="XMLID_790_" class="st26" d="M13232.8,995.6v10h-59.6v-8l34.2-32.8c8.6-8.6,10.6-14,10.6-18.7c0-8.6-6.1-14-17.5-14
				c-8.6,0-18.1,0.6-23.4,6.7l-6.1-4.7c6.7-8,17.5-12.8,30.1-12.8c17.5,0,28.8,8.6,28.8,23.4c0,8-2.7,15.3-13.3,26.2l-25.4,24.8
				H13232.8L13232.8,995.6z"/>
			<path id="XMLID_789_" class="st26" d="M13268.1,922.6v83h-12v-73h-18.7v-10H13268.1z"/>
		</g>
		<g id="XMLID_781_">
			<path id="XMLID_787_" class="st15" d="M13210.5,853v10h-59.6v-8l34.2-32.8c8.6-8.6,10.6-14,10.6-18.7c0-8.6-6.1-14-17.5-14
				c-8.6,0-16.2,2.7-21.5,8.6l-8-6.7c6.7-8,17.5-12.8,30.1-12.8c17.5,0,28.8,8.6,28.8,23.4c0,8-2.7,15.3-13.3,26.2l-25.4,24.8
				L13210.5,853L13210.5,853z"/>
			<path id="XMLID_784_" class="st15" d="M13220,821.5c0-26.8,14.8-42.1,34.2-42.1s34.2,15.3,34.2,42.1c0,26.8-14.8,42.9-34.2,42.9
				C13234.2,864.2,13220,848.8,13220,821.5z M13275.6,821.5c0-21.5-8.6-32.1-22-32.1s-22,10.6-22,32.1c0,21.5,8.6,32.1,22,32.1
				C13266.8,853.6,13275.6,843,13275.6,821.5z"/>
			<path id="XMLID_783_" class="st15" d="M13228,995.6v10h-59.6v-8l34.2-32.8c8.6-8.6,10.6-14,10.6-18.7c0-8.6-6.1-14-17.5-14
				c-8.6,0-16.2,2.7-21.5,8.6l-8-6.7c6.7-8,17.5-12.8,30.1-12.8c17.5,0,28.8,8.6,28.8,23.4c0,8-2.7,15.3-13.3,26.2l-25.4,24.8
				L13228,995.6L13228,995.6z"/>
			<path id="XMLID_782_" class="st15" d="M13263.4,922.6v83h-12v-73h-18.7v-10H13263.4z"/>
		</g>
		<g id="XMLID_774_">
			<path id="XMLID_780_" class="st26" d="M12654.7,929.9l32.8-22c14-9.4,22.8-17.5,22.8-26.8c0-11.4-9.4-15.3-20.1-15.3
				c-11.4,0-22.8,0-33.5,8v-9.4c6.7-5.3,20.1-11.4,33.5-11.4c20.9,0,35.4,11.4,35.4,27.5c0,14.8-9.4,24.2-21.5,31.5l-27.5,16.7h52.3
				V942h-74.3L12654.7,929.9L12654.7,929.9z"/>
			<path id="XMLID_777_" class="st26" d="M12749.1,898.4c0-27.5,21.5-46.2,47.6-46.2c25.4,0,46.8,18.7,46.8,46.2
				c0,27.5-21.5,46.2-46.8,46.2S12749.1,926,12749.1,898.4z M12828.9,898.4c0-20.9-14-34.2-32.1-34.2s-32.1,13.3-32.1,34.2
				s14,34.2,32.1,34.2C12814.1,932.6,12828.9,919.3,12828.9,898.4z"/>
			<path id="XMLID_776_" class="st26" d="M12863.7,929.9l32.8-22c14-9.4,22.8-17.5,22.8-26.8c0-11.4-9.4-15.3-20.1-15.3
				c-11.4,0-22.8,0-33.5,8v-9.4c6.7-5.3,20.1-11.4,33.5-11.4c20.9,0,35.4,11.4,35.4,27.5c0,14.8-9.4,24.2-21.5,31.5l-27.5,16.7h52.3
				V942h-74.3L12863.7,929.9L12863.7,929.9z"/>
			<path id="XMLID_775_" class="st26" d="M12970.1,869.7h-12.8v-10.6l28.1-6.7v88.4h-15.3V869.7L12970.1,869.7z"/>
		</g>
		<g id="XMLID_767_">
			<path id="XMLID_773_" class="st15" d="M12647.3,929.9l32.8-22c14.2-9.4,22.8-17.5,22.8-26.8c0-11.4-9.4-15.3-20.1-15.3
				c-11.4,0-22.8,5.3-33.5,13.3v-14.8c6.7-5.3,20.1-11.4,33.5-11.4c20.9,0,35.4,11.4,35.4,27.5c0,14.8-9.4,24.2-21.5,31.5
				l-27.5,16.7h52.3V942h-74.3L12647.3,929.9L12647.3,929.9z"/>
			<path id="XMLID_770_" class="st15" d="M12741.7,898.4c0-27.5,21.5-46.2,47.6-46.2c25.4,0,46.8,18.7,46.8,46.2
				c0,27.5-21.5,46.2-46.8,46.2C12763.1,944.7,12741.7,926,12741.7,898.4z M12820.7,898.4c0-20.9-14-34.2-32.1-34.2
				s-32.1,13.3-32.1,34.2s14.2,34.2,32.1,34.2S12820.7,919.3,12820.7,898.4z"/>
			<path id="XMLID_769_" class="st15" d="M12855.6,929.9l32.8-22c14-9.4,22.8-17.5,22.8-26.8c0-11.4-9.4-15.3-20.1-15.3
				c-11.4,0-22.8,5.3-33.5,13.3v-14.8c6.7-5.3,20.1-11.4,33.5-11.4c20.9,0,35.4,11.4,35.4,27.5c0,14.8-9.4,24.2-21.5,31.5
				l-27.5,16.7h52.3V942h-74.3L12855.6,929.9L12855.6,929.9z"/>
			<path id="XMLID_768_" class="st15" d="M12962.1,869.7h-12.8v-10.6l28.1-6.7v88.4h-15.3V869.7L12962.1,869.7z"/>
		</g>
		<g id="XMLID_760_">
			<path id="XMLID_766_" class="st26" d="M13734.5,853.6v10h-59v-8l33.5-32.1c8.6-8.6,10-13.3,10-18.7c0-8.6-6.1-13.3-17.5-13.3
				c-8.6,0-18.1,0.6-23.4,6.7l-5.3-4.7c6.1-8,17.5-12,30.1-12c16.7,0,28.1,8.6,28.1,22.8c0,8-2,14.8-13.3,25.4l-24.8,24.2h41.7
				L13734.5,853.6L13734.5,853.6z"/>
			<path id="XMLID_763_" class="st26" d="M13743.9,823.5c0-26.8,14-41.5,33.5-41.5c18.7,0,33.5,15.3,33.5,41.5
				c0,26.2-14,41.5-33.5,41.5S13743.9,849.7,13743.9,823.5z M13798.8,823.5c0-20.9-8.6-31.5-21.5-31.5c-12.8,0-21.5,10.6-21.5,31.5
				s8.6,31.5,21.5,31.5C13789.3,854.1,13798.8,844.1,13798.8,823.5z"/>
			<path id="XMLID_762_" class="st26" d="M13751.2,993.6v10h-59v-8l33.5-32.1c8.6-8.6,10-13.3,10-18.7c0-8.6-6.1-13.3-17.5-13.3
				c-8.6,0-18.1,0.6-23.4,6.7l-5.3-4.7c6.1-8,17.5-12,30.1-12c16.7,0,28.1,8.6,28.1,22.8c0,8-2,14.8-13.3,25.4l-24.8,24.2h41.7
				L13751.2,993.6L13751.2,993.6z"/>
			<path id="XMLID_761_" class="st26" d="M13786,921.9v81.6h-11.4v-71.6h-18.1v-10H13786z"/>
		</g>
		<g id="XMLID_751_">
			<path id="XMLID_759_" class="st15" d="M13729.7,853.6v10h-59v-8l33.5-32.1c8.6-8.6,10-13.3,10-18.7c0-8.6-6.1-13.3-17.5-13.3
				c-8.6,0-16.2,2.7-20.9,8.6l-8-6.7c6.1-8,17.5-12,30.1-12c16.7,0,28.1,8.6,28.1,22.8c0,8-2,14.8-13.3,25.4l-24.8,24.2
				L13729.7,853.6L13729.7,853.6L13729.7,853.6z"/>
			<path id="XMLID_756_" class="st15" d="M13739.2,823.5c0-26.8,14-41.5,33.5-41.5c18.7,0,33.5,15.3,33.5,41.5
				c0,26.2-14,41.5-33.5,41.5C13753.2,865,13739.2,849.7,13739.2,823.5z M13794,823.5c0-20.9-8.6-31.5-21.5-31.5
				s-21.5,10.6-21.5,31.5s8.6,31.5,21.5,31.5C13785.4,854.1,13794,844.1,13794,823.5z"/>
			<path id="XMLID_755_" class="st15" d="M13747.2,993.6v10h-59v-8l33.5-32.1c8.6-8.6,10-13.3,10-18.7c0-8.6-6.1-13.3-17.5-13.3
				c-8.6,0-16.2,2.7-20.9,8.6l-8-6.7c6.1-8,17.5-12,30.1-12c16.7,0,28.1,8.6,28.1,22.8c0,8-2,14.8-13.3,25.4l-24.8,24.2
				L13747.2,993.6L13747.2,993.6L13747.2,993.6z"/>
			<path id="XMLID_754_" class="st15" d="M13782.1,921.9v81.6h-11.4v-71.6h-18.1v-10H13782.1z"/>
		</g>
		<circle id="XMLID_721_" class="st27" cx="13741.2" cy="899.8" r="144.6"/>
		<path id="XMLID_720_" class="st27" d="M13746.5,755.2c81.6,0,147.4,64.9,147.4,144.6s-66.3,144.6-147.4,144.6"/>
	</g>
	<path id="XMLID_718_" class="st10" d="M10803.1-315.9v-109.8c0-6.1-4.7-10.6-11.4-10.6h-404.5c-6.1,0-11.4,4.7-11.4,10.6v109.8
		H10803.1z"/>
	<path id="XMLID_717_" class="st28" d="M10774.4-436.5c5.3,0,10,4.7,10,10.6v109.8h18.7v-109.8c0-6.1-4.7-10.6-10.6-10.6H10774.4z"
		/>
</g>
<g id="XMLID_796_">
	<g id="XMLID_886_">
		<g id="XMLID_887_">
			<g id="XMLID_888_">
				<path id="XMLID_896_" class="st10" d="M9814.2,1119.5c0,0,77.7,62,115,126.6c37.2,64.5,36.4,108.3,36.4,108.3
					s-110-78.6-134.8-131.5C9805.9,1169.1,9814.2,1119.5,9814.2,1119.5z"/>
				<path id="XMLID_895_" class="st10" d="M10144.1,1032.8c0,0,17.3,110.8-24,179.4c-40.6,68.6-152.9,139.7-152.9,139.7
					s-16.6-49.6,43.1-125.7C10068,1150.2,10144.1,1032.8,10144.1,1032.8z"/>
				<path id="XMLID_894_" class="st10" d="M9960.5,1228.8c0,0,0.7-85.2,53.8-173.7c53-88.4,116.5-177,131.5-215.1
					c15-38.1,24-80.2,24-80.2s22.3,73.6-19.1,170.2C10110.2,1027.8,9960.5,1228.8,9960.5,1228.8z"/>
				<path id="XMLID_893_" class="st10" d="M9964.7,1194c0,0-62.9-79.3-105.8-170.2c-43.1-90.9-36.4-185.2-36.4-185.2
					s81.1,105,106.6,187.6C9955.5,1107.1,9964.7,1194,9964.7,1194z"/>
				<path id="XMLID_892_" class="st10" d="M9977.1,1013.7c0,0,14.8-130.6,49.6-203.4c35.5-72.9,107.5-184.3,107.5-184.3
					s9.1,125.7-48,225.8C10029.9,951.7,9977.1,1013.7,9977.1,1013.7z"/>
				<path id="XMLID_891_" class="st10" d="M9980.3,938.4c0,0-73.6-109.1-93.4-187.6s-37.2-210.9-37.2-210.9s87.7,90.2,109.1,203.4
					S9980.3,938.4,9980.3,938.4z"/>
				<path id="XMLID_889_" class="st10" d="M9943.1,466.3c0,0,68.6,50.5,57.9,157.9c-10.7,106.6-21.5,143-21.5,143
					C9991.2,693.8,9943.1,466.3,9943.1,466.3z"/>
			</g>
		</g>
	</g>
	<path id="XMLID_885_" class="st29" d="M9968,1387.4c0,0-6.6-16.6-6.6-145.5c0-129,16.6-179.4,16.6-306s8.2-244.8,8.2-244.8"/>
	<path id="XMLID_884_" class="st29" d="M9977.8,1001.3c0,0,45.6-99.1,65.4-135.6c18.2-34.7,38.9-90.2,38.9-90.2"/>
	<path id="XMLID_883_" class="st29" d="M10064.8,1041.9c-28,52.1-92.7,170.2-104.1,186.8"/>
	<path id="XMLID_882_" class="st29" d="M10078,1016.9c0,0-3.2,5.7-8.2,14.8"/>
	<line id="XMLID_881_" class="st29" x1="9893.5" y1="1016.2" x2="9878.7" y2="979.8"/>
	<line id="XMLID_880_" class="st29" x1="9961.3" y1="1177.5" x2="9901" y2="1032.8"/>
	<path id="XMLID_873_" class="st29" d="M9913.4,1287.5c-13.2-16.6-26.5-34.7-38-52.1"/>
	<path id="XMLID_816_" class="st29" d="M10037.3,1259.3c-30.5,37.2-76.1,84.3-76.1,84.3s-15.7-17.3-35.5-40.6"/>
	<path id="XMLID_814_" class="st29" d="M10060.6,1228.8c-2.5,4.1-6.6,9.9-11.6,15.7"/>
	<line id="XMLID_813_" class="st29" x1="9936.5" y1="782.2" x2="9926.5" y2="747.6"/>
	<line id="XMLID_798_" class="st29" x1="9977.8" y1="920.3" x2="9942.4" y2="800.4"/>
	<polygon id="XMLID_797_" class="st30" points="9877,1326.2 10061.4,1326.2 10061.4,1391.6 10044,1391.6 10021.7,1536.3 
		9916.7,1536.3 9894.4,1391.6 9877,1391.6 	"/>
</g>
<g id="XMLID_281_">
	<path id="XMLID_405_" class="st2" d="M12091.1,235.2c18.7,0,33.4,14.8,33.4,33.7c0,18.9-14.9,33.7-33.9,33.7
		c-18.6-0.1-33.7-15.2-33.7-33.7C12057.1,250,12072.1,235.2,12091.1,235.2z"/>
	<path id="XMLID_395_" class="st2" d="M12090.7,414.3c-18.6-0.1-33.7-15.3-33.7-33.7c0.1-18.5,15.3-33.7,33.7-33.7
		c18.8,0,33.9,15.2,33.7,34.1C12124.4,399.6,12109.5,414.4,12090.7,414.3z"/>
	<path id="XMLID_394_" class="st2" d="M12090.9,637.9c-18.6,0-33.7-15-33.8-33.6c-0.1-18.4,15.2-33.7,33.7-33.8
		c18.8-0.1,34,15,33.9,33.9C12124.5,623,12109.6,637.9,12090.9,637.9z"/>
	<path id="XMLID_391_" class="st2" d="M12090.9,123.3c18.7,0.1,33.7,14.8,33.7,33.6c0.1,18.8-15.2,34-33.9,33.8
		c-18.5-0.2-33.7-15.5-33.7-33.9C12057.3,138.3,12072.4,123.3,12090.9,123.3z"/>
	<path id="XMLID_390_" class="st2" d="M12202.6,235.2c18.9,0,33.9,14.9,33.8,33.8c-0.1,18.7-14.9,33.4-33.8,33.4
		c-18.7,0-33.5-14.8-33.5-33.7C12169.1,250,12184,235.2,12202.6,235.2z"/>
	<path id="XMLID_385_" class="st2" d="M12113.3,324.6c0.1-18.6,15.3-33.7,33.8-33.5c18.7,0.2,33.5,15.2,33.4,33.9
		s-14.9,33.4-33.8,33.4C12127.9,358.2,12113.3,343.3,12113.3,324.6z"/>
	<path id="XMLID_384_" class="st2" d="M12146.9,581.8c-18.8,0-33.7-14.8-33.7-33.6c0-18.7,14.9-33.7,33.7-33.7
		c18.6,0,33.7,15,33.7,33.7C12180.5,567,12165.6,581.8,12146.9,581.8z"/>
	<path id="XMLID_339_" class="st2" d="M12091,526c-18.7,0-33.7-14.8-33.9-33.3c-0.2-18.6,15.2-33.8,34-33.8
		c18.6,0,33.6,14.9,33.6,33.7C12124.6,511.1,12109.7,525.9,12091,526z"/>
	<path id="XMLID_332_" class="st2" d="M12091.1,11.6c18.7,0,33.5,14.9,33.4,33.7c-0.1,18.6-15,33.5-33.7,33.4
		c-18.6,0-33.7-15-33.8-33.5C12056.9,26.5,12072.1,11.6,12091.1,11.6z"/>
	<path id="XMLID_327_" class="st2" d="M12202.7,637.9c-18.7,0-33.5-14.8-33.7-33.6c-0.1-18.6,14.8-33.8,33.4-33.8
		c18.7-0.1,33.9,15,33.9,33.8C12236.2,623,12221.3,637.9,12202.7,637.9z"/>
	<path id="XMLID_326_" class="st2" d="M12202.8,414.3c-18.7,0.1-33.5-14.7-33.7-33.4c-0.2-18.6,14.8-33.8,33.3-33.9
		c18.8-0.1,34,15,33.9,33.8C12236.3,399.3,12221.4,414.2,12202.8,414.3z"/>
	<path id="XMLID_321_" class="st2" d="M12001.3,324.8c-0.1-18.7,14.8-33.6,33.4-33.7c18.6-0.2,34.1,15.3,33.9,33.8
		c-0.1,18.6-15,33.4-33.8,33.4C12016.2,358.2,12001.4,343.5,12001.3,324.8z"/>
	<path id="XMLID_320_" class="st2" d="M12035.3,402.9c19,0.6,33.8,15.9,33.3,34.5c-0.5,18.5-16.2,33.6-34.3,33
		c-19.1-0.7-33.7-16.2-32.9-35.1C12002,417,12017.5,402.3,12035.3,402.9z"/>
	<path id="XMLID_319_" class="st2" d="M12001.3,548.5c-0.1-18.7,14.7-33.7,33.4-33.9c18.6-0.2,34.1,15,34.1,33.7
		c0,18.6-15,33.5-33.7,33.5C12016.3,581.8,12001.4,567.2,12001.3,548.5z"/>
	<path id="XMLID_316_" class="st2" d="M12012.5,269c-0.1,18.7-14.8,33.4-33.7,33.4c-18.6-0.1-33.7-15.3-33.6-33.7
		c0.1-18.9,15.1-33.6,34.1-33.6C11998.1,235.2,12012.6,250,12012.5,269z"/>
	<path id="XMLID_314_" class="st2" d="M12202.7,123.3c18.9,0,33.9,15,33.8,33.9c-0.2,18.6-15.3,33.7-33.8,33.5
		c-18.6-0.1-33.5-15.1-33.5-33.7C12169.2,138.2,12184,123.3,12202.7,123.3z"/>
	<path id="XMLID_309_" class="st2" d="M12113.3,212.7c0-18.6,15-33.7,33.6-33.7c18.4-0.1,33.7,15.2,33.7,33.7
		c0.1,18.8-15.2,34.1-33.8,33.9C12128.1,246.3,12113.3,231.4,12113.3,212.7z"/>
	<path id="XMLID_307_" class="st2" d="M12001.3,213c-0.1-18.6,14.8-33.7,33.4-34.1c18.5-0.2,34.1,15.3,34.1,33.8
		c0,18.5-15.2,33.7-33.7,33.7C12016.4,246.5,12001.4,231.6,12001.3,213z"/>
	<path id="XMLID_304_" class="st2" d="M12034.7,134.5c-18.7-0.1-33.4-14.9-33.3-33.7c0.1-18.7,15.2-33.7,33.7-33.6
		c18.5,0.1,33.7,15.3,33.7,33.7C12068.7,119.6,12053.7,134.5,12034.7,134.5z"/>
	<path id="XMLID_294_" class="st2" d="M12147.7,402.9c19.3,1,33.4,16.3,32.7,35.4c-0.7,18.2-17,33.2-34.7,32
		c-19.5-1.2-33.4-16.7-32.4-36.1C12114.2,416.6,12130.2,402,12147.7,402.9z"/>
	<path id="XMLID_292_" class="st2" d="M11979.1,414.4c-18.7-0.1-33.7-15.3-33.7-33.7s15.3-33.7,33.8-33.7
		c18.9,0,33.6,15.3,33.4,34.6C12012.4,399.7,11997.2,414.4,11979.1,414.4z"/>
	<path id="XMLID_291_" class="st2" d="M12012.5,604.4c-0.1,18.6-14.8,33.4-33.2,33.4c-18.8,0.1-34.2-15.3-34-33.9
		c0.3-18.7,15.5-33.7,34-33.5C11997.9,570.6,12012.6,585.5,12012.5,604.4z"/>
	<path id="XMLID_288_" class="st2" d="M11979.1,123.3c18.7,0,33.4,14.8,33.4,33.7c0,18.7-14.9,33.8-33.5,33.7
		c-18.6-0.1-33.7-15.3-33.7-33.8C11945.3,138.4,11960.5,123.3,11979.1,123.3z"/>
	<path id="XMLID_286_" class="st2" d="M12146.7,134.5c-18.7-0.1-33.4-14.8-33.4-33.7c0.1-18.6,15.3-33.7,33.8-33.5
		c18.6,0.2,33.4,15.3,33.4,34C12180.4,119.8,12165.5,134.5,12146.7,134.5z"/>
	<path id="XMLID_285_" class="st2" d="M12202.8,526c-18.8,0-33.6-14.8-33.7-33.4c-0.1-18.7,14.8-33.7,33.5-33.7
		c18.7,0,33.7,14.9,33.7,33.5C12236.4,511,12221.4,525.9,12202.8,526z"/>
	<path id="XMLID_284_" class="st2" d="M12202.9,11.6c18.6,0,33.6,15.1,33.4,33.8c-0.2,18.6-15.3,33.4-33.9,33.4
		c-18.4-0.1-33.2-14.9-33.4-33.4C12168.9,26.4,12184,11.5,12202.9,11.6z"/>
	<path id="XMLID_283_" class="st2" d="M12012.5,492.7c-0.1,18.7-14.8,33.4-33.7,33.3c-18.4-0.1-33.3-14.8-33.5-33.3
		c-0.2-18.5,15.1-33.8,34-33.8C11997.9,458.8,12012.6,473.8,12012.5,492.7z"/>
	<path id="XMLID_282_" class="st2" d="M12012.5,45.4c-0.1,18.5-14.9,33.3-33.3,33.3c-18.6,0-33.7-14.8-33.9-33.4
		c-0.2-18.7,15.1-33.7,34.4-33.7C11998.1,11.7,12012.6,26.5,12012.5,45.4z"/>
</g>
<path id="XMLID_77_" class="st31" d="M9172,675.9c128.8,0,512.6,0,512.6,0s-51.3-73.7-139.4-73.7c-88.2,0-105.5,45.3-105.5,45.3
	s-22.7-115-118.8-115s-130,98.1-130,98.1s-37.5-43.5-81.1,0c0,0-55.4-15.3-96.1,26.4C8996.4,674.5,9132.1,675.9,9172,675.9z"/>
<path id="XMLID_1_" class="st31" d="M13510.1,401c177,0,704.5,0,704.5,0s-70.5-101.3-191.6-101.3c-121.2,0-145,62.2-145,62.2
	s-31.2-158.1-163.2-158.1c-132,0-178.7,134.7-178.7,134.7s-51.6-59.8-111.4,0c0,0-76.3-21-132.1,36.3
	C13268.8,399.2,13455.3,401,13510.1,401z"/>
<circle id="XMLID_2_" class="st10" cx="11820.3" cy="81.3" r="71.3"/>
<rect x="11649" y="-32.8" class="st10" width="45.3" height="910.6"/>
</svg>
