<?xml version="1.0" encoding="utf-8"?>
<!-- Generator: Adobe Illustrator 19.0.0, SVG Export Plug-In . SVG Version: 6.00 Build 0)  -->
<svg version="1.1" id="Warstwa_1" xmlns="http://www.w3.org/2000/svg" xmlns:xlink="http://www.w3.org/1999/xlink" x="0px" y="0px"
	 viewBox="-351 145 576 512" style="enable-background:new -351 145 576 512;" xml:space="preserve">
<style type="text/css">
	.st0{fill:#00D1B2;}
</style>
<path class="st0" d="M195.2,154.7c-5.6-12.5-21.6-13-28.3-1.2C135.9,207.4,80.4,241,17,241h-80c-106,0-192,86-192,192
	c0,7,0.8,13.7,1.5,20.5C-189.7,407.8-97.6,369,33,369c8.8,0,16,7.2,16,16s-7.2,16-16,16c-251.4,0-358,154.1-381.6,212
	c-6.6,16.3,1.2,34.9,17.5,41.6c16.4,6.8,35-1.1,41.8-17.3c1.5-3.6,20.9-47.9,71.9-90.6c32.4,43.9,94,85.8,174.9,77.2
	C114.5,612.5,225,471.7,225,299.3C225,249.1,214.2,197.1,195.2,154.7z"/>
</svg>
