<?xml version="1.0" encoding="utf-8"?>
<!-- Generator: Adobe Illustrator 19.0.0, SVG Export Plug-In . SVG Version: 6.00 Build 0)  -->
<svg version="1.1" id="Warstwa_1" xmlns="http://www.w3.org/2000/svg" xmlns:xlink="http://www.w3.org/1999/xlink" x="0px" y="0px"
	 viewBox="-463 145 352 512" style="enable-background:new -463 145 352 512;" xml:space="preserve">
<style type="text/css">
	.st0{fill:#00D1B2;}
</style>
<path class="st0" d="M-287,225c-52.9,0-96,43.1-96,96c0,8.8,7.2,16,16,16s16-7.2,16-16c0-35.3,28.7-64,64-64c8.8,0,16-7.2,16-16
	S-278.2,225-287,225z M-366.9,604.2c0,3.1,0.9,6.2,2.7,8.8l24.5,36.8c3,4.5,8,7.1,13.3,7.1h78.9c5.4,0,10.4-2.7,13.3-7.1l24.5-36.8
	c1.7-2.6,2.7-5.7,2.7-8.8l0.1-43.2h-160L-366.9,604.2z M-287,145c-102.3,0-176,83-176,176c0,44.4,16.5,84.9,43.6,115.8
	c16.6,19,42.7,58.8,52.4,92.2v0.1h48v-0.1c0-4.8-0.7-9.5-2.1-14.1c-5.6-17.8-22.8-64.8-62.2-109.7c-20.5-23.4-31.5-53.1-31.6-84.1
	c-0.2-73.6,59.7-128,128-128c70.6,0,128,57.4,128,128c0,31-11.2,60.9-31.6,84.1c-39.1,44.6-56.4,91.5-62.1,109.5
	c-1.5,4.6-2.2,9.4-2.2,14.3v0.1h48v0c9.7-33.4,35.8-73.2,52.4-92.2c27.1-30.9,43.5-71.4,43.5-115.8C-111,223.8-189.8,145-287,145z"
	/>
</svg>
