<?xml version="1.0" encoding="utf-8"?>
<!-- Generator: Adobe Illustrator 19.0.0, SVG Export Plug-In . SVG Version: 6.00 Build 0)  -->
<svg version="1.1" id="Warstwa_1" xmlns="http://www.w3.org/2000/svg" xmlns:xlink="http://www.w3.org/1999/xlink" x="0px" y="0px"
	 viewBox="-415 145 448 512" style="enable-background:new -415 145 448 512;" xml:space="preserve">
<style type="text/css">
	.st0{fill:#00D1B2;}
</style>
<path class="st0" d="M1,177h-384.1c-17.6,0-31.9,14.5-31.9,32.3v383.4c0,17.8,14.3,32.3,31.9,32.3H1c17.6,0,32-14.5,32-32.3V209.3
	C33,191.5,18.6,177,1,177z M-279.6,561H-346V347.2h66.5V561H-279.6z M-312.8,318c-21.3,0-38.5-17.3-38.5-38.5s17.2-38.5,38.5-38.5
	c21.2,0,38.5,17.3,38.5,38.5C-274.3,300.8-291.5,318-312.8,318z M-30.7,561h-66.4V457c0-24.8-0.5-56.7-34.5-56.7
	c-34.6,0-39.9,27-39.9,54.9V561h-66.4V347.2h63.7v29.2h0.9c8.9-16.8,30.6-34.5,62.9-34.5c67.2,0,79.7,44.3,79.7,101.9V561z"/>
</svg>
