<?xml version="1.0" encoding="utf-8"?>
<!-- Generator: Adobe Illustrator 19.0.0, SVG Export Plug-In . SVG Version: 6.00 Build 0)  -->
<svg version="1.1" id="Warstwa_1" xmlns="http://www.w3.org/2000/svg" xmlns:xlink="http://www.w3.org/1999/xlink" x="0px" y="0px"
	 viewBox="-351 145 576 512" style="enable-background:new -351 145 576 512;" xml:space="preserve">
<style type="text/css">
	.st0{fill:#00D1B2;}
</style>
<path class="st0" d="M209,177c-2,0-4,0.4-6,1.2L33,241h0l-172-60.7c-6.5-2.2-13.4-3.3-20.2-3.3c-6.7,0-13.4,1.1-19.8,3.1
	l-151.8,52.8c-12.1,4.9-20.1,16.6-20.1,29.7V609c0,9.2,7.5,16,16,16c2,0,4-0.4,6-1.2l170-62.8l172,60.7c13,4.3,27,4.4,40,0.2
	L204.9,569c12.2-4.9,20.1-16.6,20.1-29.7V193C225,183.8,217.5,177,209,177z M-127,235.4L1,280.6v286l-128-45.2V235.4z M-303,563
	v-289l128-44.5v286.2l-0.6,0.2L-303,563z M177,527.9L49,572.4V286.3l0.6-0.2L177,238.9V527.9z"/>
</svg>
