<?xml version="1.0" encoding="utf-8"?>
<!-- Generator: Adobe Illustrator 24.1.2, SVG Export Plug-In . SVG Version: 6.00 Build 0)  -->
<svg version="1.1" id="Warstwa_1" xmlns="http://www.w3.org/2000/svg" xmlns:xlink="http://www.w3.org/1999/xlink" x="0px" y="0px"
	 viewBox="0 0 595.28 314.71" style="enable-background:new 0 0 595.28 314.71;" xml:space="preserve">
<style type="text/css">
	.st0{fill:#23C495;}
	.st1{fill:none;stroke:#23C495;stroke-width:0.5;}
	.st2{fill:#404040;}
	.st3{fill:none;stroke:#23C495;stroke-width:4;stroke-linecap:round;}
</style>
<g>
	<g>
		<g>
			<path class="st0" d="M86.76,52.08h15.28c3.45,0,6.5,0.63,9.15,1.88c2.64,1.26,4.69,3.05,6.16,5.38c1.46,2.33,2.19,5.08,2.19,8.24
				c0,3.16-0.73,5.91-2.19,8.24c-1.46,2.33-3.51,4.13-6.16,5.38c-2.64,1.26-5.69,1.88-9.15,1.88H86.76V52.08z M101.6,74.93
				c2.24,0,4.04-0.64,5.38-1.93c1.34-1.28,2.02-3.09,2.02-5.43c0-2.33-0.67-4.14-2.02-5.43c-1.34-1.28-3.14-1.93-5.38-1.93h-4.38
				v14.71H101.6z"/>
			<path class="st0" d="M143.63,61.27c2.24,1.9,3.37,4.84,3.37,8.79v13.02h-9.3v-3.19c-1.15,2.42-3.44,3.63-6.87,3.63
				c-1.92,0-3.55-0.33-4.89-1s-2.36-1.56-3.06-2.7c-0.69-1.14-1.04-2.41-1.04-3.83c0-2.39,0.92-4.21,2.75-5.45
				c1.83-1.24,4.61-1.86,8.33-1.86h4.03c-0.33-1.89-1.85-2.83-4.56-2.83c-1.09,0-2.2,0.17-3.32,0.51c-1.12,0.34-2.08,0.81-2.88,1.4
				l-3.19-6.6c1.39-0.86,3.06-1.53,5.03-2.02c1.96-0.49,3.92-0.73,5.87-0.73C138.14,58.41,141.39,59.36,143.63,61.27z M135.75,76.93
				c0.56-0.38,0.97-0.96,1.24-1.73v-1.68h-2.48c-2.04,0-3.06,0.68-3.06,2.04c0,0.56,0.21,1.03,0.64,1.4
				c0.43,0.37,1.01,0.55,1.75,0.55C134.55,77.5,135.18,77.31,135.75,76.93z"/>
			<path class="st0" d="M168.7,58.41v8.86c-0.8-0.12-1.54-0.18-2.21-0.18c-3.43,0-5.14,1.74-5.14,5.23v10.76h-10.01V58.86h9.52v2.61
				C162.63,59.43,165.24,58.41,168.7,58.41z"/>
			<path class="st0" d="M210.62,61.11c1.76,1.8,2.64,4.52,2.64,8.15v13.82h-10.01V70.99c0-2.78-0.9-4.16-2.7-4.16
				c-0.95,0-1.71,0.35-2.28,1.06c-0.58,0.71-0.86,1.83-0.86,3.37v11.83h-10.01V70.99c0-2.78-0.9-4.16-2.7-4.16
				c-0.95,0-1.71,0.35-2.28,1.06c-0.58,0.71-0.86,1.83-0.86,3.37v11.83h-10.01V58.86h9.52v2.26c1.8-1.8,4.09-2.7,6.87-2.7
				c1.62,0,3.08,0.3,4.38,0.91c1.3,0.61,2.36,1.53,3.19,2.77c0.97-1.18,2.16-2.09,3.54-2.72c1.39-0.63,2.91-0.95,4.56-0.95
				C206.52,58.41,208.87,59.31,210.62,61.11z"/>
			<path class="st0" d="M223.6,81.91c-2.14-1.08-3.82-2.57-5.03-4.47c-1.21-1.9-1.82-4.07-1.82-6.49c0-2.42,0.61-4.58,1.82-6.49
				c1.21-1.9,2.89-3.39,5.03-4.45c2.14-1.06,4.55-1.59,7.24-1.59c2.72,0,5.15,0.53,7.29,1.59s3.81,2.55,5.01,4.45
				c1.2,1.9,1.79,4.07,1.79,6.49c0,2.42-0.6,4.58-1.79,6.49c-1.2,1.9-2.87,3.4-5.01,4.47c-2.14,1.08-4.57,1.62-7.29,1.62
				C228.15,83.53,225.74,82.99,223.6,81.91z M233.68,74.47c0.74-0.84,1.11-2.02,1.11-3.52s-0.37-2.67-1.11-3.5
				c-0.74-0.83-1.68-1.24-2.83-1.24c-1.15,0-2.1,0.41-2.83,1.24c-0.74,0.83-1.11,1.99-1.11,3.5s0.37,2.68,1.11,3.52
				c0.74,0.84,1.68,1.26,2.83,1.26C231.99,75.73,232.94,75.31,233.68,74.47z"/>
			<path class="st0" d="M288.73,58.86l-8.42,24.23h-9.74l-3.68-11.21l-3.81,11.21h-9.74l-8.42-24.23h9.48l4.16,12.8l4.34-12.8h8.5
				l4.21,12.93l4.34-12.93H288.73z"/>
			<path class="st0" d="M316.77,58.86l-9.97,24.72c-1.27,3.16-2.85,5.37-4.74,6.64c-1.89,1.27-4.21,1.9-6.95,1.9
				c-1.36,0-2.72-0.2-4.1-0.6c-1.37-0.4-2.46-0.92-3.26-1.57l3.32-6.87c0.5,0.38,1.07,0.69,1.71,0.93c0.63,0.24,1.25,0.35,1.84,0.35
				c1.09,0,1.92-0.33,2.48-0.97l-10.19-24.54h10.28l5,12.98l5.09-12.98H316.77z"/>
			<path class="st0" d="M343.21,75.64l-1.59,1.73v5.71h-10.01V50.22h10.01V65.9l6.95-7.04h11.83l-10.01,10.5l10.81,13.73H349.1
				L343.21,75.64z"/>
			<path class="st0" d="M380.55,58.41v8.86c-0.8-0.12-1.54-0.18-2.21-0.18c-3.43,0-5.14,1.74-5.14,5.23v10.76h-10.01V58.86h9.52
				v2.61C374.48,59.43,377.09,58.41,380.55,58.41z"/>
			<path class="st0" d="M408.81,73.29h-16.83c0.35,0.92,0.95,1.62,1.77,2.1c0.83,0.49,1.86,0.73,3.1,0.73c1.06,0,1.96-0.13,2.68-0.4
				s1.51-0.72,2.37-1.37l5.23,5.27c-2.36,2.6-5.89,3.9-10.59,3.9c-2.92,0-5.49-0.54-7.71-1.62c-2.21-1.08-3.93-2.58-5.14-4.5
				c-1.21-1.92-1.82-4.07-1.82-6.47c0-2.42,0.6-4.58,1.79-6.49c1.2-1.9,2.83-3.39,4.92-4.45c2.08-1.06,4.42-1.59,7.02-1.59
				c2.45,0,4.69,0.49,6.71,1.46c2.02,0.97,3.63,2.41,4.83,4.3c1.2,1.89,1.79,4.15,1.79,6.78C408.94,71.1,408.9,71.88,408.81,73.29z
				 M393.13,66.08c-0.68,0.56-1.12,1.36-1.33,2.39h7.79c-0.21-1-0.65-1.79-1.33-2.37c-0.68-0.58-1.54-0.86-2.57-0.86
				C394.66,65.23,393.81,65.51,393.13,66.08z"/>
			<path class="st0" d="M432.02,61.27c2.24,1.9,3.37,4.84,3.37,8.79v13.02h-9.3v-3.19c-1.15,2.42-3.44,3.63-6.87,3.63
				c-1.92,0-3.55-0.33-4.89-1s-2.36-1.56-3.06-2.7c-0.69-1.14-1.04-2.41-1.04-3.83c0-2.39,0.92-4.21,2.75-5.45
				c1.83-1.24,4.61-1.86,8.33-1.86h4.03c-0.33-1.89-1.85-2.83-4.56-2.83c-1.09,0-2.2,0.17-3.32,0.51c-1.12,0.34-2.08,0.81-2.88,1.4
				l-3.19-6.6c1.39-0.86,3.06-1.53,5.03-2.02c1.96-0.49,3.92-0.73,5.87-0.73C426.53,58.41,429.77,59.36,432.02,61.27z M424.13,76.93
				c0.56-0.38,0.97-0.96,1.24-1.73v-1.68h-2.48c-2.04,0-3.06,0.68-3.06,2.04c0,0.56,0.21,1.03,0.64,1.4
				c0.43,0.37,1.01,0.55,1.75,0.55C422.94,77.5,423.57,77.31,424.13,76.93z"/>
			<path class="st0" d="M457.57,82.24c-1.51,0.86-3.56,1.28-6.16,1.28c-3.4,0-6.01-0.82-7.84-2.46c-1.83-1.64-2.75-4.1-2.75-7.38
				v-6.2h-3.32v-7.31h3.32v-6.78h10.01v6.78h4.96v7.31h-4.96v6.11c0,0.74,0.19,1.31,0.58,1.73s0.89,0.62,1.51,0.62
				c0.86,0,1.61-0.22,2.26-0.66L457.57,82.24z"/>
			<path class="st0" d="M464.99,81.91c-2.14-1.08-3.82-2.57-5.03-4.47c-1.21-1.9-1.82-4.07-1.82-6.49c0-2.42,0.6-4.58,1.82-6.49
				c1.21-1.9,2.89-3.39,5.03-4.45s4.55-1.59,7.24-1.59c2.72,0,5.14,0.53,7.29,1.59c2.14,1.06,3.81,2.55,5,4.45
				c1.2,1.9,1.79,4.07,1.79,6.49c0,2.42-0.6,4.58-1.79,6.49c-1.2,1.9-2.86,3.4-5,4.47c-2.14,1.08-4.57,1.62-7.29,1.62
				C469.55,83.53,467.13,82.99,464.99,81.91z M475.07,74.47c0.74-0.84,1.11-2.02,1.11-3.52s-0.37-2.67-1.11-3.5
				c-0.74-0.83-1.68-1.24-2.83-1.24s-2.1,0.41-2.83,1.24c-0.74,0.83-1.11,1.99-1.11,3.5s0.37,2.68,1.11,3.52
				c0.74,0.84,1.68,1.26,2.83,1.26S474.33,75.31,475.07,74.47z"/>
			<path class="st0" d="M506.83,58.41v8.86c-0.8-0.12-1.54-0.18-2.21-0.18c-3.43,0-5.14,1.74-5.14,5.23v10.76h-10.01V58.86h9.52
				v2.61C500.76,59.43,503.37,58.41,506.83,58.41z"/>
			<path class="st0" d="M98.05,128.79l-1.59,1.73v5.71H86.45v-32.87h10.01v15.68l6.95-7.04h11.83l-10.01,10.5l10.81,13.73h-12.09
				L98.05,128.79z"/>
			<path class="st0" d="M138.18,114.42c2.24,1.9,3.37,4.84,3.37,8.79v13.02h-9.3v-3.19c-1.15,2.42-3.44,3.63-6.87,3.63
				c-1.92,0-3.55-0.33-4.89-1s-2.36-1.56-3.06-2.7c-0.69-1.14-1.04-2.41-1.04-3.83c0-2.39,0.92-4.21,2.75-5.45
				c1.83-1.24,4.61-1.86,8.33-1.86h4.03c-0.33-1.89-1.85-2.83-4.56-2.83c-1.09,0-2.2,0.17-3.32,0.51c-1.12,0.34-2.08,0.81-2.88,1.4
				l-3.19-6.6c1.39-0.86,3.06-1.53,5.03-2.02c1.96-0.49,3.92-0.73,5.87-0.73C132.69,111.56,135.94,112.52,138.18,114.42z
				 M130.3,130.08c0.56-0.38,0.97-0.96,1.24-1.73v-1.68h-2.48c-2.04,0-3.06,0.68-3.06,2.04c0,0.56,0.21,1.03,0.64,1.4
				c0.43,0.37,1.01,0.55,1.75,0.55C129.1,130.65,129.74,130.46,130.3,130.08z"/>
			<path class="st0" d="M145.89,103.37h10.01v32.87h-10.01V103.37z"/>
			<path class="st0" d="M185.97,126.45h-16.83c0.35,0.92,0.94,1.62,1.77,2.1c0.83,0.49,1.86,0.73,3.1,0.73
				c1.06,0,1.96-0.13,2.68-0.4s1.51-0.72,2.37-1.37l5.23,5.27c-2.36,2.6-5.89,3.9-10.59,3.9c-2.92,0-5.49-0.54-7.71-1.62
				c-2.21-1.08-3.93-2.58-5.14-4.5c-1.21-1.92-1.82-4.07-1.82-6.47c0-2.42,0.6-4.58,1.79-6.49c1.2-1.9,2.83-3.39,4.92-4.45
				s4.42-1.59,7.02-1.59c2.45,0,4.69,0.49,6.71,1.46c2.02,0.97,3.63,2.41,4.83,4.3c1.2,1.89,1.79,4.15,1.79,6.78
				C186.11,124.25,186.06,125.03,185.97,126.45z M170.29,119.23c-0.68,0.56-1.12,1.36-1.33,2.39h7.8c-0.21-1-0.65-1.79-1.33-2.37
				s-1.54-0.86-2.57-0.86C171.83,118.38,170.97,118.67,170.29,119.23z"/>
			<path class="st0" d="M213.28,114.27c1.82,1.8,2.72,4.52,2.72,8.15v13.82h-10.01v-12.09c0-2.78-0.99-4.16-2.97-4.16
				c-1.12,0-2.03,0.39-2.72,1.17c-0.69,0.78-1.04,2.02-1.04,3.7v11.38h-10.01v-24.23h9.52v2.39c0.95-0.94,2.04-1.65,3.28-2.13
				c1.24-0.47,2.58-0.71,4.03-0.71C209.06,111.56,211.46,112.46,213.28,114.27z"/>
			<path class="st0" d="M247.58,103.37v32.87h-9.52v-1.99c-1.45,1.62-3.66,2.44-6.64,2.44c-2.13,0-4.08-0.51-5.87-1.53
				c-1.79-1.02-3.2-2.49-4.25-4.41c-1.05-1.92-1.57-4.13-1.57-6.64c0-2.51,0.52-4.72,1.57-6.62c1.05-1.9,2.46-3.37,4.25-4.39
				c1.79-1.02,3.74-1.53,5.87-1.53c2.69,0,4.74,0.69,6.16,2.08v-10.28H247.58z M236.64,127.62c0.74-0.84,1.11-2.02,1.11-3.52
				s-0.37-2.67-1.11-3.5c-0.74-0.83-1.68-1.24-2.83-1.24c-1.15,0-2.1,0.41-2.83,1.24c-0.74,0.83-1.11,1.99-1.11,3.5
				s0.37,2.68,1.11,3.52c0.74,0.84,1.68,1.26,2.83,1.26C234.96,128.88,235.91,128.46,236.64,127.62z"/>
			<path class="st0" d="M272.61,114.42c2.24,1.9,3.37,4.84,3.37,8.79v13.02h-9.3v-3.19c-1.15,2.42-3.44,3.63-6.87,3.63
				c-1.92,0-3.55-0.33-4.89-1c-1.34-0.66-2.36-1.56-3.06-2.7c-0.69-1.14-1.04-2.41-1.04-3.83c0-2.39,0.92-4.21,2.75-5.45
				s4.61-1.86,8.33-1.86h4.03c-0.33-1.89-1.85-2.83-4.56-2.83c-1.09,0-2.2,0.17-3.32,0.51c-1.12,0.34-2.08,0.81-2.88,1.4l-3.19-6.6
				c1.39-0.86,3.06-1.53,5.03-2.02c1.96-0.49,3.92-0.73,5.87-0.73C267.12,111.56,270.36,112.52,272.61,114.42z M264.72,130.08
				c0.56-0.38,0.97-0.96,1.24-1.73v-1.68h-2.48c-2.04,0-3.06,0.68-3.06,2.04c0,0.56,0.21,1.03,0.64,1.4
				c0.43,0.37,1.01,0.55,1.75,0.55C263.53,130.65,264.16,130.46,264.72,130.08z"/>
			<path class="st0" d="M297.68,111.56v8.86c-0.8-0.12-1.54-0.18-2.21-0.18c-3.43,0-5.14,1.74-5.14,5.23v10.76h-10.01v-24.23h9.52
				v2.61C291.61,112.58,294.22,111.56,297.68,111.56z"/>
			<path class="st0" d="M322.75,128.93v7.31h-23.12v-5.76l10.01-11.16h-9.66v-7.31h22.28v5.76l-10.01,11.16H322.75z"/>
			<path class="st0" d="M352.29,112.01l-9.97,24.72c-1.27,3.16-2.85,5.37-4.74,6.64c-1.89,1.27-4.21,1.9-6.95,1.9
				c-1.36,0-2.72-0.2-4.1-0.6c-1.37-0.4-2.46-0.92-3.25-1.57l3.32-6.87c0.5,0.38,1.07,0.69,1.71,0.93c0.63,0.24,1.25,0.35,1.84,0.35
				c1.09,0,1.92-0.33,2.48-0.97l-10.19-24.54h10.28l5.01,12.98l5.09-12.98H352.29z"/>
		</g>
		<g>
			<path class="st1" d="M88.76,54.18h15.28c3.45,0,6.5,0.63,9.15,1.88c2.64,1.26,4.69,3.05,6.16,5.38c1.46,2.33,2.19,5.08,2.19,8.24
				c0,3.16-0.73,5.91-2.19,8.24c-1.46,2.33-3.51,4.13-6.16,5.38c-2.64,1.26-5.69,1.88-9.15,1.88H88.76V54.18z M103.6,77.04
				c2.24,0,4.04-0.64,5.38-1.93c1.34-1.28,2.02-3.09,2.02-5.43c0-2.33-0.67-4.14-2.02-5.43c-1.34-1.28-3.14-1.93-5.38-1.93h-4.39
				v14.71H103.6z"/>
			<path class="st1" d="M145.63,63.37c2.24,1.9,3.37,4.84,3.37,8.79v13.02h-9.3V82c-1.15,2.42-3.44,3.63-6.87,3.63
				c-1.92,0-3.55-0.33-4.89-1c-1.34-0.66-2.36-1.56-3.06-2.7c-0.69-1.14-1.04-2.41-1.04-3.83c0-2.39,0.92-4.21,2.75-5.45
				c1.83-1.24,4.61-1.86,8.33-1.86h4.03c-0.33-1.89-1.85-2.83-4.56-2.83c-1.09,0-2.2,0.17-3.32,0.51c-1.12,0.34-2.08,0.81-2.88,1.4
				l-3.19-6.6c1.39-0.86,3.06-1.53,5.03-2.02c1.96-0.49,3.92-0.73,5.87-0.73C140.14,60.52,143.39,61.47,145.63,63.37z M137.75,79.03
				c0.56-0.38,0.97-0.96,1.24-1.73v-1.68h-2.48c-2.04,0-3.06,0.68-3.06,2.04c0,0.56,0.21,1.03,0.64,1.4
				c0.43,0.37,1.01,0.55,1.75,0.55C136.55,79.61,137.18,79.42,137.75,79.03z"/>
			<path class="st1" d="M170.7,60.52v8.86c-0.8-0.12-1.54-0.18-2.21-0.18c-3.43,0-5.14,1.74-5.14,5.23v10.76h-10.01V60.96h9.52v2.61
				C164.63,61.54,167.24,60.52,170.7,60.52z"/>
			<path class="st1" d="M212.62,63.22c1.76,1.8,2.64,4.52,2.64,8.15v13.82h-10.01V73.1c0-2.78-0.9-4.16-2.7-4.16
				c-0.95,0-1.71,0.35-2.28,1.06s-0.86,1.83-0.86,3.37v11.83h-10.01V73.1c0-2.78-0.9-4.16-2.7-4.16c-0.95,0-1.71,0.35-2.28,1.06
				s-0.86,1.83-0.86,3.37v11.83h-10.01V60.96h9.52v2.26c1.8-1.8,4.09-2.7,6.87-2.7c1.62,0,3.08,0.3,4.38,0.91
				c1.3,0.61,2.36,1.53,3.19,2.77c0.97-1.18,2.16-2.09,3.54-2.72c1.39-0.63,2.91-0.95,4.56-0.95
				C208.53,60.52,210.87,61.42,212.62,63.22z"/>
			<path class="st1" d="M225.6,84.01c-2.14-1.08-3.82-2.57-5.03-4.47c-1.21-1.9-1.82-4.07-1.82-6.49c0-2.42,0.6-4.58,1.82-6.49
				c1.21-1.9,2.89-3.39,5.03-4.45c2.14-1.06,4.55-1.59,7.24-1.59c2.72,0,5.15,0.53,7.29,1.59c2.14,1.06,3.81,2.55,5.01,4.45
				c1.2,1.9,1.79,4.07,1.79,6.49c0,2.42-0.6,4.58-1.79,6.49c-1.2,1.9-2.86,3.4-5.01,4.47c-2.14,1.08-4.57,1.62-7.29,1.62
				C230.15,85.63,227.74,85.09,225.6,84.01z M235.68,76.57c0.74-0.84,1.11-2.02,1.11-3.52s-0.37-2.67-1.11-3.5
				c-0.74-0.83-1.68-1.24-2.83-1.24c-1.15,0-2.1,0.41-2.83,1.24c-0.74,0.83-1.11,1.99-1.11,3.5s0.37,2.68,1.11,3.52
				c0.74,0.84,1.68,1.26,2.83,1.26C233.99,77.84,234.94,77.42,235.68,76.57z"/>
			<path class="st1" d="M290.73,60.96l-8.42,24.23h-9.74l-3.68-11.21l-3.81,11.21h-9.74l-8.42-24.23h9.48l4.16,12.8l4.34-12.8h8.5
				l4.21,12.93l4.34-12.93H290.73z"/>
			<path class="st1" d="M318.77,60.96l-9.97,24.72c-1.27,3.16-2.85,5.37-4.74,6.64c-1.89,1.27-4.21,1.9-6.95,1.9
				c-1.36,0-2.72-0.2-4.1-0.6c-1.37-0.4-2.46-0.92-3.26-1.57l3.32-6.87c0.5,0.38,1.07,0.69,1.71,0.93c0.63,0.24,1.25,0.35,1.84,0.35
				c1.09,0,1.92-0.33,2.48-0.97l-10.19-24.54h10.28l5,12.98l5.09-12.98H318.77z"/>
			<path class="st1" d="M345.21,77.75l-1.59,1.73v5.71h-10.01V52.32h10.01V68l6.95-7.04h11.83l-10.01,10.5l10.81,13.73H351.1
				L345.21,77.75z"/>
			<path class="st1" d="M382.55,60.52v8.86c-0.8-0.12-1.54-0.18-2.21-0.18c-3.43,0-5.14,1.74-5.14,5.23v10.76h-10.01V60.96h9.52
				v2.61C376.48,61.54,379.09,60.52,382.55,60.52z"/>
			<path class="st1" d="M410.81,75.4h-16.83c0.35,0.92,0.95,1.62,1.77,2.1c0.83,0.49,1.86,0.73,3.1,0.73c1.06,0,1.96-0.13,2.68-0.4
				s1.51-0.72,2.37-1.37l5.23,5.27c-2.36,2.6-5.89,3.9-10.59,3.9c-2.92,0-5.49-0.54-7.71-1.62c-2.21-1.08-3.93-2.58-5.14-4.5
				c-1.21-1.92-1.82-4.07-1.82-6.47c0-2.42,0.6-4.58,1.79-6.49c1.2-1.9,2.83-3.39,4.92-4.45c2.08-1.06,4.42-1.59,7.02-1.59
				c2.45,0,4.69,0.49,6.71,1.46c2.02,0.97,3.63,2.41,4.83,4.3c1.2,1.89,1.79,4.15,1.79,6.78C410.94,73.2,410.9,73.98,410.81,75.4z
				 M395.13,68.18c-0.68,0.56-1.12,1.36-1.33,2.39h7.79c-0.21-1-0.65-1.79-1.33-2.37c-0.68-0.58-1.54-0.86-2.57-0.86
				C396.66,67.34,395.81,67.62,395.13,68.18z"/>
			<path class="st1" d="M434.02,63.37c2.24,1.9,3.37,4.84,3.37,8.79v13.02h-9.3V82c-1.15,2.42-3.44,3.63-6.87,3.63
				c-1.92,0-3.55-0.33-4.89-1s-2.36-1.56-3.06-2.7c-0.69-1.14-1.04-2.41-1.04-3.83c0-2.39,0.92-4.21,2.75-5.45
				c1.83-1.24,4.61-1.86,8.33-1.86h4.03c-0.33-1.89-1.85-2.83-4.56-2.83c-1.09,0-2.2,0.17-3.32,0.51c-1.12,0.34-2.08,0.81-2.88,1.4
				l-3.19-6.6c1.39-0.86,3.06-1.53,5.03-2.02c1.96-0.49,3.92-0.73,5.87-0.73C428.53,60.52,431.77,61.47,434.02,63.37z M426.13,79.03
				c0.56-0.38,0.97-0.96,1.24-1.73v-1.68h-2.48c-2.04,0-3.06,0.68-3.06,2.04c0,0.56,0.21,1.03,0.64,1.4
				c0.43,0.37,1.01,0.55,1.75,0.55C424.94,79.61,425.57,79.42,426.13,79.03z"/>
			<path class="st1" d="M459.57,84.35c-1.51,0.86-3.56,1.28-6.16,1.28c-3.4,0-6.01-0.82-7.84-2.46c-1.83-1.64-2.75-4.1-2.75-7.38
				v-6.2h-3.32v-7.31h3.32v-6.78h10.01v6.78h4.96v7.31h-4.96v6.11c0,0.74,0.19,1.31,0.58,1.73s0.89,0.62,1.51,0.62
				c0.86,0,1.61-0.22,2.26-0.66L459.57,84.35z"/>
			<path class="st1" d="M466.99,84.01c-2.14-1.08-3.82-2.57-5.03-4.47c-1.21-1.9-1.82-4.07-1.82-6.49c0-2.42,0.6-4.58,1.82-6.49
				c1.21-1.9,2.89-3.39,5.03-4.45s4.55-1.59,7.24-1.59c2.72,0,5.14,0.53,7.29,1.59c2.14,1.06,3.81,2.55,5,4.45
				c1.2,1.9,1.79,4.07,1.79,6.49c0,2.42-0.6,4.58-1.79,6.49c-1.2,1.9-2.86,3.4-5,4.47c-2.14,1.08-4.57,1.62-7.29,1.62
				C471.55,85.63,469.13,85.09,466.99,84.01z M477.07,76.57c0.74-0.84,1.11-2.02,1.11-3.52s-0.37-2.67-1.11-3.5
				c-0.74-0.83-1.68-1.24-2.83-1.24s-2.1,0.41-2.83,1.24c-0.74,0.83-1.11,1.99-1.11,3.5s0.37,2.68,1.11,3.52
				c0.74,0.84,1.68,1.26,2.83,1.26S476.33,77.42,477.07,76.57z"/>
			<path class="st1" d="M508.83,60.52v8.86c-0.8-0.12-1.54-0.18-2.21-0.18c-3.43,0-5.14,1.74-5.14,5.23v10.76h-10.01V60.96h9.52
				v2.61C502.76,61.54,505.37,60.52,508.83,60.52z"/>
			<path class="st1" d="M100.05,130.9l-1.59,1.73v5.71H88.45v-32.87h10.01v15.68l6.95-7.04h11.83l-10.01,10.5l10.81,13.73h-12.09
				L100.05,130.9z"/>
			<path class="st1" d="M140.18,116.53c2.24,1.9,3.37,4.84,3.37,8.79v13.02h-9.3v-3.19c-1.15,2.42-3.44,3.63-6.87,3.63
				c-1.92,0-3.55-0.33-4.89-1c-1.34-0.66-2.36-1.56-3.06-2.7c-0.69-1.14-1.04-2.41-1.04-3.83c0-2.39,0.92-4.21,2.75-5.45
				c1.83-1.24,4.61-1.86,8.33-1.86h4.03c-0.33-1.89-1.85-2.83-4.56-2.83c-1.09,0-2.2,0.17-3.32,0.51c-1.12,0.34-2.08,0.81-2.88,1.4
				l-3.19-6.6c1.39-0.86,3.06-1.53,5.03-2.02c1.96-0.49,3.92-0.73,5.87-0.73C134.69,113.67,137.94,114.62,140.18,116.53z
				 M132.3,132.18c0.56-0.38,0.97-0.96,1.24-1.73v-1.68h-2.48c-2.04,0-3.06,0.68-3.06,2.04c0,0.56,0.21,1.03,0.64,1.4
				c0.43,0.37,1.01,0.55,1.75,0.55C131.1,132.76,131.74,132.57,132.3,132.18z"/>
			<path class="st1" d="M147.89,105.47h10.01v32.87h-10.01V105.47z"/>
			<path class="st1" d="M187.97,128.55h-16.83c0.35,0.92,0.94,1.62,1.77,2.1c0.83,0.49,1.86,0.73,3.1,0.73
				c1.06,0,1.96-0.13,2.68-0.4s1.51-0.72,2.37-1.37l5.23,5.27c-2.36,2.6-5.89,3.9-10.59,3.9c-2.92,0-5.49-0.54-7.71-1.62
				c-2.21-1.08-3.93-2.58-5.14-4.5c-1.21-1.92-1.82-4.07-1.82-6.47c0-2.42,0.6-4.58,1.79-6.49c1.2-1.9,2.83-3.39,4.92-4.45
				c2.08-1.06,4.42-1.59,7.02-1.59c2.45,0,4.69,0.49,6.71,1.46c2.02,0.97,3.63,2.41,4.83,4.3c1.2,1.89,1.79,4.15,1.79,6.78
				C188.11,126.35,188.06,127.13,187.97,128.55z M172.29,121.33c-0.68,0.56-1.12,1.36-1.33,2.39h7.8c-0.21-1-0.65-1.79-1.33-2.37
				c-0.68-0.58-1.54-0.86-2.57-0.86C173.83,120.49,172.97,120.77,172.29,121.33z"/>
			<path class="st1" d="M215.28,116.37c1.82,1.8,2.72,4.52,2.72,8.15v13.82h-10.01v-12.09c0-2.78-0.99-4.16-2.97-4.16
				c-1.12,0-2.03,0.39-2.72,1.17c-0.69,0.78-1.04,2.02-1.04,3.7v11.38h-10.01v-24.23h9.52v2.39c0.94-0.94,2.04-1.65,3.28-2.13
				c1.24-0.47,2.58-0.71,4.03-0.71C211.06,113.67,213.46,114.57,215.28,116.37z"/>
			<path class="st1" d="M249.58,105.47v32.87h-9.52v-1.99c-1.45,1.62-3.66,2.44-6.64,2.44c-2.13,0-4.08-0.51-5.87-1.53
				c-1.79-1.02-3.2-2.49-4.25-4.41c-1.05-1.92-1.57-4.13-1.57-6.64c0-2.51,0.52-4.72,1.57-6.62c1.05-1.9,2.46-3.37,4.25-4.39
				c1.79-1.02,3.74-1.53,5.87-1.53c2.69,0,4.74,0.69,6.16,2.08v-10.28H249.58z M238.64,129.73c0.74-0.84,1.11-2.02,1.11-3.52
				s-0.37-2.67-1.11-3.5c-0.74-0.83-1.68-1.24-2.83-1.24c-1.15,0-2.1,0.41-2.83,1.24c-0.74,0.83-1.11,1.99-1.11,3.5
				s0.37,2.68,1.11,3.52c0.74,0.84,1.68,1.26,2.83,1.26C236.96,130.99,237.91,130.57,238.64,129.73z"/>
			<path class="st1" d="M274.61,116.53c2.24,1.9,3.37,4.84,3.37,8.79v13.02h-9.3v-3.19c-1.15,2.42-3.44,3.63-6.87,3.63
				c-1.92,0-3.55-0.33-4.89-1c-1.34-0.66-2.36-1.56-3.06-2.7c-0.69-1.14-1.04-2.41-1.04-3.83c0-2.39,0.92-4.21,2.75-5.45
				c1.83-1.24,4.61-1.86,8.33-1.86h4.03c-0.33-1.89-1.85-2.83-4.56-2.83c-1.09,0-2.2,0.17-3.32,0.51c-1.12,0.34-2.08,0.81-2.88,1.4
				l-3.19-6.6c1.39-0.86,3.06-1.53,5.03-2.02c1.96-0.49,3.92-0.73,5.87-0.73C269.12,113.67,272.36,114.62,274.61,116.53z
				 M266.73,132.18c0.56-0.38,0.97-0.96,1.24-1.73v-1.68h-2.48c-2.04,0-3.06,0.68-3.06,2.04c0,0.56,0.21,1.03,0.64,1.4
				c0.43,0.37,1.01,0.55,1.75,0.55C265.53,132.76,266.16,132.57,266.73,132.18z"/>
			<path class="st1" d="M299.68,113.67v8.86c-0.8-0.12-1.54-0.18-2.21-0.18c-3.43,0-5.14,1.74-5.14,5.23v10.76h-10.01v-24.23h9.52
				v2.61C293.61,114.69,296.22,113.67,299.68,113.67z"/>
			<path class="st1" d="M324.75,131.03v7.31h-23.12v-5.76l10.01-11.16h-9.66v-7.31h22.28v5.76l-10.01,11.16H324.75z"/>
			<path class="st1" d="M354.29,114.11l-9.97,24.72c-1.27,3.16-2.85,5.37-4.74,6.64c-1.89,1.27-4.21,1.9-6.95,1.9
				c-1.36,0-2.72-0.2-4.1-0.6c-1.37-0.4-2.46-0.92-3.25-1.57l3.32-6.87c0.5,0.38,1.07,0.69,1.71,0.93c0.63,0.24,1.25,0.35,1.84,0.35
				c1.09,0,1.92-0.33,2.48-0.97l-10.19-24.54h10.28l5.01,12.98l5.09-12.98H354.29z"/>
		</g>
	</g>
	<g>
		<path class="st2" d="M105.22,216.78v2.79H86.45v-2.18l14.12-17.49H86.67v-2.79h18.13v2.18l-14.05,17.49H105.22z"/>
		<path class="st2" d="M120.73,204.14c1.25,1.16,1.88,2.88,1.88,5.17v10.27h-2.92v-2.25c-0.51,0.79-1.25,1.4-2.2,1.81
			c-0.95,0.42-2.08,0.63-3.38,0.63c-1.9,0-3.43-0.46-4.57-1.38c-1.14-0.92-1.72-2.13-1.72-3.63c0-1.5,0.55-2.7,1.64-3.61
			c1.09-0.91,2.82-1.36,5.2-1.36h4.88v-0.61c0-1.33-0.39-2.34-1.16-3.05c-0.77-0.71-1.9-1.06-3.4-1.06c-1.01,0-1.99,0.17-2.95,0.5
			c-0.96,0.33-1.78,0.78-2.44,1.33l-1.28-2.31c0.88-0.71,1.93-1.25,3.14-1.62c1.22-0.37,2.51-0.56,3.88-0.56
			C117.68,202.41,119.48,202.98,120.73,204.14z M117.67,216.6c0.85-0.52,1.48-1.27,1.86-2.23V212h-4.75c-2.61,0-3.91,0.88-3.91,2.63
			c0,0.86,0.33,1.53,0.99,2.02c0.66,0.49,1.58,0.74,2.76,0.74C115.8,217.39,116.81,217.13,117.67,216.6z"/>
		<path class="st2" d="M141.76,203.5c1.3,0.73,2.33,1.74,3.06,3.05c0.74,1.3,1.11,2.81,1.11,4.52c0,1.71-0.37,3.22-1.11,4.54
			c-0.74,1.32-1.76,2.34-3.06,3.06c-1.3,0.73-2.78,1.09-4.43,1.09c-1.22,0-2.34-0.23-3.35-0.71c-1.02-0.47-1.88-1.16-2.58-2.05v8.79
			h-3.08v-23.23h2.95v2.7c0.68-0.94,1.55-1.65,2.6-2.13c1.05-0.48,2.2-0.72,3.46-0.72C138.98,202.41,140.46,202.77,141.76,203.5z
			 M140.01,216.32c0.87-0.5,1.55-1.21,2.05-2.12c0.5-0.91,0.75-1.95,0.75-3.13s-0.25-2.22-0.75-3.13c-0.5-0.91-1.19-1.61-2.05-2.1
			c-0.87-0.49-1.84-0.74-2.94-0.74c-1.07,0-2.04,0.25-2.9,0.75c-0.87,0.5-1.55,1.2-2.05,2.1s-0.75,1.94-0.75,3.11
			s0.25,2.22,0.74,3.13c0.49,0.91,1.18,1.62,2.05,2.12c0.88,0.5,1.85,0.75,2.92,0.75C138.17,217.07,139.15,216.82,140.01,216.32z"/>
		<path class="st2" d="M155.53,203.18c1.05-0.51,2.32-0.77,3.82-0.77v2.98c-0.17-0.02-0.41-0.03-0.71-0.03
			c-1.67,0-2.98,0.5-3.93,1.49c-0.95,0.99-1.43,2.41-1.43,4.25v8.47h-3.08v-17.01h2.95v2.86
			C153.69,204.44,154.48,203.69,155.53,203.18z"/>
		<path class="st2" d="M165.7,218.64c-1.35-0.75-2.4-1.78-3.16-3.1c-0.76-1.32-1.14-2.81-1.14-4.48s0.38-3.16,1.14-4.48
			c0.76-1.32,1.81-2.34,3.16-3.08s2.87-1.11,4.56-1.11c1.69,0,3.2,0.37,4.54,1.11c1.34,0.74,2.38,1.76,3.14,3.08
			c0.76,1.32,1.14,2.81,1.14,4.48s-0.38,3.16-1.14,4.48c-0.76,1.32-1.81,2.35-3.14,3.1c-1.34,0.75-2.85,1.12-4.54,1.12
			C168.57,219.76,167.05,219.39,165.7,218.64z M173.19,216.32c0.87-0.5,1.55-1.21,2.04-2.12c0.49-0.91,0.74-1.95,0.74-3.13
			s-0.25-2.22-0.74-3.13c-0.49-0.91-1.17-1.61-2.04-2.1c-0.87-0.49-1.84-0.74-2.94-0.74s-2.07,0.25-2.94,0.74
			c-0.87,0.49-1.55,1.19-2.05,2.1c-0.5,0.91-0.75,1.95-0.75,3.13s0.25,2.22,0.75,3.13c0.5,0.91,1.19,1.62,2.05,2.12
			c0.87,0.5,1.85,0.75,2.94,0.75S172.32,216.82,173.19,216.32z"/>
		<path class="st2" d="M179.08,225.73c-0.64-0.17-1.18-0.43-1.6-0.77l0.99-2.37c0.64,0.53,1.48,0.8,2.5,0.8
			c0.81,0,1.44-0.25,1.88-0.75s0.66-1.25,0.66-2.23v-17.84h3.08v17.78c0,1.75-0.47,3.13-1.41,4.14c-0.94,1-2.28,1.51-4.01,1.51
			C180.42,225.99,179.72,225.9,179.08,225.73z M183.55,198.72c-0.4-0.38-0.59-0.85-0.59-1.41c0-0.56,0.2-1.03,0.59-1.43
			c0.4-0.4,0.89-0.59,1.49-0.59c0.6,0,1.1,0.19,1.49,0.56c0.4,0.37,0.59,0.84,0.59,1.4c0,0.58-0.2,1.06-0.59,1.46
			c-0.4,0.4-0.89,0.59-1.49,0.59C184.45,199.29,183.95,199.1,183.55,198.72z"/>
		<path class="st2" d="M207.76,212.1h-13.8c0.19,1.5,0.85,2.7,1.97,3.61s2.52,1.36,4.19,1.36c2.03,0,3.67-0.68,4.91-2.05l1.7,1.99
			c-0.77,0.9-1.73,1.58-2.87,2.05c-1.14,0.47-2.42,0.71-3.83,0.71c-1.8,0-3.39-0.37-4.78-1.11c-1.39-0.74-2.47-1.77-3.22-3.1
			c-0.76-1.33-1.14-2.82-1.14-4.49c0-1.65,0.37-3.13,1.11-4.46c0.74-1.33,1.75-2.36,3.05-3.1c1.29-0.74,2.75-1.11,4.38-1.11
			c1.63,0,3.07,0.37,4.35,1.11c1.27,0.74,2.27,1.77,2.98,3.1c0.72,1.33,1.07,2.85,1.07,4.56C207.83,211.4,207.8,211.71,207.76,212.1
			z M195.71,206.35c-0.99,0.9-1.58,2.08-1.75,3.53h10.91c-0.17-1.43-0.75-2.6-1.75-3.51c-0.99-0.91-2.23-1.36-3.71-1.36
			S196.71,205.45,195.71,206.35z"/>
		<path class="st2" d="M218.7,211.65l-3.53,3.27v4.65h-3.08v-23.81h3.08v15.27l9.27-8.47h3.72l-7.16,7.03l7.86,9.98h-3.79
			L218.7,211.65z"/>
		<path class="st2" d="M241.42,218.58c-0.45,0.39-1.01,0.68-1.67,0.88s-1.35,0.3-2.05,0.3c-1.71,0-3.04-0.46-3.98-1.38
			c-0.94-0.92-1.41-2.23-1.41-3.95v-9.34h-2.89v-2.54h2.89v-3.72h3.08v3.72h4.88v2.54h-4.88v9.21c0,0.92,0.23,1.63,0.69,2.12
			c0.46,0.49,1.12,0.74,1.97,0.74c0.94,0,1.74-0.27,2.41-0.8L241.42,218.58z"/>
		<path class="st2" d="M260.99,202.57v17.01h-2.92v-2.57c-0.62,0.88-1.44,1.56-2.45,2.04c-1.02,0.48-2.12,0.72-3.32,0.72
			c-2.27,0-4.05-0.63-5.36-1.88s-1.96-3.1-1.96-5.53v-9.79h3.08V212c0,1.65,0.4,2.89,1.19,3.74c0.79,0.85,1.92,1.27,3.4,1.27
			c1.63,0,2.91-0.49,3.85-1.48c0.94-0.98,1.41-2.37,1.41-4.17v-8.79H260.99z"/>
		<path class="st2" d="M262.59,225.73c-0.64-0.17-1.18-0.43-1.6-0.77l0.99-2.37c0.64,0.53,1.48,0.8,2.5,0.8
			c0.81,0,1.44-0.25,1.88-0.75s0.66-1.25,0.66-2.23v-17.84h3.08v17.78c0,1.75-0.47,3.13-1.41,4.14c-0.94,1-2.28,1.51-4.01,1.51
			C263.93,225.99,263.24,225.9,262.59,225.73z M267.07,198.72c-0.4-0.38-0.59-0.85-0.59-1.41c0-0.56,0.2-1.03,0.59-1.43
			c0.4-0.4,0.89-0.59,1.49-0.59c0.6,0,1.1,0.19,1.49,0.56c0.4,0.37,0.59,0.84,0.59,1.4c0,0.58-0.2,1.06-0.59,1.46
			c-0.4,0.4-0.89,0.59-1.49,0.59C267.96,199.29,267.47,199.1,267.07,198.72z"/>
		<path class="st2" d="M285.47,219.2c-1.28-0.37-2.29-0.85-3.02-1.43l1.28-2.44c0.75,0.54,1.66,0.96,2.73,1.28
			c1.07,0.32,2.15,0.48,3.24,0.48c2.7,0,4.04-0.77,4.04-2.31c0-0.51-0.18-0.92-0.55-1.22c-0.36-0.3-0.82-0.52-1.36-0.66
			c-0.54-0.14-1.32-0.29-2.33-0.47c-1.37-0.21-2.49-0.46-3.35-0.74c-0.87-0.28-1.61-0.75-2.23-1.41c-0.62-0.66-0.93-1.59-0.93-2.79
			c0-1.54,0.64-2.78,1.93-3.71c1.28-0.93,3-1.4,5.17-1.4c1.13,0,2.27,0.14,3.4,0.42c1.13,0.28,2.06,0.65,2.79,1.12l-1.31,2.44
			c-1.39-0.9-3.03-1.35-4.91-1.35c-1.3,0-2.3,0.21-2.98,0.64c-0.69,0.43-1.03,0.99-1.03,1.7c0,0.56,0.19,0.99,0.58,1.32
			c0.38,0.32,0.86,0.56,1.43,0.71c0.57,0.15,1.36,0.32,2.39,0.51c1.37,0.24,2.48,0.49,3.32,0.75c0.84,0.27,1.57,0.72,2.17,1.36
			c0.6,0.64,0.9,1.54,0.9,2.7c0,1.54-0.66,2.76-1.97,3.67c-1.31,0.91-3.11,1.36-5.37,1.36C288.09,219.76,286.75,219.58,285.47,219.2
			z"/>
		<path class="st2" d="M326.09,202.57l-6.35,17.01h-2.95l-4.91-12.9l-4.97,12.9h-2.95l-6.32-17.01h2.92l4.94,13.54l5.13-13.54h2.6
			l5.04,13.6l5.07-13.6H326.09z"/>
		<path class="st2" d="M331.45,218.64c-1.35-0.75-2.4-1.78-3.16-3.1c-0.76-1.32-1.14-2.81-1.14-4.48s0.38-3.16,1.14-4.48
			c0.76-1.32,1.81-2.34,3.16-3.08c1.35-0.74,2.87-1.11,4.56-1.11c1.69,0,3.2,0.37,4.54,1.11s2.38,1.76,3.14,3.08
			c0.76,1.32,1.14,2.81,1.14,4.48s-0.38,3.16-1.14,4.48c-0.76,1.32-1.81,2.35-3.14,3.1c-1.34,0.75-2.85,1.12-4.54,1.12
			C334.31,219.76,332.8,219.39,331.45,218.64z M338.94,216.32c0.87-0.5,1.54-1.21,2.04-2.12c0.49-0.91,0.74-1.95,0.74-3.13
			s-0.25-2.22-0.74-3.13c-0.49-0.91-1.17-1.61-2.04-2.1c-0.87-0.49-1.84-0.74-2.94-0.74s-2.07,0.25-2.94,0.74
			c-0.87,0.49-1.55,1.19-2.05,2.1c-0.5,0.91-0.75,1.95-0.75,3.13s0.25,2.22,0.75,3.13c0.5,0.91,1.19,1.62,2.05,2.12
			c0.87,0.5,1.84,0.75,2.94,0.75S338.07,216.82,338.94,216.32z M337.93,195.93h3.92l-5.39,4.17h-2.89L337.93,195.93z"/>
		<path class="st2" d="M344.83,225.73c-0.64-0.17-1.18-0.43-1.6-0.77l1-2.37c0.64,0.53,1.48,0.8,2.5,0.8c0.81,0,1.44-0.25,1.88-0.75
			c0.44-0.5,0.66-1.25,0.66-2.23v-17.84h3.08v17.78c0,1.75-0.47,3.13-1.41,4.14c-0.94,1-2.28,1.51-4.01,1.51
			C346.17,225.99,345.47,225.9,344.83,225.73z M349.3,198.72c-0.4-0.38-0.59-0.85-0.59-1.41c0-0.56,0.2-1.03,0.59-1.43
			c0.4-0.4,0.89-0.59,1.49-0.59s1.1,0.19,1.49,0.56c0.4,0.37,0.59,0.84,0.59,1.4c0,0.58-0.2,1.06-0.59,1.46
			c-0.4,0.4-0.89,0.59-1.49,0.59S349.7,199.1,349.3,198.72z"/>
		<path class="st2" d="M392.57,202.57l-6.35,17.01h-2.95l-4.91-12.9l-4.97,12.9h-2.95l-6.32-17.01h2.92l4.94,13.54l5.13-13.54h2.6
			l5.04,13.6l5.07-13.6H392.57z"/>
		<path class="st2" d="M392.54,210.4l8.5-6.48l1.38,1.86l-8.5,6.45L392.54,210.4z M395.94,195.76h3.08v23.81h-3.08V195.76z"/>
		<path class="st2" d="M416.75,204.14c1.25,1.16,1.88,2.88,1.88,5.17v10.27h-2.92v-2.25c-0.51,0.79-1.25,1.4-2.2,1.81
			c-0.95,0.42-2.08,0.63-3.39,0.63c-1.9,0-3.43-0.46-4.57-1.38c-1.14-0.92-1.72-2.13-1.72-3.63c0-1.5,0.54-2.7,1.64-3.61
			c1.09-0.91,2.82-1.36,5.2-1.36h4.88v-0.61c0-1.33-0.38-2.34-1.16-3.05c-0.77-0.71-1.9-1.06-3.4-1.06c-1,0-1.99,0.17-2.95,0.5
			c-0.96,0.33-1.78,0.78-2.44,1.33l-1.28-2.31c0.88-0.71,1.92-1.25,3.14-1.62c1.22-0.37,2.51-0.56,3.88-0.56
			C413.69,202.41,415.5,202.98,416.75,204.14z M413.68,216.6c0.86-0.52,1.48-1.27,1.86-2.23V212h-4.75c-2.61,0-3.91,0.88-3.91,2.63
			c0,0.86,0.33,1.53,1,2.02c0.66,0.49,1.58,0.74,2.76,0.74C411.81,217.39,412.83,217.13,413.68,216.6z"/>
		<path class="st2" d="M425.2,219.2c-1.28-0.37-2.29-0.85-3.02-1.43l1.28-2.44c0.75,0.54,1.66,0.96,2.73,1.28s2.15,0.48,3.24,0.48
			c2.7,0,4.04-0.77,4.04-2.31c0-0.51-0.18-0.92-0.55-1.22c-0.36-0.3-0.82-0.52-1.36-0.66c-0.55-0.14-1.32-0.29-2.33-0.47
			c-1.37-0.21-2.49-0.46-3.35-0.74c-0.87-0.28-1.61-0.75-2.23-1.41c-0.62-0.66-0.93-1.59-0.93-2.79c0-1.54,0.64-2.78,1.92-3.71
			c1.28-0.93,3-1.4,5.17-1.4c1.13,0,2.27,0.14,3.4,0.42c1.13,0.28,2.06,0.65,2.79,1.12l-1.32,2.44c-1.39-0.9-3.03-1.35-4.91-1.35
			c-1.3,0-2.3,0.21-2.98,0.64c-0.69,0.43-1.03,0.99-1.03,1.7c0,0.56,0.19,0.99,0.58,1.32c0.38,0.32,0.86,0.56,1.43,0.71
			c0.57,0.15,1.36,0.32,2.39,0.51c1.37,0.24,2.48,0.49,3.32,0.75c0.84,0.27,1.57,0.72,2.17,1.36c0.6,0.64,0.9,1.54,0.9,2.7
			c0,1.54-0.66,2.76-1.97,3.67s-3.11,1.36-5.37,1.36C427.82,219.76,426.48,219.58,425.2,219.2z"/>
		<path class="st2" d="M454.64,204.28c1.27,1.25,1.91,3.09,1.91,5.5v9.79h-3.08v-9.43c0-1.65-0.4-2.89-1.19-3.72
			c-0.79-0.83-1.92-1.25-3.4-1.25c-1.67,0-2.98,0.49-3.95,1.46c-0.96,0.97-1.44,2.37-1.44,4.19v8.76h-3.08v-17.01h2.95v2.57
			c0.62-0.88,1.46-1.55,2.52-2.02c1.06-0.47,2.26-0.71,3.61-0.71C451.65,202.41,453.37,203.03,454.64,204.28z"/>
		<path class="st2" d="M476.99,202.57l-8.25,18.71c-0.73,1.73-1.58,2.95-2.55,3.66c-0.97,0.71-2.14,1.06-3.51,1.06
			c-0.83,0-1.64-0.13-2.42-0.4c-0.78-0.27-1.43-0.66-1.94-1.17l1.32-2.31c0.88,0.83,1.89,1.25,3.05,1.25c0.75,0,1.38-0.2,1.88-0.59
			c0.5-0.4,0.96-1.07,1.36-2.04l0.54-1.19l-7.51-16.97h3.21l5.94,13.6l5.87-13.6H476.99z"/>
		<path class="st2" d="M94.6,250.15l-3.53,3.27v4.65h-3.08v-23.81h3.08v15.27l9.27-8.47h3.72l-7.16,7.03l7.86,9.98h-3.79
			L94.6,250.15z"/>
		<path class="st2" d="M119.03,242.64c1.25,1.16,1.88,2.88,1.88,5.17v10.27h-2.92v-2.25c-0.51,0.79-1.25,1.4-2.2,1.81
			c-0.95,0.42-2.08,0.63-3.38,0.63c-1.9,0-3.43-0.46-4.57-1.38c-1.14-0.92-1.72-2.13-1.72-3.63c0-1.5,0.55-2.7,1.64-3.61
			c1.09-0.91,2.82-1.36,5.2-1.36h4.88v-0.61c0-1.33-0.39-2.34-1.16-3.05c-0.77-0.71-1.9-1.06-3.4-1.06c-1.01,0-1.99,0.17-2.95,0.5
			c-0.96,0.33-1.78,0.78-2.44,1.33l-1.28-2.31c0.88-0.71,1.93-1.25,3.14-1.62c1.22-0.37,2.51-0.56,3.88-0.56
			C115.98,240.91,117.78,241.49,119.03,242.64z M115.97,255.11c0.85-0.52,1.48-1.27,1.86-2.23v-2.37h-4.75
			c-2.61,0-3.91,0.88-3.91,2.63c0,0.86,0.33,1.53,0.99,2.02c0.66,0.49,1.58,0.74,2.76,0.74
			C114.1,255.89,115.11,255.63,115.97,255.11z"/>
		<path class="st2" d="M126.62,234.27h3.08v23.81h-3.08V234.27z"/>
		<path class="st2" d="M150.88,250.6h-13.8c0.19,1.5,0.85,2.7,1.97,3.61s2.52,1.36,4.19,1.36c2.03,0,3.67-0.68,4.91-2.05l1.7,1.99
			c-0.77,0.9-1.73,1.58-2.87,2.05c-1.14,0.47-2.42,0.71-3.83,0.71c-1.8,0-3.39-0.37-4.78-1.11c-1.39-0.74-2.47-1.77-3.22-3.1
			c-0.76-1.33-1.14-2.82-1.14-4.49c0-1.65,0.37-3.13,1.11-4.46c0.74-1.33,1.75-2.36,3.05-3.1c1.29-0.74,2.75-1.11,4.38-1.11
			c1.63,0,3.07,0.37,4.35,1.11c1.27,0.74,2.27,1.77,2.98,3.1c0.72,1.33,1.07,2.85,1.07,4.56
			C150.94,249.9,150.92,250.21,150.88,250.6z M138.83,244.86c-0.99,0.9-1.58,2.08-1.75,3.53h10.91c-0.17-1.43-0.75-2.6-1.75-3.51
			c-0.99-0.91-2.23-1.36-3.71-1.36S139.82,243.96,138.83,244.86z"/>
		<path class="st2" d="M169.44,242.79c1.27,1.25,1.91,3.09,1.91,5.5v9.79h-3.08v-9.43c0-1.65-0.4-2.89-1.19-3.72
			c-0.79-0.83-1.93-1.25-3.4-1.25c-1.67,0-2.98,0.49-3.95,1.46c-0.96,0.97-1.44,2.37-1.44,4.19v8.76h-3.08v-17.01h2.95v2.57
			c0.62-0.88,1.46-1.55,2.52-2.02c1.06-0.47,2.26-0.71,3.61-0.71C166.45,240.91,168.16,241.53,169.44,242.79z"/>
		<path class="st2" d="M193.2,234.27v23.81h-2.95v-2.7c-0.69,0.94-1.55,1.66-2.6,2.15c-1.05,0.49-2.2,0.74-3.47,0.74
			c-1.65,0-3.12-0.36-4.43-1.09c-1.3-0.73-2.33-1.75-3.06-3.06s-1.11-2.83-1.11-4.54c0-1.71,0.37-3.22,1.11-4.52
			s1.76-2.32,3.06-3.05c1.3-0.73,2.78-1.09,4.43-1.09c1.22,0,2.34,0.23,3.37,0.69s1.88,1.14,2.57,2.04v-9.37H193.2z M187.36,254.82
			c0.88-0.5,1.56-1.21,2.05-2.12c0.49-0.91,0.74-1.95,0.74-3.13s-0.25-2.22-0.74-3.13c-0.49-0.91-1.18-1.61-2.05-2.1
			c-0.88-0.49-1.85-0.74-2.92-0.74c-1.09,0-2.07,0.25-2.94,0.74c-0.87,0.49-1.55,1.19-2.05,2.1c-0.5,0.91-0.75,1.95-0.75,3.13
			s0.25,2.22,0.75,3.13c0.5,0.91,1.19,1.62,2.05,2.12c0.87,0.5,1.85,0.75,2.94,0.75C185.51,255.57,186.48,255.32,187.36,254.82z"/>
		<path class="st2" d="M210.63,242.64c1.25,1.16,1.88,2.88,1.88,5.17v10.27h-2.92v-2.25c-0.51,0.79-1.25,1.4-2.2,1.81
			c-0.95,0.42-2.08,0.63-3.38,0.63c-1.9,0-3.43-0.46-4.57-1.38c-1.14-0.92-1.72-2.13-1.72-3.63c0-1.5,0.55-2.7,1.64-3.61
			c1.09-0.91,2.82-1.36,5.2-1.36h4.88v-0.61c0-1.33-0.39-2.34-1.16-3.05c-0.77-0.71-1.9-1.06-3.4-1.06c-1.01,0-1.99,0.17-2.95,0.5
			c-0.96,0.33-1.78,0.78-2.44,1.33l-1.28-2.31c0.88-0.71,1.93-1.25,3.14-1.62c1.22-0.37,2.51-0.56,3.88-0.56
			C207.58,240.91,209.38,241.49,210.63,242.64z M207.57,255.11c0.85-0.52,1.48-1.27,1.86-2.23v-2.37h-4.75
			c-2.61,0-3.91,0.88-3.91,2.63c0,0.86,0.33,1.53,0.99,2.02c0.66,0.49,1.58,0.74,2.76,0.74
			C205.7,255.89,206.71,255.63,207.57,255.11z"/>
		<path class="st2" d="M223.55,241.68c1.05-0.51,2.32-0.77,3.82-0.77v2.98c-0.17-0.02-0.41-0.03-0.71-0.03
			c-1.67,0-2.98,0.5-3.93,1.49c-0.95,0.99-1.43,2.41-1.43,4.25v8.47h-3.08v-17.01h2.95v2.86
			C221.71,242.94,222.5,242.19,223.55,241.68z"/>
		<path class="st2" d="M243.99,255.54v2.53h-14.25v-1.99l10.04-12.48h-9.85v-2.54h13.8v2.02l-10.04,12.45H243.99z"/>
		<path class="st2" d="M252.46,264.23c-0.64-0.17-1.18-0.43-1.6-0.77l0.99-2.37c0.64,0.53,1.48,0.8,2.5,0.8
			c0.81,0,1.44-0.25,1.88-0.75c0.44-0.5,0.66-1.25,0.66-2.23v-17.84h3.08v17.78c0,1.75-0.47,3.13-1.41,4.14
			c-0.94,1-2.28,1.51-4.01,1.51C253.79,264.49,253.1,264.41,252.46,264.23z M256.93,237.22c-0.4-0.38-0.59-0.85-0.59-1.41
			c0-0.56,0.2-1.03,0.59-1.43c0.4-0.4,0.89-0.59,1.49-0.59c0.6,0,1.1,0.19,1.49,0.56c0.4,0.37,0.59,0.84,0.59,1.4
			c0,0.58-0.2,1.06-0.59,1.46c-0.4,0.4-0.89,0.59-1.49,0.59C257.82,237.8,257.33,237.6,256.93,237.22z"/>
		<path class="st2" d="M281.69,241.07v17.01h-2.92v-2.57c-0.62,0.88-1.44,1.56-2.45,2.04c-1.02,0.48-2.12,0.72-3.32,0.72
			c-2.27,0-4.05-0.63-5.36-1.88c-1.3-1.25-1.96-3.1-1.96-5.53v-9.79h3.08v9.43c0,1.65,0.4,2.89,1.19,3.74
			c0.79,0.85,1.92,1.27,3.4,1.27c1.63,0,2.91-0.49,3.85-1.48c0.94-0.98,1.41-2.37,1.41-4.17v-8.79H281.69z"/>
		<path class="st2" d="M300.17,255.54v2.53h-14.25v-1.99l10.04-12.48h-9.85v-2.54h13.8v2.02l-10.04,12.45H300.17z M291.7,237.48
			c-0.36-0.36-0.54-0.81-0.54-1.35c0-0.53,0.18-0.98,0.54-1.35c0.36-0.36,0.81-0.55,1.35-0.55c0.53,0,0.98,0.18,1.35,0.55
			c0.36,0.36,0.55,0.81,0.55,1.35c0,0.54-0.18,0.98-0.55,1.35c-0.36,0.36-0.81,0.55-1.35,0.55
			C292.51,238.02,292.06,237.84,291.7,237.48z"/>
		<path class="st2" d="M328.95,234.27v23.81H326v-2.7c-0.68,0.94-1.55,1.66-2.6,2.15c-1.05,0.49-2.2,0.74-3.46,0.74
			c-1.65,0-3.12-0.36-4.43-1.09c-1.3-0.73-2.33-1.75-3.06-3.06c-0.74-1.32-1.11-2.83-1.11-4.54c0-1.71,0.37-3.22,1.11-4.52
			c0.74-1.3,1.76-2.32,3.06-3.05c1.3-0.73,2.78-1.09,4.43-1.09c1.22,0,2.34,0.23,3.37,0.69s1.88,1.14,2.57,2.04v-9.37H328.95z
			 M323.11,254.82c0.88-0.5,1.56-1.21,2.05-2.12c0.49-0.91,0.74-1.95,0.74-3.13s-0.25-2.22-0.74-3.13c-0.49-0.91-1.18-1.61-2.05-2.1
			c-0.88-0.49-1.85-0.74-2.92-0.74c-1.09,0-2.07,0.25-2.94,0.74c-0.87,0.49-1.55,1.19-2.05,2.1c-0.5,0.91-0.75,1.95-0.75,3.13
			s0.25,2.22,0.75,3.13c0.5,0.91,1.19,1.62,2.05,2.12c0.87,0.5,1.84,0.75,2.94,0.75C321.26,255.57,322.23,255.32,323.11,254.82z"/>
		<path class="st2" d="M347.4,255.54v2.53h-14.25v-1.99l10.04-12.48h-9.85v-2.54h13.8v2.02l-10.04,12.45H347.4z"/>
		<path class="st2" d="M351.55,237.22c-0.4-0.38-0.59-0.85-0.59-1.41c0-0.56,0.2-1.03,0.59-1.43c0.4-0.4,0.89-0.59,1.49-0.59
			c0.6,0,1.1,0.19,1.49,0.56c0.4,0.37,0.59,0.84,0.59,1.4c0,0.58-0.2,1.06-0.59,1.46c-0.4,0.4-0.89,0.59-1.49,0.59
			C352.44,237.8,351.95,237.6,351.55,237.22z M351.5,241.07h3.08v17.01h-3.08V241.07z"/>
		<path class="st2" d="M361.32,257.71c-1.28-0.37-2.29-0.85-3.02-1.43l1.28-2.44c0.75,0.54,1.66,0.96,2.73,1.28s2.15,0.48,3.24,0.48
			c2.7,0,4.04-0.77,4.04-2.31c0-0.51-0.18-0.92-0.55-1.22c-0.36-0.3-0.82-0.52-1.36-0.66c-0.55-0.14-1.32-0.29-2.33-0.47
			c-1.37-0.21-2.49-0.46-3.35-0.74c-0.87-0.28-1.61-0.75-2.23-1.41c-0.62-0.66-0.93-1.59-0.93-2.79c0-1.54,0.64-2.78,1.92-3.71
			c1.28-0.93,3-1.4,5.17-1.4c1.13,0,2.27,0.14,3.4,0.42c1.13,0.28,2.06,0.65,2.79,1.12l-1.32,2.44c-1.39-0.9-3.03-1.35-4.91-1.35
			c-1.3,0-2.3,0.21-2.98,0.64c-0.69,0.43-1.03,0.99-1.03,1.7c0,0.56,0.19,0.99,0.58,1.32c0.38,0.32,0.86,0.56,1.43,0.71
			c0.57,0.15,1.36,0.32,2.39,0.51c1.37,0.24,2.48,0.49,3.32,0.75c0.84,0.27,1.57,0.72,2.17,1.36c0.6,0.64,0.9,1.54,0.9,2.7
			c0,1.54-0.66,2.76-1.97,3.67c-1.32,0.91-3.11,1.36-5.37,1.36C363.94,258.27,362.6,258.08,361.32,257.71z M367.45,234.43h3.92
			l-5.39,4.17h-2.89L367.45,234.43z"/>
	</g>
	<line class="st3" x1="86.45" y1="168.6" x2="508.83" y2="168.6"/>
</g>
</svg>
