<?xml version="1.0" encoding="utf-8"?>
<!-- Generator: Adobe Illustrator 24.1.2, SVG Export Plug-In . SVG Version: 6.00 Build 0)  -->
<svg version="1.1" id="Warstwa_1" xmlns="http://www.w3.org/2000/svg" xmlns:xlink="http://www.w3.org/1999/xlink" x="0px" y="0px"
	 viewBox="0 0 936.28 318.41" style="enable-background:new 0 0 936.28 318.41;" xml:space="preserve">
<style type="text/css">
	.st0{fill:#23C495;}
	.st1{fill:none;stroke:#23C495;stroke-width:0.5;}
</style>
<g>
	<g>
		<path class="st0" d="M257.6,112.99h15.28c3.45,0,6.5,0.63,9.15,1.88c2.64,1.26,4.69,3.05,6.16,5.38c1.46,2.33,2.19,5.08,2.19,8.24
			c0,3.16-0.73,5.91-2.19,8.24c-1.46,2.33-3.51,4.13-6.16,5.38c-2.64,1.26-5.69,1.88-9.15,1.88H257.6V112.99z M272.44,135.84
			c2.24,0,4.04-0.64,5.38-1.93c1.34-1.28,2.02-3.09,2.02-5.43c0-2.33-0.67-4.14-2.02-5.43c-1.34-1.28-3.14-1.93-5.38-1.93h-4.39
			v14.71H272.44z"/>
		<path class="st0" d="M314.47,122.18c2.24,1.9,3.37,4.84,3.37,8.79v13.02h-9.3v-3.19c-1.15,2.42-3.44,3.63-6.87,3.63
			c-1.92,0-3.55-0.33-4.89-1c-1.34-0.66-2.36-1.56-3.06-2.7c-0.69-1.14-1.04-2.41-1.04-3.83c0-2.39,0.92-4.21,2.75-5.45
			c1.83-1.24,4.61-1.86,8.33-1.86h4.03c-0.33-1.89-1.85-2.83-4.56-2.83c-1.09,0-2.2,0.17-3.32,0.51c-1.12,0.34-2.08,0.81-2.88,1.4
			l-3.19-6.6c1.39-0.86,3.06-1.53,5.03-2.02c1.96-0.49,3.92-0.73,5.87-0.73C308.98,119.32,312.22,120.27,314.47,122.18z
			 M306.58,137.84c0.56-0.38,0.97-0.96,1.24-1.73v-1.68h-2.48c-2.04,0-3.06,0.68-3.06,2.04c0,0.56,0.21,1.03,0.64,1.4
			c0.43,0.37,1.01,0.55,1.75,0.55C305.39,138.41,306.02,138.22,306.58,137.84z"/>
		<path class="st0" d="M339.54,119.32v8.86c-0.8-0.12-1.54-0.18-2.21-0.18c-3.43,0-5.14,1.74-5.14,5.23v10.76h-10.01v-24.23h9.52
			v2.61C333.47,120.34,336.08,119.32,339.54,119.32z"/>
		<path class="st0" d="M381.46,122.02c1.76,1.8,2.64,4.52,2.64,8.15v13.82h-10.01V131.9c0-2.78-0.9-4.16-2.7-4.16
			c-0.95,0-1.71,0.35-2.28,1.06s-0.86,1.83-0.86,3.37v11.83h-10.01V131.9c0-2.78-0.9-4.16-2.7-4.16c-0.95,0-1.71,0.35-2.28,1.06
			s-0.86,1.83-0.86,3.37v11.83h-10.01v-24.23h9.52v2.26c1.8-1.8,4.09-2.7,6.87-2.7c1.62,0,3.08,0.3,4.38,0.91
			c1.3,0.61,2.36,1.53,3.19,2.77c0.97-1.18,2.16-2.09,3.54-2.72c1.39-0.63,2.91-0.95,4.56-0.95
			C377.36,119.32,379.7,120.22,381.46,122.02z"/>
		<path class="st0" d="M394.44,142.82c-2.14-1.08-3.82-2.57-5.03-4.47c-1.21-1.9-1.82-4.07-1.82-6.49c0-2.42,0.6-4.58,1.82-6.49
			c1.21-1.9,2.89-3.39,5.03-4.45c2.14-1.06,4.55-1.59,7.24-1.59c2.72,0,5.15,0.53,7.29,1.59c2.14,1.06,3.81,2.55,5.01,4.45
			c1.2,1.9,1.79,4.07,1.79,6.49c0,2.42-0.6,4.58-1.79,6.49c-1.2,1.9-2.86,3.4-5.01,4.47c-2.14,1.08-4.57,1.62-7.29,1.62
			C398.99,144.44,396.58,143.9,394.44,142.82z M404.51,135.38c0.74-0.84,1.11-2.02,1.11-3.52s-0.37-2.67-1.11-3.5
			c-0.74-0.83-1.68-1.24-2.83-1.24c-1.15,0-2.1,0.41-2.83,1.24c-0.74,0.83-1.11,1.99-1.11,3.5s0.37,2.68,1.11,3.52
			c0.74,0.84,1.68,1.26,2.83,1.26C402.83,136.64,403.78,136.22,404.51,135.38z"/>
		<path class="st0" d="M459.57,119.77l-8.42,24.23h-9.74l-3.68-11.21l-3.81,11.21h-9.74l-8.42-24.23h9.48l4.16,12.8l4.34-12.8h8.5
			l4.21,12.93l4.34-12.93H459.57z"/>
		<path class="st0" d="M487.61,119.77l-9.97,24.72c-1.27,3.16-2.85,5.37-4.74,6.64c-1.89,1.27-4.21,1.9-6.95,1.9
			c-1.36,0-2.72-0.2-4.1-0.6c-1.37-0.4-2.46-0.92-3.25-1.57l3.32-6.87c0.5,0.38,1.07,0.69,1.71,0.93c0.63,0.24,1.25,0.35,1.84,0.35
			c1.09,0,1.92-0.33,2.48-0.97l-10.19-24.54h10.28l5.01,12.98l5.09-12.98H487.61z"/>
		<path class="st0" d="M514.05,136.55l-1.59,1.73v5.71h-10.01v-32.87h10.01v15.68l6.95-7.04h11.83l-10.01,10.5l10.81,13.73h-12.09
			L514.05,136.55z"/>
		<path class="st0" d="M551.39,119.32v8.86c-0.8-0.12-1.54-0.18-2.21-0.18c-3.43,0-5.14,1.74-5.14,5.23v10.76h-10.01v-24.23h9.52
			v2.61C545.32,120.34,547.93,119.32,551.39,119.32z"/>
		<path class="st0" d="M579.65,134.2h-16.83c0.35,0.92,0.94,1.62,1.77,2.1c0.83,0.49,1.86,0.73,3.1,0.73c1.06,0,1.96-0.13,2.68-0.4
			s1.51-0.72,2.37-1.37l5.23,5.27c-2.36,2.6-5.89,3.9-10.59,3.9c-2.92,0-5.49-0.54-7.71-1.62c-2.21-1.08-3.93-2.58-5.14-4.5
			c-1.21-1.92-1.82-4.07-1.82-6.47c0-2.42,0.6-4.58,1.79-6.49c1.2-1.9,2.83-3.39,4.92-4.45s4.42-1.59,7.02-1.59
			c2.45,0,4.69,0.49,6.71,1.46c2.02,0.97,3.63,2.41,4.83,4.3c1.2,1.89,1.79,4.15,1.79,6.78
			C579.78,132.01,579.74,132.79,579.65,134.2z M563.97,126.99c-0.68,0.56-1.12,1.36-1.33,2.39h7.8c-0.21-1-0.65-1.79-1.33-2.37
			s-1.54-0.86-2.57-0.86C565.5,126.14,564.65,126.42,563.97,126.99z"/>
		<path class="st0" d="M602.86,122.18c2.24,1.9,3.37,4.84,3.37,8.79v13.02h-9.3v-3.19c-1.15,2.42-3.44,3.63-6.87,3.63
			c-1.92,0-3.55-0.33-4.89-1c-1.34-0.66-2.36-1.56-3.06-2.7c-0.69-1.14-1.04-2.41-1.04-3.83c0-2.39,0.92-4.21,2.75-5.45
			s4.61-1.86,8.33-1.86h4.03c-0.33-1.89-1.85-2.83-4.56-2.83c-1.09,0-2.2,0.17-3.32,0.51c-1.12,0.34-2.08,0.81-2.88,1.4l-3.19-6.6
			c1.39-0.86,3.06-1.53,5.03-2.02c1.96-0.49,3.92-0.73,5.87-0.73C597.36,119.32,600.61,120.27,602.86,122.18z M594.97,137.84
			c0.56-0.38,0.97-0.96,1.24-1.73v-1.68h-2.48c-2.04,0-3.06,0.68-3.06,2.04c0,0.56,0.21,1.03,0.64,1.4
			c0.43,0.37,1.01,0.55,1.75,0.55C593.78,138.41,594.41,138.22,594.97,137.84z"/>
		<path class="st0" d="M628.41,143.15c-1.51,0.86-3.56,1.28-6.16,1.28c-3.4,0-6.01-0.82-7.84-2.46c-1.83-1.64-2.75-4.1-2.75-7.38
			v-6.2h-3.32v-7.31h3.32v-6.78h10.01v6.78h4.96v7.31h-4.96v6.11c0,0.74,0.19,1.31,0.58,1.73s0.89,0.62,1.51,0.62
			c0.86,0,1.61-0.22,2.26-0.66L628.41,143.15z"/>
		<path class="st0" d="M635.83,142.82c-2.14-1.08-3.82-2.57-5.03-4.47c-1.21-1.9-1.82-4.07-1.82-6.49c0-2.42,0.61-4.58,1.82-6.49
			c1.21-1.9,2.89-3.39,5.03-4.45c2.14-1.06,4.55-1.59,7.24-1.59c2.72,0,5.15,0.53,7.29,1.59s3.81,2.55,5.01,4.45
			c1.2,1.9,1.79,4.07,1.79,6.49c0,2.42-0.6,4.58-1.79,6.49c-1.2,1.9-2.87,3.4-5.01,4.47c-2.14,1.08-4.57,1.62-7.29,1.62
			C640.39,144.44,637.97,143.9,635.83,142.82z M645.91,135.38c0.74-0.84,1.11-2.02,1.11-3.52s-0.37-2.67-1.11-3.5
			c-0.74-0.83-1.68-1.24-2.83-1.24c-1.15,0-2.1,0.41-2.83,1.24c-0.74,0.83-1.11,1.99-1.11,3.5s0.37,2.68,1.11,3.52
			c0.74,0.84,1.68,1.26,2.83,1.26C644.22,136.64,645.17,136.22,645.91,135.38z"/>
		<path class="st0" d="M677.67,119.32v8.86c-0.8-0.12-1.54-0.18-2.21-0.18c-3.43,0-5.14,1.74-5.14,5.23v10.76H660.3v-24.23h9.52
			v2.61C671.6,120.34,674.21,119.32,677.67,119.32z"/>
		<path class="st0" d="M268.89,189.7l-1.59,1.73v5.71h-10.01v-32.87h10.01v15.68l6.95-7.04h11.83l-10.01,10.5l10.81,13.73h-12.09
			L268.89,189.7z"/>
		<path class="st0" d="M309.02,175.33c2.24,1.9,3.37,4.83,3.37,8.79v13.02h-9.3v-3.19c-1.15,2.42-3.44,3.63-6.87,3.63
			c-1.92,0-3.55-0.33-4.89-1c-1.34-0.66-2.36-1.56-3.06-2.7c-0.69-1.14-1.04-2.41-1.04-3.83c0-2.39,0.92-4.21,2.75-5.45
			c1.83-1.24,4.61-1.86,8.33-1.86h4.03c-0.33-1.89-1.85-2.83-4.56-2.83c-1.09,0-2.2,0.17-3.32,0.51c-1.12,0.34-2.08,0.81-2.88,1.4
			l-3.19-6.6c1.39-0.86,3.06-1.53,5.03-2.01c1.96-0.49,3.92-0.73,5.87-0.73C303.53,172.47,306.78,173.43,309.02,175.33z
			 M301.14,190.99c0.56-0.38,0.97-0.96,1.24-1.73v-1.68h-2.48c-2.04,0-3.06,0.68-3.06,2.04c0,0.56,0.21,1.03,0.64,1.39
			c0.43,0.37,1.01,0.55,1.75,0.55C299.94,191.56,300.58,191.37,301.14,190.99z"/>
		<path class="st0" d="M316.73,164.28h10.01v32.87h-10.01V164.28z"/>
		<path class="st0" d="M356.81,187.36h-16.83c0.35,0.92,0.94,1.62,1.77,2.1c0.83,0.49,1.86,0.73,3.1,0.73c1.06,0,1.96-0.13,2.68-0.4
			s1.51-0.72,2.37-1.37l5.23,5.27c-2.36,2.6-5.89,3.9-10.59,3.9c-2.92,0-5.49-0.54-7.71-1.62c-2.21-1.08-3.93-2.58-5.14-4.5
			c-1.21-1.92-1.82-4.08-1.82-6.47c0-2.42,0.6-4.58,1.79-6.49s2.83-3.39,4.92-4.45c2.08-1.06,4.42-1.59,7.02-1.59
			c2.45,0,4.69,0.49,6.71,1.46c2.02,0.97,3.63,2.41,4.83,4.3c1.2,1.89,1.79,4.15,1.79,6.78
			C356.95,185.16,356.9,185.94,356.81,187.36z M341.13,180.14c-0.68,0.56-1.12,1.36-1.33,2.39h7.8c-0.21-1-0.65-1.79-1.33-2.37
			c-0.68-0.58-1.54-0.86-2.57-0.86C342.67,179.3,341.81,179.58,341.13,180.14z"/>
		<path class="st0" d="M384.12,175.18c1.82,1.8,2.72,4.52,2.72,8.15v13.82h-10.01v-12.09c0-2.78-0.99-4.16-2.97-4.16
			c-1.12,0-2.03,0.39-2.72,1.17c-0.69,0.78-1.04,2.01-1.04,3.7v11.38h-10.01v-24.23h9.52v2.39c0.94-0.94,2.04-1.65,3.28-2.13
			c1.24-0.47,2.58-0.71,4.03-0.71C379.9,172.47,382.3,173.38,384.12,175.18z"/>
		<path class="st0" d="M418.42,164.28v32.87h-9.52v-1.99c-1.45,1.63-3.66,2.44-6.64,2.44c-2.13,0-4.08-0.51-5.87-1.53
			c-1.79-1.02-3.2-2.49-4.25-4.41c-1.05-1.92-1.57-4.13-1.57-6.64s0.52-4.72,1.57-6.62c1.05-1.9,2.46-3.37,4.25-4.38
			c1.79-1.02,3.74-1.53,5.87-1.53c2.69,0,4.74,0.69,6.16,2.08v-10.28H418.42z M407.48,188.53c0.74-0.84,1.11-2.02,1.11-3.52
			s-0.37-2.67-1.11-3.5c-0.74-0.83-1.68-1.24-2.83-1.24c-1.15,0-2.1,0.41-2.83,1.24c-0.74,0.83-1.11,1.99-1.11,3.5
			s0.37,2.68,1.11,3.52c0.74,0.84,1.68,1.26,2.83,1.26C405.8,189.79,406.74,189.37,407.48,188.53z"/>
		<path class="st0" d="M443.45,175.33c2.24,1.9,3.37,4.83,3.37,8.79v13.02h-9.3v-3.19c-1.15,2.42-3.44,3.63-6.87,3.63
			c-1.92,0-3.55-0.33-4.89-1c-1.34-0.66-2.36-1.56-3.06-2.7c-0.69-1.14-1.04-2.41-1.04-3.83c0-2.39,0.92-4.21,2.75-5.45
			c1.83-1.24,4.61-1.86,8.33-1.86h4.03c-0.33-1.89-1.85-2.83-4.56-2.83c-1.09,0-2.2,0.17-3.32,0.51c-1.12,0.34-2.08,0.81-2.88,1.4
			l-3.19-6.6c1.39-0.86,3.06-1.53,5.03-2.01c1.96-0.49,3.92-0.73,5.87-0.73C437.96,172.47,441.2,173.43,443.45,175.33z
			 M435.56,190.99c0.56-0.38,0.97-0.96,1.24-1.73v-1.68h-2.48c-2.04,0-3.06,0.68-3.06,2.04c0,0.56,0.21,1.03,0.64,1.39
			c0.43,0.37,1.01,0.55,1.75,0.55C434.37,191.56,435,191.37,435.56,190.99z"/>
		<path class="st0" d="M468.52,172.47v8.86c-0.8-0.12-1.54-0.18-2.21-0.18c-3.43,0-5.14,1.74-5.14,5.23v10.76h-10.01v-24.23h9.52
			v2.61C462.45,173.49,465.06,172.47,468.52,172.47z"/>
		<path class="st0" d="M493.59,189.84v7.31h-23.12v-5.76l10.01-11.16h-9.66v-7.31h22.28v5.76l-10.01,11.16H493.59z"/>
		<path class="st0" d="M523.13,172.92l-9.97,24.71c-1.27,3.16-2.85,5.37-4.74,6.64c-1.89,1.27-4.21,1.9-6.95,1.9
			c-1.36,0-2.72-0.2-4.1-0.6c-1.37-0.4-2.46-0.92-3.26-1.57l3.32-6.87c0.5,0.38,1.07,0.69,1.71,0.93c0.63,0.24,1.25,0.35,1.84,0.35
			c1.09,0,1.92-0.33,2.48-0.97l-10.19-24.54h10.28l5,12.98l5.09-12.98H523.13z"/>
	</g>
	<g>
		<path class="st1" d="M258.93,114.09h15.28c3.46,0,6.5,0.63,9.15,1.88s4.7,3.05,6.16,5.38c1.46,2.33,2.19,5.08,2.19,8.24
			c0,3.16-0.73,5.91-2.19,8.24c-1.46,2.33-3.51,4.13-6.16,5.38s-5.69,1.88-9.15,1.88h-15.28V114.09z M273.76,136.95
			c2.24,0,4.04-0.64,5.38-1.93s2.02-3.09,2.02-5.43c0-2.33-0.67-4.14-2.02-5.43c-1.34-1.29-3.14-1.93-5.38-1.93h-4.39v14.71H273.76z
			"/>
		<path class="st1" d="M315.8,123.29c2.24,1.9,3.37,4.83,3.37,8.79v13.02h-9.3v-3.19c-1.15,2.42-3.44,3.63-6.87,3.63
			c-1.92,0-3.55-0.33-4.89-1c-1.34-0.66-2.36-1.56-3.06-2.7c-0.69-1.14-1.04-2.41-1.04-3.83c0-2.39,0.92-4.21,2.75-5.45
			s4.61-1.86,8.33-1.86h4.03c-0.33-1.89-1.85-2.83-4.56-2.83c-1.09,0-2.2,0.17-3.32,0.51c-1.12,0.34-2.08,0.81-2.88,1.4l-3.19-6.6
			c1.39-0.86,3.06-1.53,5.03-2.01c1.96-0.49,3.92-0.73,5.87-0.73C310.3,120.43,313.55,121.38,315.8,123.29z M307.91,138.94
			c0.56-0.38,0.97-0.96,1.24-1.73v-1.68h-2.48c-2.04,0-3.06,0.68-3.06,2.04c0,0.56,0.21,1.03,0.64,1.39
			c0.43,0.37,1.01,0.55,1.75,0.55C306.72,139.52,307.35,139.33,307.91,138.94z"/>
		<path class="st1" d="M340.87,120.43v8.86c-0.8-0.12-1.54-0.18-2.21-0.18c-3.43,0-5.14,1.74-5.14,5.23v10.76H323.5v-24.23h9.52
			v2.61C334.8,121.45,337.41,120.43,340.87,120.43z"/>
		<path class="st1" d="M382.79,123.13c1.76,1.8,2.64,4.52,2.64,8.15v13.82h-10.01v-12.09c0-2.78-0.9-4.16-2.7-4.16
			c-0.95,0-1.71,0.35-2.28,1.06c-0.58,0.71-0.86,1.83-0.86,3.37v11.83h-10.01v-12.09c0-2.78-0.9-4.16-2.7-4.16
			c-0.95,0-1.71,0.35-2.28,1.06c-0.58,0.71-0.86,1.83-0.86,3.37v11.83H343.7v-24.23h9.52v2.26c1.8-1.8,4.09-2.7,6.87-2.7
			c1.62,0,3.08,0.3,4.38,0.91c1.3,0.61,2.36,1.53,3.19,2.77c0.97-1.18,2.16-2.09,3.54-2.72c1.39-0.63,2.91-0.95,4.56-0.95
			C378.69,120.43,381.03,121.33,382.79,123.13z"/>
		<path class="st1" d="M395.77,143.93c-2.14-1.08-3.82-2.57-5.03-4.47c-1.21-1.9-1.82-4.07-1.82-6.49s0.6-4.58,1.82-6.49
			c1.21-1.9,2.89-3.39,5.03-4.45c2.14-1.06,4.55-1.59,7.24-1.59c2.72,0,5.14,0.53,7.29,1.59c2.14,1.06,3.81,2.55,5,4.45
			c1.2,1.9,1.79,4.07,1.79,6.49s-0.6,4.58-1.79,6.49c-1.2,1.91-2.86,3.4-5,4.47c-2.14,1.08-4.57,1.62-7.29,1.62
			C400.32,145.54,397.91,145,395.77,143.93z M405.84,136.48c0.74-0.84,1.11-2.02,1.11-3.52s-0.37-2.67-1.11-3.5
			c-0.74-0.83-1.68-1.24-2.83-1.24s-2.1,0.41-2.83,1.24c-0.74,0.83-1.11,1.99-1.11,3.5s0.37,2.68,1.11,3.52
			c0.74,0.84,1.68,1.26,2.83,1.26S405.1,137.33,405.84,136.48z"/>
		<path class="st1" d="M460.9,120.87l-8.42,24.23h-9.74l-3.68-11.21l-3.81,11.21h-9.74l-8.42-24.23h9.48l4.16,12.8l4.34-12.8h8.5
			l4.21,12.93l4.34-12.93H460.9z"/>
		<path class="st1" d="M488.94,120.87l-9.97,24.71c-1.27,3.16-2.85,5.37-4.74,6.64c-1.89,1.27-4.21,1.9-6.95,1.9
			c-1.36,0-2.72-0.2-4.1-0.6c-1.37-0.4-2.46-0.92-3.25-1.57l3.32-6.87c0.5,0.38,1.07,0.69,1.71,0.93c0.63,0.24,1.25,0.35,1.84,0.35
			c1.09,0,1.92-0.33,2.48-0.97l-10.19-24.54h10.28l5.01,12.98l5.09-12.98H488.94z"/>
		<path class="st1" d="M515.38,137.66l-1.59,1.73v5.71h-10.01v-32.87h10.01v15.68l6.95-7.04h11.83l-10.01,10.5l10.81,13.73h-12.09
			L515.38,137.66z"/>
		<path class="st1" d="M552.72,120.43v8.86c-0.8-0.12-1.54-0.18-2.21-0.18c-3.43,0-5.14,1.74-5.14,5.23v10.76h-10.01v-24.23h9.52
			v2.61C546.65,121.45,549.26,120.43,552.72,120.43z"/>
		<path class="st1" d="M580.98,135.31h-16.83c0.35,0.92,0.94,1.62,1.77,2.1c0.83,0.49,1.86,0.73,3.1,0.73c1.06,0,1.96-0.13,2.68-0.4
			s1.51-0.72,2.37-1.37l5.23,5.27c-2.36,2.6-5.89,3.9-10.59,3.9c-2.92,0-5.49-0.54-7.71-1.62c-2.21-1.08-3.93-2.58-5.14-4.5
			c-1.21-1.92-1.82-4.08-1.82-6.47c0-2.42,0.6-4.58,1.79-6.49c1.2-1.9,2.83-3.39,4.92-4.45c2.08-1.06,4.42-1.59,7.02-1.59
			c2.45,0,4.69,0.49,6.71,1.46s3.63,2.41,4.83,4.3c1.2,1.89,1.79,4.15,1.79,6.78C581.11,133.11,581.06,133.89,580.98,135.31z
			 M565.3,128.09c-0.68,0.56-1.12,1.36-1.33,2.39h7.8c-0.21-1-0.65-1.79-1.33-2.37c-0.68-0.58-1.54-0.86-2.57-0.86
			C566.83,127.25,565.97,127.53,565.3,128.09z"/>
		<path class="st1" d="M604.18,123.29c2.24,1.9,3.37,4.83,3.37,8.79v13.02h-9.3v-3.19c-1.15,2.42-3.44,3.63-6.87,3.63
			c-1.92,0-3.55-0.33-4.89-1c-1.34-0.66-2.36-1.56-3.06-2.7c-0.69-1.14-1.04-2.41-1.04-3.83c0-2.39,0.92-4.21,2.75-5.45
			s4.61-1.86,8.33-1.86h4.03c-0.33-1.89-1.85-2.83-4.56-2.83c-1.09,0-2.2,0.17-3.32,0.51c-1.12,0.34-2.08,0.81-2.88,1.4l-3.19-6.6
			c1.39-0.86,3.06-1.53,5.03-2.01c1.96-0.49,3.92-0.73,5.87-0.73C598.69,120.43,601.94,121.38,604.18,123.29z M596.3,138.94
			c0.56-0.38,0.97-0.96,1.24-1.73v-1.68h-2.48c-2.04,0-3.06,0.68-3.06,2.04c0,0.56,0.21,1.03,0.64,1.39
			c0.43,0.37,1.01,0.55,1.75,0.55C595.1,139.52,595.74,139.33,596.3,138.94z"/>
		<path class="st1" d="M629.74,144.26c-1.51,0.86-3.56,1.29-6.16,1.29c-3.4,0-6.01-0.82-7.84-2.46c-1.83-1.64-2.75-4.1-2.75-7.38
			v-6.2h-3.32v-7.31H613v-6.78h10.01v6.78h4.96v7.31h-4.96v6.11c0,0.74,0.19,1.31,0.58,1.73c0.38,0.41,0.89,0.62,1.51,0.62
			c0.86,0,1.61-0.22,2.26-0.66L629.74,144.26z"/>
		<path class="st1" d="M637.16,143.93c-2.14-1.08-3.82-2.57-5.03-4.47c-1.21-1.9-1.82-4.07-1.82-6.49s0.61-4.58,1.82-6.49
			c1.21-1.9,2.89-3.39,5.03-4.45c2.14-1.06,4.55-1.59,7.24-1.59c2.72,0,5.15,0.53,7.29,1.59c2.14,1.06,3.81,2.55,5.01,4.45
			c1.2,1.9,1.79,4.07,1.79,6.49s-0.6,4.58-1.79,6.49c-1.2,1.91-2.87,3.4-5.01,4.47c-2.14,1.08-4.57,1.62-7.29,1.62
			C641.72,145.54,639.3,145,637.16,143.93z M647.24,136.48c0.74-0.84,1.11-2.02,1.11-3.52s-0.37-2.67-1.11-3.5
			c-0.74-0.83-1.68-1.24-2.83-1.24c-1.15,0-2.1,0.41-2.83,1.24c-0.74,0.83-1.11,1.99-1.11,3.5s0.37,2.68,1.11,3.52
			c0.74,0.84,1.68,1.26,2.83,1.26C645.55,137.75,646.5,137.33,647.24,136.48z"/>
		<path class="st1" d="M678.99,120.43v8.86c-0.8-0.12-1.54-0.18-2.21-0.18c-3.43,0-5.14,1.74-5.14,5.23v10.76h-10.01v-24.23h9.52
			v2.61C672.93,121.45,675.54,120.43,678.99,120.43z"/>
		<path class="st1" d="M270.22,190.81l-1.59,1.73v5.71h-10.01v-32.87h10.01v15.68l6.95-7.04h11.83l-10.01,10.5l10.81,13.73h-12.09
			L270.22,190.81z"/>
		<path class="st1" d="M310.35,176.44c2.24,1.9,3.37,4.83,3.37,8.79v13.02h-9.3v-3.19c-1.15,2.42-3.44,3.63-6.87,3.63
			c-1.92,0-3.55-0.33-4.89-1c-1.34-0.66-2.36-1.56-3.06-2.7c-0.69-1.14-1.04-2.41-1.04-3.83c0-2.39,0.92-4.21,2.75-5.45
			s4.61-1.86,8.33-1.86h4.03c-0.33-1.89-1.85-2.83-4.56-2.83c-1.09,0-2.2,0.17-3.32,0.51c-1.12,0.34-2.08,0.81-2.88,1.4l-3.19-6.6
			c1.39-0.86,3.06-1.53,5.03-2.01c1.96-0.49,3.92-0.73,5.87-0.73C304.86,173.58,308.11,174.53,310.35,176.44z M302.47,192.09
			c0.56-0.38,0.97-0.96,1.24-1.73v-1.68h-2.48c-2.04,0-3.06,0.68-3.06,2.04c0,0.56,0.21,1.03,0.64,1.39
			c0.43,0.37,1.01,0.55,1.75,0.55C301.27,192.67,301.9,192.48,302.47,192.09z"/>
		<path class="st1" d="M318.06,165.39h10.01v32.87h-10.01V165.39z"/>
		<path class="st1" d="M358.14,188.46h-16.83c0.35,0.92,0.95,1.62,1.77,2.1c0.83,0.49,1.86,0.73,3.1,0.73c1.06,0,1.96-0.13,2.68-0.4
			s1.51-0.72,2.37-1.37l5.23,5.27c-2.36,2.6-5.89,3.9-10.59,3.9c-2.92,0-5.49-0.54-7.71-1.62c-2.21-1.08-3.93-2.58-5.14-4.5
			c-1.21-1.92-1.82-4.08-1.82-6.47c0-2.42,0.6-4.58,1.79-6.49c1.2-1.9,2.83-3.39,4.92-4.45c2.08-1.06,4.42-1.59,7.02-1.59
			c2.45,0,4.69,0.49,6.71,1.46c2.02,0.97,3.63,2.41,4.83,4.3c1.2,1.89,1.79,4.15,1.79,6.78
			C358.27,186.26,358.23,187.04,358.14,188.46z M342.46,181.24c-0.68,0.56-1.12,1.36-1.33,2.39h7.79c-0.21-1-0.65-1.79-1.33-2.37
			c-0.68-0.58-1.54-0.86-2.57-0.86C344,180.4,343.14,180.68,342.46,181.24z"/>
		<path class="st1" d="M385.45,176.28c1.82,1.8,2.72,4.52,2.72,8.15v13.82h-10.01v-12.09c0-2.78-0.99-4.16-2.97-4.16
			c-1.12,0-2.03,0.39-2.72,1.17c-0.69,0.78-1.04,2.01-1.04,3.7v11.38h-10.01v-24.23h9.52v2.39c0.94-0.94,2.04-1.65,3.28-2.13
			c1.24-0.47,2.58-0.71,4.03-0.71C381.23,173.58,383.63,174.48,385.45,176.28z"/>
		<path class="st1" d="M419.75,165.39v32.87h-9.52v-1.99c-1.45,1.63-3.66,2.44-6.64,2.44c-2.13,0-4.08-0.51-5.87-1.53
			c-1.79-1.02-3.2-2.49-4.25-4.41c-1.05-1.92-1.57-4.13-1.57-6.64s0.52-4.72,1.57-6.62c1.05-1.9,2.46-3.37,4.25-4.38
			c1.79-1.02,3.74-1.53,5.87-1.53c2.69,0,4.74,0.69,6.16,2.08v-10.28H419.75z M408.81,189.64c0.74-0.84,1.11-2.02,1.11-3.52
			s-0.37-2.67-1.11-3.5c-0.74-0.83-1.68-1.24-2.83-1.24s-2.1,0.41-2.83,1.24c-0.74,0.83-1.11,1.99-1.11,3.5s0.37,2.68,1.11,3.52
			c0.74,0.84,1.68,1.26,2.83,1.26S408.07,190.48,408.81,189.64z"/>
		<path class="st1" d="M444.78,176.44c2.24,1.9,3.37,4.83,3.37,8.79v13.02h-9.3v-3.19c-1.15,2.42-3.44,3.63-6.87,3.63
			c-1.92,0-3.55-0.33-4.89-1c-1.34-0.66-2.36-1.56-3.06-2.7c-0.69-1.14-1.04-2.41-1.04-3.83c0-2.39,0.92-4.21,2.75-5.45
			c1.83-1.24,4.61-1.86,8.33-1.86h4.03c-0.33-1.89-1.85-2.83-4.56-2.83c-1.09,0-2.2,0.17-3.32,0.51c-1.12,0.34-2.08,0.81-2.88,1.4
			l-3.19-6.6c1.39-0.86,3.06-1.53,5.03-2.01c1.96-0.49,3.92-0.73,5.87-0.73C439.28,173.58,442.53,174.53,444.78,176.44z
			 M436.89,192.09c0.56-0.38,0.97-0.96,1.24-1.73v-1.68h-2.48c-2.04,0-3.06,0.68-3.06,2.04c0,0.56,0.21,1.03,0.64,1.39
			c0.43,0.37,1.01,0.55,1.75,0.55C435.7,192.67,436.33,192.48,436.89,192.09z"/>
		<path class="st1" d="M469.85,173.58v8.86c-0.8-0.12-1.54-0.18-2.21-0.18c-3.43,0-5.14,1.74-5.14,5.23v10.76h-10.01v-24.23h9.52
			v2.61C463.78,174.6,466.39,173.58,469.85,173.58z"/>
		<path class="st1" d="M494.92,190.94v7.31h-23.12v-5.76l10.01-11.16h-9.66v-7.31h22.28v5.76l-10.01,11.16H494.92z"/>
		<path class="st1" d="M524.46,174.02l-9.97,24.71c-1.27,3.16-2.85,5.37-4.74,6.64c-1.89,1.27-4.21,1.9-6.95,1.9
			c-1.36,0-2.72-0.2-4.1-0.6c-1.37-0.4-2.46-0.92-3.26-1.57l3.32-6.87c0.5,0.38,1.07,0.69,1.71,0.93c0.63,0.24,1.25,0.35,1.84,0.35
			c1.09,0,1.92-0.33,2.48-0.97l-10.19-24.54h10.28l5,12.98l5.09-12.98H524.46z"/>
	</g>
</g>
</svg>
