<?xml version="1.0" encoding="utf-8"?>
<!-- Generator: Adobe Illustrator 19.0.0, SVG Export Plug-In . SVG Version: 6.00 Build 0)  -->
<svg version="1.1" id="Warstwa_1" xmlns="http://www.w3.org/2000/svg" xmlns:xlink="http://www.w3.org/1999/xlink" x="0px" y="0px"
	 viewBox="-383 145 512 512" style="enable-background:new -383 145 512 512;" xml:space="preserve">
<style type="text/css">
	.st0{fill:#00D1B2;}
</style>
<path class="st0" d="M-273,388.4l134.5-134.5l-44.1-44.1l-61.7,61.7c-3.1,3.1-8.1,3.1-11.2,0l0,0l-11.2-11.2
	c-3.1-3.1-3.1-8.1,0-11.2l61.7-61.7l-33.6-33.6c-12.4-12.4-32.5-12.4-44.9,0l-89.7,89.7c-12.4,12.4-12.4,32.5,0,44.9L-273,388.4
	L-273,388.4z M120.2,512.5l-33.6-33.6l-61.7,61.7c-3.1,3.1-8.1,3.1-11.2,0L2.5,529.4c-3.1-3.1-3.1-8.1,0-11.2l61.7-61.7l-44.1-44.1
	L-114.5,547l100.2,100.2c12.4,12.4,32.5,12.4,44.9,0l89.7-89.7C132.6,545,132.6,524.9,120.2,512.5L120.2,512.5z"/>
<path class="st0" d="M114.4,287.5l-46.1,46.1c-4.7,4.7-12.3,4.7-17,0l-111-111c-4.7-4.7-4.7-12.3,0-17l46.1-46.1
	c18.7-18.7,49.1-18.7,67.9,0l60.1,60.1C133.2,238.3,133.2,268.7,114.4,287.5z M-99.3,245.2l-262.6,262.6l-21.2,121.5
	c-2.9,16.4,11.4,30.6,27.8,27.8l121.5-21.3L28.8,373.2c4.7-4.7,4.7-12.3,0-17l-111-111C-87,240.5-94.6,240.5-99.3,245.2L-99.3,245.2
	z M-259.4,485.3c-5.5-5.5-5.5-14.3,0-19.8l154-154c5.5-5.5,14.3-5.5,19.8,0s5.5,14.3,0,19.8l-154,154
	C-245.1,490.8-253.9,490.8-259.4,485.3L-259.4,485.3z M-295.5,569.4h48v36.3L-312,617l-31.1-31.1l11.3-64.5h36.3L-295.5,569.4
	L-295.5,569.4z"/>
</svg>
