<?xml version="1.0" encoding="utf-8"?>
<!-- Generator: Adobe Illustrator 19.0.0, SVG Export Plug-In . SVG Version: 6.00 Build 0)  -->
<svg version="1.1" id="Warstwa_1" xmlns="http://www.w3.org/2000/svg" xmlns:xlink="http://www.w3.org/1999/xlink" x="0px" y="0px"
	 viewBox="-383 145 512 512" style="enable-background:new -383 145 512 512;" xml:space="preserve">
<style type="text/css">
	.st0{fill:#00D1B2;}
</style>
<path class="st0" d="M114.9,287.1l-46.1,46.1c-4.7,4.7-12.3,4.7-17,0l-111-111c-4.7-4.7-4.7-12.3,0-17l46.1-46.1
	c18.7-18.7,49.1-18.7,67.9,0l60.1,60.1C133.7,237.9,133.7,268.3,114.9,287.1z M-98.8,244.8l-262.6,262.6l-21.2,121.5
	c-2.9,16.4,11.4,30.6,27.8,27.8l121.5-21.3L29.3,372.8c4.7-4.7,4.7-12.3,0-17l-111-111C-86.5,240.1-94.1,240.1-98.8,244.8
	L-98.8,244.8z M-258.9,484.9c-5.5-5.5-5.5-14.3,0-19.8l154-154c5.5-5.5,14.3-5.5,19.8,0s5.5,14.3,0,19.8l-154,154
	C-244.6,490.4-253.4,490.4-258.9,484.9L-258.9,484.9z M-295,569h48v36.3l-64.5,11.3l-31.1-31.1l11.3-64.5h36.3V569z"/>
</svg>
