<?xml version="1.0" encoding="utf-8"?>
<!-- Generator: Adobe Illustrator 19.0.0, SVG Export Plug-In . SVG Version: 6.00 Build 0)  -->
<svg version="1.1" id="Warstwa_1" xmlns="http://www.w3.org/2000/svg" xmlns:xlink="http://www.w3.org/1999/xlink" x="0px" y="0px"
	 viewBox="-383 145 512 512" style="enable-background:new -383 145 512 512;" xml:space="preserve">
<style type="text/css">
	.st0{fill:#00D1B2;}
</style>
<path class="st0" d="M-370.5,203.2c0,244,197.7,441.3,441.3,441.3c10.7,0,19.9-7.4,22.3-17.7l22.8-98.9c2.5-10.7-3.1-21.8-13.3-26.3
	L-3.9,456c-9.3-4-20.2-1.3-26.6,6.6l-47.2,57.6c-74.5-34.9-134.3-95.6-168.5-168.5l57.6-47.2c7.9-6.4,10.6-17.3,6.6-26.6
	l-45.7-106.5c-4.4-10.1-15.4-15.7-26.2-13.2l-98.9,22.8C-363.2,183.3-370.5,192.5-370.5,203.2z"/>
</svg>
