<?xml version="1.0" encoding="utf-8"?>
<!-- Generator: Adobe Illustrator 19.0.0, SVG Export Plug-In . SVG Version: 6.00 Build 0)  -->
<svg version="1.1" id="Warstwa_1" xmlns="http://www.w3.org/2000/svg" xmlns:xlink="http://www.w3.org/1999/xlink" x="0px" y="0px"
	 viewBox="-319 145 640 512" style="enable-background:new -319 145 640 512;" xml:space="preserve">
<style type="text/css">
	.st0{fill:#00D1B2;}
</style>
<path class="st0" d="M305,497h-12.1c-28.5,0-42.8-34.5-22.6-54.6l8.6-8.6c6.2-6.2,6.2-16.4,0-22.6s-16.4-6.2-22.6,0l-8.6,8.6
	c-20.2,20.2-54.6,5.9-54.6-22.6V385c0-8.8-7.2-16-16-16s-16,7.2-16,16v12.1c0,28.5-34.5,42.8-54.6,22.6l-8.6-8.6
	c-6.2-6.2-16.4-6.2-22.6,0s-6.2,16.4,0,22.6l8.6,8.6c20.2,20.2,5.9,54.6-22.6,54.6H49c-8.8,0-16,7.2-16,16c0,8.8,7.2,16,16,16h12.1
	c28.5,0,42.8,34.5,22.6,54.6l-8.6,8.6c-6.2,6.2-6.2,16.4,0,22.6c6.2,6.2,16.4,6.2,22.6,0l8.6-8.6c20.2-20.2,54.6-5.9,54.6,22.6V641
	c0,8.8,7.2,16,16,16c8.8,0,16-7.2,16-16v-12.1c0-28.5,34.5-42.8,54.6-22.6l8.6,8.6c6.2,6.2,16.4,6.2,22.6,0c6.2-6.2,6.2-16.4,0-22.6
	l-8.6-8.6c-20.2-20.2-5.9-54.6,22.6-54.6H305c8.8,0,16-7.2,16-16S313.8,497,305,497z M161,529c-17.7,0-32-14.3-32-32
	c0-17.7,14.3-32,32-32s32,14.3,32,32C193,514.7,178.7,529,161,529z M27.5,358.3h16.2c11.8,0,21.3-9.5,21.3-21.3
	c0-11.8-9.5-21.3-21.3-21.3H27.5c-38,0-57-46-30.2-72.8l11.4-11.4c8.3-8.4,8.3-21.9-0.1-30.2c-8.3-8.3-21.7-8.3-30.1,0l-11.4,11.4
	c-26.9,26.9-72.8,7.9-72.8-30.2v-16.2c0-11.8-9.5-21.3-21.3-21.3s-21.3,9.5-21.3,21.3v16.2c0,38-46,57.1-72.8,30.2l-11.4-11.4
	c-8.4-8.3-21.9-8.3-30.2,0.1c-8.3,8.3-8.3,21.7,0,30.1l11.4,11.4c26.9,26.9,7.9,72.8-30.2,72.8h-16.2c-11.8,0-21.3,9.5-21.3,21.3
	s9.5,21.3,21.3,21.3h16.2c38,0,57.1,46,30.2,72.8l-11.4,11.4c-8.3,8.3-8.3,21.8,0,30.2s21.8,8.3,30.2,0l11.4-11.4
	c26.9-26.9,72.8-7.9,72.8,30.2v16.2c0,11.8,9.5,21.3,21.3,21.3c11.8,0,21.3-9.5,21.3-21.3v-16.2c0-38,46-57,72.8-30.2l11.4,11.4
	c8.3,8.3,21.8,8.3,30.2,0s8.3-21.8,0-30.2l-11.4-11.4C-29.5,404.3-10.5,358.3,27.5,358.3z M-159,337c-17.7,0-32-14.3-32-32
	s14.3-32,32-32s32,14.3,32,32S-141.3,337-159,337z M-79,369c-8.8,0-16-7.2-16-16s7.2-16,16-16s16,7.2,16,16S-70.2,369-79,369z"/>
</svg>
