<?xml version="1.0" encoding="utf-8"?>
<!-- Generator: Adobe Illustrator 19.0.0, SVG Export Plug-In . SVG Version: 6.00 Build 0)  -->
<svg version="1.1" id="Warstwa_1" xmlns="http://www.w3.org/2000/svg" xmlns:xlink="http://www.w3.org/1999/xlink" x="0px" y="0px"
	 viewBox="-4775 4745 448 512" style="enable-background:new -4775 4745 448 512;" xml:space="preserve">
<style type="text/css">
	.st0{fill:#00D1B2;}
</style>
<polygon class="st0" points="-4588.2,5055.3 -4493,5001.2 -4588.2,4947.1 "/>
<path class="st0" d="M-4375,4777h-352c-26.5,0-48,21.5-48,48v352c0,26.5,21.5,48,48,48h352c26.5,0,48-21.5,48-48v-352
	C-4327,4798.5-4348.5,4777-4375,4777z M-4376.6,5089.4c-4.2,15.8-16.5,27.7-32.2,31.9c-28.3,7.7-142.2,7.7-142.2,7.7
	s-113.9,0-142.2-7.6c-15.7-4.2-28-16.1-32.2-31.9c-7.6-28.6-7.6-88.2-7.6-88.2s0-59.7,7.6-88.2c4.2-15.8,16.5-28.2,32.2-32.4
	c28.3-7.7,142.2-7.7,142.2-7.7s113.9,0,142.2,7.7c15.7,4.2,28,16.6,32.2,32.4c7.6,28.6,7.6,88.2,7.6,88.2l0,0
	C-4369,5001.3-4369,5060.9-4376.6,5089.4z"/>
</svg>
