<?xml version="1.0" encoding="utf-8"?>
<!-- Generator: Adobe Illustrator 19.0.0, SVG Export Plug-In . SVG Version: 6.00 Build 0)  -->
<svg version="1.1" id="Warstwa_1" xmlns="http://www.w3.org/2000/svg" xmlns:xlink="http://www.w3.org/1999/xlink" x="0px" y="0px"
	 viewBox="-133 216.1 233 68.9" style="enable-background:new -133 216.1 233 68.9;" xml:space="preserve">
<style type="text/css">
	.st0{fill:#404040;}
	.st1{fill:#23C495;}
</style>
<path class="st0" d="M-90.4,283.4c8.5-0.1,16.6-3.4,22.7-9.4c6.1-6,9.6-14,9.8-22.5c0.2-6.4-1.5-12.7-4.9-18.2
	c-0.4-0.7-1.2-1.1-2.1-1.1c-0.9,0-1.7,0.5-2.1,1.3c-0.4,0.8-0.4,1.7,0.1,2.5c3,4.8,4.4,10.3,4.1,15.9c-0.6,13.8-12.8,26-26.6,26.7
	c-7.9,0.4-15.5-2.6-21.1-8.2c-5.6-5.6-8.5-13.3-8.2-21.1c0.7-13.8,12.9-26,26.7-26.6c5.6-0.2,11.1,1.2,15.9,4.1
	c0.8,0.5,1.7,0.5,2.5,0.1s1.3-1.2,1.3-2.1c0-0.8-0.4-1.6-1.1-2.1c-5.5-3.4-11.7-5.1-18.2-4.9c-8.5,0.2-16.5,3.7-22.5,9.8
	s-9.4,14.2-9.4,22.7c-0.1,8.9,3.3,17.2,9.6,23.5c6.2,6.2,14.5,9.6,23.2,9.6C-90.6,283.4-90.5,283.4-90.4,283.4"/>
<path class="st1" d="M-90.7,230.7c-1.1,0-2,0.6-2.4,1.7l-12.4,29.7c-0.4,0.9-0.3,1.7,0.2,2.5s1.2,1.2,2.2,1.2c0.5,0,0.9-0.1,1.4-0.4
	s0.8-0.7,1-1.2l3.7-9.1h12.9l3.7,9.1c0.2,0.5,0.5,0.9,1,1.2c0.4,0.3,0.9,0.4,1.4,0.4c1,0,1.7-0.4,2.2-1.1s0.5-1.6,0.2-2.5
	l-12.5-29.7C-88.7,231.3-89.5,230.7-90.7,230.7 M-95.4,251l4.8-11.8l4.7,11.8H-95.4z"/>
<path class="st0" d="M-27,258.8c0.4-0.6,0.4-1.2,0.1-1.9l-8.7-20.7c-0.3-0.9-1-1.3-1.8-1.3s-1.5,0.4-1.8,1.3l-8.7,20.7
	c-0.3,0.7-0.3,1.3,0.1,1.9c0.4,0.6,0.9,0.9,1.6,0.9c0.4,0,0.7-0.1,1-0.3s0.6-0.5,0.8-0.9l2.6-6.2h8.8l2.5,6.2
	c0.2,0.4,0.4,0.7,0.7,0.9c0.3,0.2,0.7,0.3,1.1,0.3C-27.9,259.6-27.4,259.3-27,258.8 M-40.5,249l3.1-7.7l3.1,7.7H-40.5z"/>
<path class="st0" d="M-19.8,246c0.8-0.4,1.8-0.5,2.9-0.5c0.3,0,0.6,0,0.8-0.1c0.3-0.1,0.5-0.3,0.6-0.5c0.2-0.2,0.2-0.5,0.2-0.9
	c0-0.5-0.2-1.2-1.1-1.6c-0.7-0.3-1.6-0.4-2.7-0.1c-0.9,0.2-1.8,0.6-2.5,1.1c-0.1-0.4-0.2-0.7-0.5-1s-0.8-0.5-1.4-0.5
	s-1.1,0.2-1.4,0.5s-0.5,0.8-0.5,1.4v14c0,0.6,0.2,1.1,0.5,1.4s0.8,0.5,1.4,0.5s1.1-0.2,1.4-0.5s0.5-0.8,0.5-1.4v-10.4
	C-21.1,246.8-20.6,246.3-19.8,246"/>
<path class="st0" d="M-4.2,255.8h-1c-0.6,0-1-0.2-1.4-0.7c-0.4-0.5-0.6-1.1-0.6-1.8v-7.7h2.4c0.5,0,1-0.2,1.3-0.5s0.5-0.7,0.5-1.2
	s-0.2-0.9-0.5-1.2s-0.8-0.5-1.3-0.5h-2.5v-3.6c0-0.5-0.2-1-0.5-1.4c-0.4-0.4-0.8-0.5-1.4-0.5c-0.5,0-1,0.2-1.4,0.5
	c-0.4,0.4-0.5,0.8-0.5,1.4v3.6H-12c-0.5,0-1,0.2-1.3,0.5s-0.5,0.7-0.5,1.2s0.2,0.9,0.5,1.2s0.8,0.5,1.3,0.5h0.9v7.7
	c0,1.2,0.3,2.3,0.7,3.2c0.5,1,1.2,1.7,2.1,2.3s1.9,0.8,3,0.8h0.6c0.6,0,1.1-0.2,1.5-0.5c0.4-0.4,0.6-0.8,0.6-1.4
	c0-0.5-0.2-1-0.5-1.3C-3.4,256-3.8,255.8-4.2,255.8"/>
<path class="st0" d="M48,255.3c0.7-1.3,1.1-2.9,1.1-4.5c0-1.7-0.4-3.2-1.2-4.6c-0.8-1.3-1.8-2.4-3.2-3.2c-1.3-0.8-2.8-1.2-4.5-1.2
	s-3.2,0.4-4.5,1.2s-2.4,1.9-3.1,3.2c-0.8,1.3-1.2,2.9-1.2,4.6v14c0,0.5,0.2,1,0.6,1.4c0.4,0.4,0.8,0.6,1.4,0.6c0.6,0,1-0.2,1.4-0.6
	c0.4-0.4,0.5-0.8,0.5-1.4v-7.4c0.6,0.6,1.3,1.1,2.1,1.5c1.1,0.5,2.2,0.8,3.5,0.8c1.6,0,3-0.4,4.2-1.2
	C46.3,257.7,47.3,256.6,48,255.3 M44.7,253.5c-0.5,0.8-1.1,1.5-1.8,1.9c-0.8,0.5-1.6,0.7-2.6,0.7s-1.8-0.2-2.6-0.7s-1.4-1.1-1.8-1.9
	c-0.4-0.8-0.7-1.7-0.7-2.8c0-1,0.2-2,0.7-2.8c0.4-0.8,1.1-1.5,1.8-1.9c0.8-0.5,1.6-0.7,2.6-0.7s1.9,0.2,2.6,0.7
	c0.8,0.5,1.4,1.1,1.8,1.9c0.5,0.8,0.7,1.8,0.7,2.8C45.4,251.8,45.1,252.7,44.7,253.5"/>
<path class="st0" d="M65.7,256.4c0-0.5-0.3-0.9-0.7-1.3c-0.3-0.3-0.7-0.4-1.2-0.4c-0.4,0-0.8,0.2-1.2,0.4c-0.4,0.3-0.9,0.5-1.5,0.8
	c-0.6,0.2-1.2,0.3-1.8,0.3c-1.1,0-2.1-0.2-2.9-0.7c-0.8-0.5-1.5-1.1-2-2c-0.3-0.4-0.4-0.9-0.6-1.4h11.3c0.5,0,0.9-0.2,1.3-0.5
	c0.3-0.3,0.5-0.7,0.5-1.2c0-1.7-0.3-3.2-0.9-4.5s-1.6-2.3-2.8-3.1c-1.2-0.7-2.7-1.1-4.3-1.1c-1.7,0-3.2,0.4-4.5,1.1
	s-2.3,1.8-3.1,3.2c-0.7,1.3-1.1,2.9-1.1,4.6c0,1.7,0.4,3.3,1.2,4.6s1.9,2.4,3.2,3.2c1.4,0.8,3,1.1,4.7,1.1c1,0,2-0.2,3.1-0.5
	c1.1-0.4,2-0.8,2.7-1.4C65.7,257.3,65.8,256.8,65.7,256.4 M54.3,247.9c0.4-0.8,1-1.5,1.8-2s1.7-0.7,2.8-0.7c1,0,1.8,0.2,2.4,0.6
	c0.7,0.4,1.2,1,1.5,1.8c0.2,0.4,0.4,0.9,0.4,1.4h-9.4C54,248.6,54.1,248.2,54.3,247.9"/>
<path class="st0" d="M79.2,247.4c0.4,0.7,0.6,1.6,0.6,2.7v7.6c0,0.5,0.2,1,0.5,1.4c0.4,0.4,0.8,0.6,1.4,0.6c0.5,0,1-0.2,1.4-0.6
	c0.4-0.4,0.6-0.8,0.6-1.4v-7.6c0-1.8-0.3-3.3-1-4.5s-1.6-2.2-2.8-2.8c-1.2-0.6-2.5-1-4-1c-1.4,0-2.7,0.3-3.8,0.9
	c-0.1,0.1-0.3,0.1-0.4,0.2c-0.1-0.2-0.2-0.3-0.3-0.5c-0.4-0.4-0.8-0.5-1.4-0.5c-0.5,0-1,0.2-1.4,0.5c-0.4,0.4-0.6,0.8-0.6,1.4v13.8
	c0,0.5,0.2,1,0.6,1.4c0.4,0.4,0.8,0.6,1.4,0.6s1-0.2,1.4-0.6c0.4-0.4,0.5-0.8,0.5-1.4v-10.9c0.3-0.4,0.7-0.7,1.2-0.9
	c0.6-0.3,1.4-0.5,2.2-0.5c0.9,0,1.7,0.2,2.4,0.5C78.2,246.2,78.8,246.7,79.2,247.4"/>
<path class="st0" d="M27,238L27,238c-1.1-1.1-2.5-2-4-2.7c-1.5-0.6-3.3-0.9-5.1-0.9c-1.9,0-3.6,0.3-5.2,0.9c-1.6,0.6-2.9,1.5-4,2.7
	c-1.1,1.1-2,2.5-2.6,4.1c-0.6,1.6-0.9,3.3-0.9,5.2s0.3,3.6,0.9,5.2c0.6,1.6,1.5,2.9,2.6,4.1c1.1,1.1,2.5,2,4,2.7
	c1.6,0.6,3.3,0.9,5.2,0.9c1.9,0,3.6-0.3,5.1-0.9c1.5-0.6,2.9-1.5,4-2.7c1.1-1.1,2-2.5,2.6-4.1s0.9-3.3,0.9-5.2s-0.3-3.6-0.9-5.2
	C29,240.5,28.1,239.1,27,238 M25.8,250.8c-0.4,1.1-1,2-1.8,2.8s-1.7,1.4-2.7,1.9s-2.2,0.7-3.5,0.7s-2.4-0.2-3.5-0.7
	c-1-0.5-2-1.1-2.7-1.9c-0.8-0.8-1.4-1.7-1.8-2.8c-0.4-1.1-0.6-2.3-0.6-3.5c0-1.3,0.2-2.4,0.6-3.5c0.4-1.1,1-2,1.8-2.8
	s1.7-1.4,2.7-1.9c1-0.4,2.2-0.7,3.5-0.7s2.4,0.2,3.5,0.7c1,0.4,2,1.1,2.7,1.9c0.8,0.8,1.4,1.7,1.8,2.8s0.6,2.3,0.6,3.5
	C26.4,248.5,26.2,249.7,25.8,250.8"/>
</svg>
